<?xml version="1.0" encoding="UTF-8" standalone="no"?>
<!-- Created with Inkscape (http://www.inkscape.org/) -->

<svg
   xmlns:dc="http://purl.org/dc/elements/1.1/"
   xmlns:cc="http://creativecommons.org/ns#"
   xmlns:rdf="http://www.w3.org/1999/02/22-rdf-syntax-ns#"
   xmlns:svg="http://www.w3.org/2000/svg"
   xmlns="http://www.w3.org/2000/svg"
   xmlns:sodipodi="http://sodipodi.sourceforge.net/DTD/sodipodi-0.dtd"
   xmlns:inkscape="http://www.inkscape.org/namespaces/inkscape"
   width="272"
   height="272"
   id="mhs_logo_black"
   version="1.1"
   inkscape:version="0.92.1 r15371"
   sodipodi:docname="green_with_text.svg"
   inkscape:export-filename="green.png"
   inkscape:export-xdpi="68.437508"
   inkscape:export-ydpi="68.437508"
   viewBox="0 0 254.99999 255.00001">
  <defs
     id="defs4">
    <inkscape:perspective
       sodipodi:type="inkscape:persp3d"
       inkscape:vp_x="0 : 526.18111 : 1"
       inkscape:vp_y="0 : 1000 : 0"
       inkscape:vp_z="744.09445 : 526.18111 : 1"
       inkscape:persp3d-origin="372.04723 : 350.78741 : 1"
       id="perspective10" />
    <inkscape:perspective
       id="perspective3608"
       inkscape:persp3d-origin="0.49999999 : 0.33333335 : 1"
       inkscape:vp_z="0.99999996 : 0.50000002 : 1"
       inkscape:vp_y="0 : 1000 : 0"
       inkscape:vp_x="0 : 0.50000002 : 1"
       sodipodi:type="inkscape:persp3d" />
    <inkscape:perspective
       id="perspective3608-7"
       inkscape:persp3d-origin="0.49999999 : 0.33333335 : 1"
       inkscape:vp_z="0.99999996 : 0.50000002 : 1"
       inkscape:vp_y="0 : 1000 : 0"
       inkscape:vp_x="0 : 0.50000002 : 1"
       sodipodi:type="inkscape:persp3d" />
    <inkscape:perspective
       id="perspective3608-6"
       inkscape:persp3d-origin="0.49999999 : 0.33333335 : 1"
       inkscape:vp_z="0.99999996 : 0.50000002 : 1"
       inkscape:vp_y="0 : 1000 : 0"
       inkscape:vp_x="0 : 0.50000002 : 1"
       sodipodi:type="inkscape:persp3d" />
    <inkscape:perspective
       id="perspective3669"
       inkscape:persp3d-origin="0.49999999 : 0.33333335 : 1"
       inkscape:vp_z="0.99999996 : 0.50000002 : 1"
       inkscape:vp_y="0 : 1000 : 0"
       inkscape:vp_x="0 : 0.50000002 : 1"
       sodipodi:type="inkscape:persp3d" />
    <inkscape:perspective
       id="perspective3767"
       inkscape:persp3d-origin="0.49999999 : 0.33333335 : 1"
       inkscape:vp_z="0.99999996 : 0.50000002 : 1"
       inkscape:vp_y="0 : 1000 : 0"
       inkscape:vp_x="0 : 0.50000002 : 1"
       sodipodi:type="inkscape:persp3d" />
    <inkscape:perspective
       id="perspective3789"
       inkscape:persp3d-origin="0.49999999 : 0.33333335 : 1"
       inkscape:vp_z="0.99999996 : 0.50000002 : 1"
       inkscape:vp_y="0 : 1000 : 0"
       inkscape:vp_x="0 : 0.50000002 : 1"
       sodipodi:type="inkscape:persp3d" />
    <inkscape:perspective
       id="perspective3811"
       inkscape:persp3d-origin="0.49999999 : 0.33333335 : 1"
       inkscape:vp_z="0.99999996 : 0.50000002 : 1"
       inkscape:vp_y="0 : 1000 : 0"
       inkscape:vp_x="0 : 0.50000002 : 1"
       sodipodi:type="inkscape:persp3d" />
    <inkscape:perspective
       id="perspective3833"
       inkscape:persp3d-origin="0.49999999 : 0.33333335 : 1"
       inkscape:vp_z="0.99999996 : 0.50000002 : 1"
       inkscape:vp_y="0 : 1000 : 0"
       inkscape:vp_x="0 : 0.50000002 : 1"
       sodipodi:type="inkscape:persp3d" />
    <inkscape:perspective
       id="perspective3862"
       inkscape:persp3d-origin="0.49999999 : 0.33333335 : 1"
       inkscape:vp_z="0.99999996 : 0.50000002 : 1"
       inkscape:vp_y="0 : 1000 : 0"
       inkscape:vp_x="0 : 0.50000002 : 1"
       sodipodi:type="inkscape:persp3d" />
    <inkscape:perspective
       id="perspective3884"
       inkscape:persp3d-origin="0.49999999 : 0.33333335 : 1"
       inkscape:vp_z="0.99999996 : 0.50000002 : 1"
       inkscape:vp_y="0 : 1000 : 0"
       inkscape:vp_x="0 : 0.50000002 : 1"
       sodipodi:type="inkscape:persp3d" />
    <inkscape:perspective
       id="perspective3912"
       inkscape:persp3d-origin="0.49999999 : 0.33333335 : 1"
       inkscape:vp_z="0.99999996 : 0.50000002 : 1"
       inkscape:vp_y="0 : 1000 : 0"
       inkscape:vp_x="0 : 0.50000002 : 1"
       sodipodi:type="inkscape:persp3d" />
    <inkscape:perspective
       id="perspective3955"
       inkscape:persp3d-origin="0.49999999 : 0.33333335 : 1"
       inkscape:vp_z="0.99999996 : 0.50000002 : 1"
       inkscape:vp_y="0 : 1000 : 0"
       inkscape:vp_x="0 : 0.50000002 : 1"
       sodipodi:type="inkscape:persp3d" />
    <inkscape:perspective
       id="perspective4011"
       inkscape:persp3d-origin="0.49999999 : 0.33333335 : 1"
       inkscape:vp_z="0.99999996 : 0.50000002 : 1"
       inkscape:vp_y="0 : 1000 : 0"
       inkscape:vp_x="0 : 0.50000002 : 1"
       sodipodi:type="inkscape:persp3d" />
    <inkscape:perspective
       id="perspective4050"
       inkscape:persp3d-origin="0.49999999 : 0.33333335 : 1"
       inkscape:vp_z="0.99999996 : 0.50000002 : 1"
       inkscape:vp_y="0 : 1000 : 0"
       inkscape:vp_x="0 : 0.50000002 : 1"
       sodipodi:type="inkscape:persp3d" />
    <inkscape:perspective
       id="perspective4084"
       inkscape:persp3d-origin="0.49999999 : 0.33333335 : 1"
       inkscape:vp_z="0.99999996 : 0.50000002 : 1"
       inkscape:vp_y="0 : 1000 : 0"
       inkscape:vp_x="0 : 0.50000002 : 1"
       sodipodi:type="inkscape:persp3d" />
    <inkscape:perspective
       id="perspective4118"
       inkscape:persp3d-origin="0.49999999 : 0.33333335 : 1"
       inkscape:vp_z="0.99999996 : 0.50000002 : 1"
       inkscape:vp_y="0 : 1000 : 0"
       inkscape:vp_x="0 : 0.50000002 : 1"
       sodipodi:type="inkscape:persp3d" />
    <inkscape:perspective
       id="perspective4152"
       inkscape:persp3d-origin="0.49999999 : 0.33333335 : 1"
       inkscape:vp_z="0.99999996 : 0.50000002 : 1"
       inkscape:vp_y="0 : 1000 : 0"
       inkscape:vp_x="0 : 0.50000002 : 1"
       sodipodi:type="inkscape:persp3d" />
    <inkscape:perspective
       id="perspective4175"
       inkscape:persp3d-origin="0.49999999 : 0.33333335 : 1"
       inkscape:vp_z="0.99999996 : 0.50000002 : 1"
       inkscape:vp_y="0 : 1000 : 0"
       inkscape:vp_x="0 : 0.50000002 : 1"
       sodipodi:type="inkscape:persp3d" />
    <inkscape:perspective
       id="perspective4197"
       inkscape:persp3d-origin="0.49999999 : 0.33333335 : 1"
       inkscape:vp_z="0.99999996 : 0.50000002 : 1"
       inkscape:vp_y="0 : 1000 : 0"
       inkscape:vp_x="0 : 0.50000002 : 1"
       sodipodi:type="inkscape:persp3d" />
    <inkscape:perspective
       id="perspective4222"
       inkscape:persp3d-origin="0.49999999 : 0.33333335 : 1"
       inkscape:vp_z="0.99999996 : 0.50000002 : 1"
       inkscape:vp_y="0 : 1000 : 0"
       inkscape:vp_x="0 : 0.50000002 : 1"
       sodipodi:type="inkscape:persp3d" />
    <inkscape:perspective
       id="perspective4263"
       inkscape:persp3d-origin="0.49999999 : 0.33333335 : 1"
       inkscape:vp_z="0.99999996 : 0.50000002 : 1"
       inkscape:vp_y="0 : 1000 : 0"
       inkscape:vp_x="0 : 0.50000002 : 1"
       sodipodi:type="inkscape:persp3d" />
    <inkscape:perspective
       id="perspective4297"
       inkscape:persp3d-origin="0.49999999 : 0.33333335 : 1"
       inkscape:vp_z="0.99999996 : 0.50000002 : 1"
       inkscape:vp_y="0 : 1000 : 0"
       inkscape:vp_x="0 : 0.50000002 : 1"
       sodipodi:type="inkscape:persp3d" />
    <inkscape:perspective
       id="perspective4321"
       inkscape:persp3d-origin="0.49999999 : 0.33333335 : 1"
       inkscape:vp_z="0.99999996 : 0.50000002 : 1"
       inkscape:vp_y="0 : 1000 : 0"
       inkscape:vp_x="0 : 0.50000002 : 1"
       sodipodi:type="inkscape:persp3d" />
    <inkscape:perspective
       id="perspective4345"
       inkscape:persp3d-origin="0.49999999 : 0.33333335 : 1"
       inkscape:vp_z="0.99999996 : 0.50000002 : 1"
       inkscape:vp_y="0 : 1000 : 0"
       inkscape:vp_x="0 : 0.50000002 : 1"
       sodipodi:type="inkscape:persp3d" />
    <inkscape:perspective
       id="perspective4367"
       inkscape:persp3d-origin="0.49999999 : 0.33333335 : 1"
       inkscape:vp_z="0.99999996 : 0.50000002 : 1"
       inkscape:vp_y="0 : 1000 : 0"
       inkscape:vp_x="0 : 0.50000002 : 1"
       sodipodi:type="inkscape:persp3d" />
    <inkscape:perspective
       id="perspective4415"
       inkscape:persp3d-origin="0.49999999 : 0.33333335 : 1"
       inkscape:vp_z="0.99999996 : 0.50000002 : 1"
       inkscape:vp_y="0 : 1000 : 0"
       inkscape:vp_x="0 : 0.50000002 : 1"
       sodipodi:type="inkscape:persp3d" />
    <inkscape:perspective
       id="perspective4461"
       inkscape:persp3d-origin="0.49999999 : 0.33333335 : 1"
       inkscape:vp_z="0.99999996 : 0.50000002 : 1"
       inkscape:vp_y="0 : 1000 : 0"
       inkscape:vp_x="0 : 0.50000002 : 1"
       sodipodi:type="inkscape:persp3d" />
    <inkscape:perspective
       id="perspective4515"
       inkscape:persp3d-origin="0.49999999 : 0.33333335 : 1"
       inkscape:vp_z="0.99999996 : 0.50000002 : 1"
       inkscape:vp_y="0 : 1000 : 0"
       inkscape:vp_x="0 : 0.50000002 : 1"
       sodipodi:type="inkscape:persp3d" />
    <inkscape:perspective
       id="perspective4578"
       inkscape:persp3d-origin="0.49999999 : 0.33333335 : 1"
       inkscape:vp_z="0.99999996 : 0.50000002 : 1"
       inkscape:vp_y="0 : 1000 : 0"
       inkscape:vp_x="0 : 0.50000002 : 1"
       sodipodi:type="inkscape:persp3d" />
    <inkscape:perspective
       id="perspective4600"
       inkscape:persp3d-origin="0.49999999 : 0.33333335 : 1"
       inkscape:vp_z="0.99999996 : 0.50000002 : 1"
       inkscape:vp_y="0 : 1000 : 0"
       inkscape:vp_x="0 : 0.50000002 : 1"
       sodipodi:type="inkscape:persp3d" />
    <inkscape:perspective
       id="perspective4600-3"
       inkscape:persp3d-origin="0.49999999 : 0.33333335 : 1"
       inkscape:vp_z="0.99999996 : 0.50000002 : 1"
       inkscape:vp_y="0 : 1000 : 0"
       inkscape:vp_x="0 : 0.50000002 : 1"
       sodipodi:type="inkscape:persp3d" />
    <inkscape:perspective
       id="perspective2828"
       inkscape:persp3d-origin="0.49999999 : 0.33333335 : 1"
       inkscape:vp_z="0.99999996 : 0.50000002 : 1"
       inkscape:vp_y="0 : 1000 : 0"
       inkscape:vp_x="0 : 0.50000002 : 1"
       sodipodi:type="inkscape:persp3d" />
    <inkscape:perspective
       id="perspective2948"
       inkscape:persp3d-origin="0.49999999 : 0.33333335 : 1"
       inkscape:vp_z="0.99999996 : 0.50000002 : 1"
       inkscape:vp_y="0 : 1000 : 0"
       inkscape:vp_x="0 : 0.50000002 : 1"
       sodipodi:type="inkscape:persp3d" />
    <inkscape:perspective
       id="perspective2889"
       inkscape:persp3d-origin="0.49999999 : 0.33333335 : 1"
       inkscape:vp_z="0.99999996 : 0.50000002 : 1"
       inkscape:vp_y="0 : 1000 : 0"
       inkscape:vp_x="0 : 0.50000002 : 1"
       sodipodi:type="inkscape:persp3d" />
    <inkscape:perspective
       id="perspective2911"
       inkscape:persp3d-origin="0.49999999 : 0.33333335 : 1"
       inkscape:vp_z="0.99999996 : 0.50000002 : 1"
       inkscape:vp_y="0 : 1000 : 0"
       inkscape:vp_x="0 : 0.50000002 : 1"
       sodipodi:type="inkscape:persp3d" />
    <inkscape:perspective
       id="perspective3733"
       inkscape:persp3d-origin="0.49999999 : 0.33333335 : 1"
       inkscape:vp_z="0.99999996 : 0.50000002 : 1"
       inkscape:vp_y="0 : 1000 : 0"
       inkscape:vp_x="0 : 0.50000002 : 1"
       sodipodi:type="inkscape:persp3d" />
    <inkscape:perspective
       id="perspective3789-2"
       inkscape:persp3d-origin="0.49999999 : 0.33333335 : 1"
       inkscape:vp_z="0.99999996 : 0.50000002 : 1"
       inkscape:vp_y="0 : 1000 : 0"
       inkscape:vp_x="0 : 0.50000002 : 1"
       sodipodi:type="inkscape:persp3d" />
    <inkscape:perspective
       id="perspective3817"
       inkscape:persp3d-origin="0.49999999 : 0.33333335 : 1"
       inkscape:vp_z="0.99999996 : 0.50000002 : 1"
       inkscape:vp_y="0 : 1000 : 0"
       inkscape:vp_x="0 : 0.50000002 : 1"
       sodipodi:type="inkscape:persp3d" />
    <inkscape:perspective
       id="perspective3817-5"
       inkscape:persp3d-origin="0.49999999 : 0.33333335 : 1"
       inkscape:vp_z="0.99999996 : 0.50000002 : 1"
       inkscape:vp_y="0 : 1000 : 0"
       inkscape:vp_x="0 : 0.50000002 : 1"
       sodipodi:type="inkscape:persp3d" />
    <inkscape:perspective
       id="perspective3817-6"
       inkscape:persp3d-origin="0.49999999 : 0.33333335 : 1"
       inkscape:vp_z="0.99999996 : 0.50000002 : 1"
       inkscape:vp_y="0 : 1000 : 0"
       inkscape:vp_x="0 : 0.50000002 : 1"
       sodipodi:type="inkscape:persp3d" />
    <inkscape:perspective
       id="perspective3817-2"
       inkscape:persp3d-origin="0.49999999 : 0.33333335 : 1"
       inkscape:vp_z="0.99999996 : 0.50000002 : 1"
       inkscape:vp_y="0 : 1000 : 0"
       inkscape:vp_x="0 : 0.50000002 : 1"
       sodipodi:type="inkscape:persp3d" />
    <inkscape:perspective
       id="perspective3867"
       inkscape:persp3d-origin="0.49999999 : 0.33333335 : 1"
       inkscape:vp_z="0.99999996 : 0.50000002 : 1"
       inkscape:vp_y="0 : 1000 : 0"
       inkscape:vp_x="0 : 0.50000002 : 1"
       sodipodi:type="inkscape:persp3d" />
    <inkscape:perspective
       id="perspective3680"
       inkscape:persp3d-origin="0.49999999 : 0.33333335 : 1"
       inkscape:vp_z="0.99999996 : 0.50000002 : 1"
       inkscape:vp_y="0 : 1000 : 0"
       inkscape:vp_x="0 : 0.50000002 : 1"
       sodipodi:type="inkscape:persp3d" />
    <inkscape:perspective
       id="perspective3680-7"
       inkscape:persp3d-origin="0.49999999 : 0.33333335 : 1"
       inkscape:vp_z="0.99999996 : 0.50000002 : 1"
       inkscape:vp_y="0 : 1000 : 0"
       inkscape:vp_x="0 : 0.50000002 : 1"
       sodipodi:type="inkscape:persp3d" />
    <inkscape:perspective
       id="perspective3713"
       inkscape:persp3d-origin="0.49999999 : 0.33333335 : 1"
       inkscape:vp_z="0.99999996 : 0.50000002 : 1"
       inkscape:vp_y="0 : 1000 : 0"
       inkscape:vp_x="0 : 0.50000002 : 1"
       sodipodi:type="inkscape:persp3d" />
    <inkscape:perspective
       id="perspective3737"
       inkscape:persp3d-origin="0.49999999 : 0.33333335 : 1"
       inkscape:vp_z="0.99999996 : 0.50000002 : 1"
       inkscape:vp_y="0 : 1000 : 0"
       inkscape:vp_x="0 : 0.50000002 : 1"
       sodipodi:type="inkscape:persp3d" />
    <inkscape:perspective
       id="perspective3737-0"
       inkscape:persp3d-origin="0.49999999 : 0.33333335 : 1"
       inkscape:vp_z="0.99999996 : 0.50000002 : 1"
       inkscape:vp_y="0 : 1000 : 0"
       inkscape:vp_x="0 : 0.50000002 : 1"
       sodipodi:type="inkscape:persp3d" />
    <inkscape:perspective
       id="perspective3737-1"
       inkscape:persp3d-origin="0.49999999 : 0.33333335 : 1"
       inkscape:vp_z="0.99999996 : 0.50000002 : 1"
       inkscape:vp_y="0 : 1000 : 0"
       inkscape:vp_x="0 : 0.50000002 : 1"
       sodipodi:type="inkscape:persp3d" />
    <inkscape:perspective
       id="perspective3737-5"
       inkscape:persp3d-origin="0.49999999 : 0.33333335 : 1"
       inkscape:vp_z="0.99999996 : 0.50000002 : 1"
       inkscape:vp_y="0 : 1000 : 0"
       inkscape:vp_x="0 : 0.50000002 : 1"
       sodipodi:type="inkscape:persp3d" />
    <inkscape:perspective
       id="perspective3737-7"
       inkscape:persp3d-origin="0.49999999 : 0.33333335 : 1"
       inkscape:vp_z="0.99999996 : 0.50000002 : 1"
       inkscape:vp_y="0 : 1000 : 0"
       inkscape:vp_x="0 : 0.50000002 : 1"
       sodipodi:type="inkscape:persp3d" />
    <inkscape:perspective
       id="perspective3802"
       inkscape:persp3d-origin="0.49999999 : 0.33333335 : 1"
       inkscape:vp_z="0.99999996 : 0.50000002 : 1"
       inkscape:vp_y="0 : 1000 : 0"
       inkscape:vp_x="0 : 0.50000002 : 1"
       sodipodi:type="inkscape:persp3d" />
    <inkscape:perspective
       id="perspective3826"
       inkscape:persp3d-origin="0.49999999 : 0.33333335 : 1"
       inkscape:vp_z="0.99999996 : 0.50000002 : 1"
       inkscape:vp_y="0 : 1000 : 0"
       inkscape:vp_x="0 : 0.50000002 : 1"
       sodipodi:type="inkscape:persp3d" />
    <inkscape:perspective
       id="perspective3826-4"
       inkscape:persp3d-origin="0.49999999 : 0.33333335 : 1"
       inkscape:vp_z="0.99999996 : 0.50000002 : 1"
       inkscape:vp_y="0 : 1000 : 0"
       inkscape:vp_x="0 : 0.50000002 : 1"
       sodipodi:type="inkscape:persp3d" />
    <inkscape:perspective
       id="perspective3826-6"
       inkscape:persp3d-origin="0.49999999 : 0.33333335 : 1"
       inkscape:vp_z="0.99999996 : 0.50000002 : 1"
       inkscape:vp_y="0 : 1000 : 0"
       inkscape:vp_x="0 : 0.50000002 : 1"
       sodipodi:type="inkscape:persp3d" />
    <inkscape:perspective
       id="perspective3866"
       inkscape:persp3d-origin="0.49999999 : 0.33333335 : 1"
       inkscape:vp_z="0.99999996 : 0.50000002 : 1"
       inkscape:vp_y="0 : 1000 : 0"
       inkscape:vp_x="0 : 0.50000002 : 1"
       sodipodi:type="inkscape:persp3d" />
    <inkscape:perspective
       id="perspective3707"
       inkscape:persp3d-origin="0.49999999 : 0.33333335 : 1"
       inkscape:vp_z="0.99999996 : 0.50000002 : 1"
       inkscape:vp_y="0 : 1000 : 0"
       inkscape:vp_x="0 : 0.50000002 : 1"
       sodipodi:type="inkscape:persp3d" />
    <inkscape:perspective
       id="perspective3933"
       inkscape:persp3d-origin="0.49999999 : 0.33333335 : 1"
       inkscape:vp_z="0.99999996 : 0.50000002 : 1"
       inkscape:vp_y="0 : 1000 : 0"
       inkscape:vp_x="0 : 0.50000002 : 1"
       sodipodi:type="inkscape:persp3d" />
    <inkscape:perspective
       id="perspective3958"
       inkscape:persp3d-origin="0.49999999 : 0.33333335 : 1"
       inkscape:vp_z="0.99999996 : 0.50000002 : 1"
       inkscape:vp_y="0 : 1000 : 0"
       inkscape:vp_x="0 : 0.50000002 : 1"
       sodipodi:type="inkscape:persp3d" />
    <inkscape:perspective
       id="perspective3980"
       inkscape:persp3d-origin="0.49999999 : 0.33333335 : 1"
       inkscape:vp_z="0.99999996 : 0.50000002 : 1"
       inkscape:vp_y="0 : 1000 : 0"
       inkscape:vp_x="0 : 0.50000002 : 1"
       sodipodi:type="inkscape:persp3d" />
    <inkscape:perspective
       id="perspective4004"
       inkscape:persp3d-origin="0.49999999 : 0.33333335 : 1"
       inkscape:vp_z="0.99999996 : 0.50000002 : 1"
       inkscape:vp_y="0 : 1000 : 0"
       inkscape:vp_x="0 : 0.50000002 : 1"
       sodipodi:type="inkscape:persp3d" />
    <inkscape:perspective
       id="perspective4026"
       inkscape:persp3d-origin="0.49999999 : 0.33333335 : 1"
       inkscape:vp_z="0.99999996 : 0.50000002 : 1"
       inkscape:vp_y="0 : 1000 : 0"
       inkscape:vp_x="0 : 0.50000002 : 1"
       sodipodi:type="inkscape:persp3d" />
    <inkscape:perspective
       id="perspective4048"
       inkscape:persp3d-origin="0.49999999 : 0.33333335 : 1"
       inkscape:vp_z="0.99999996 : 0.50000002 : 1"
       inkscape:vp_y="0 : 1000 : 0"
       inkscape:vp_x="0 : 0.50000002 : 1"
       sodipodi:type="inkscape:persp3d" />
    <inkscape:perspective
       id="perspective4071"
       inkscape:persp3d-origin="0.49999999 : 0.33333335 : 1"
       inkscape:vp_z="0.99999996 : 0.50000002 : 1"
       inkscape:vp_y="0 : 1000 : 0"
       inkscape:vp_x="0 : 0.50000002 : 1"
       sodipodi:type="inkscape:persp3d" />
    <inkscape:perspective
       id="perspective4095"
       inkscape:persp3d-origin="0.49999999 : 0.33333335 : 1"
       inkscape:vp_z="0.99999996 : 0.50000002 : 1"
       inkscape:vp_y="0 : 1000 : 0"
       inkscape:vp_x="0 : 0.50000002 : 1"
       sodipodi:type="inkscape:persp3d" />
    <inkscape:perspective
       id="perspective4117"
       inkscape:persp3d-origin="0.49999999 : 0.33333335 : 1"
       inkscape:vp_z="0.99999996 : 0.50000002 : 1"
       inkscape:vp_y="0 : 1000 : 0"
       inkscape:vp_x="0 : 0.50000002 : 1"
       sodipodi:type="inkscape:persp3d" />
    <inkscape:perspective
       id="perspective4147"
       inkscape:persp3d-origin="0.49999999 : 0.33333335 : 1"
       inkscape:vp_z="0.99999996 : 0.50000002 : 1"
       inkscape:vp_y="0 : 1000 : 0"
       inkscape:vp_x="0 : 0.50000002 : 1"
       sodipodi:type="inkscape:persp3d" />
    <inkscape:perspective
       id="perspective4181"
       inkscape:persp3d-origin="0.49999999 : 0.33333335 : 1"
       inkscape:vp_z="0.99999996 : 0.50000002 : 1"
       inkscape:vp_y="0 : 1000 : 0"
       inkscape:vp_x="0 : 0.50000002 : 1"
       sodipodi:type="inkscape:persp3d" />
    <inkscape:perspective
       id="perspective4215"
       inkscape:persp3d-origin="0.49999999 : 0.33333335 : 1"
       inkscape:vp_z="0.99999996 : 0.50000002 : 1"
       inkscape:vp_y="0 : 1000 : 0"
       inkscape:vp_x="0 : 0.50000002 : 1"
       sodipodi:type="inkscape:persp3d" />
    <inkscape:perspective
       id="perspective4267"
       inkscape:persp3d-origin="0.49999999 : 0.33333335 : 1"
       inkscape:vp_z="0.99999996 : 0.50000002 : 1"
       inkscape:vp_y="0 : 1000 : 0"
       inkscape:vp_x="0 : 0.50000002 : 1"
       sodipodi:type="inkscape:persp3d" />
    <inkscape:perspective
       id="perspective4289"
       inkscape:persp3d-origin="0.49999999 : 0.33333335 : 1"
       inkscape:vp_z="0.99999996 : 0.50000002 : 1"
       inkscape:vp_y="0 : 1000 : 0"
       inkscape:vp_x="0 : 0.50000002 : 1"
       sodipodi:type="inkscape:persp3d" />
    <inkscape:perspective
       id="perspective4343"
       inkscape:persp3d-origin="0.49999999 : 0.33333335 : 1"
       inkscape:vp_z="0.99999996 : 0.50000002 : 1"
       inkscape:vp_y="0 : 1000 : 0"
       inkscape:vp_x="0 : 0.50000002 : 1"
       sodipodi:type="inkscape:persp3d" />
    <inkscape:perspective
       id="perspective4424"
       inkscape:persp3d-origin="0.49999999 : 0.33333335 : 1"
       inkscape:vp_z="0.99999996 : 0.50000002 : 1"
       inkscape:vp_y="0 : 1000 : 0"
       inkscape:vp_x="0 : 0.50000002 : 1"
       sodipodi:type="inkscape:persp3d" />
    <inkscape:perspective
       id="perspective4468"
       inkscape:persp3d-origin="0.49999999 : 0.33333335 : 1"
       inkscape:vp_z="0.99999996 : 0.50000002 : 1"
       inkscape:vp_y="0 : 1000 : 0"
       inkscape:vp_x="0 : 0.50000002 : 1"
       sodipodi:type="inkscape:persp3d" />
    <inkscape:perspective
       id="perspective4490"
       inkscape:persp3d-origin="0.49999999 : 0.33333335 : 1"
       inkscape:vp_z="0.99999996 : 0.50000002 : 1"
       inkscape:vp_y="0 : 1000 : 0"
       inkscape:vp_x="0 : 0.50000002 : 1"
       sodipodi:type="inkscape:persp3d" />
    <inkscape:perspective
       id="perspective4513"
       inkscape:persp3d-origin="0.49999999 : 0.33333335 : 1"
       inkscape:vp_z="0.99999996 : 0.50000002 : 1"
       inkscape:vp_y="0 : 1000 : 0"
       inkscape:vp_x="0 : 0.50000002 : 1"
       sodipodi:type="inkscape:persp3d" />
    <inkscape:perspective
       id="perspective4536"
       inkscape:persp3d-origin="0.49999999 : 0.33333335 : 1"
       inkscape:vp_z="0.99999996 : 0.50000002 : 1"
       inkscape:vp_y="0 : 1000 : 0"
       inkscape:vp_x="0 : 0.50000002 : 1"
       sodipodi:type="inkscape:persp3d" />
    <inkscape:perspective
       id="perspective4561"
       inkscape:persp3d-origin="0.49999999 : 0.33333335 : 1"
       inkscape:vp_z="0.99999996 : 0.50000002 : 1"
       inkscape:vp_y="0 : 1000 : 0"
       inkscape:vp_x="0 : 0.50000002 : 1"
       sodipodi:type="inkscape:persp3d" />
    <inkscape:perspective
       id="perspective4561-9"
       inkscape:persp3d-origin="0.49999999 : 0.33333335 : 1"
       inkscape:vp_z="0.99999996 : 0.50000002 : 1"
       inkscape:vp_y="0 : 1000 : 0"
       inkscape:vp_x="0 : 0.50000002 : 1"
       sodipodi:type="inkscape:persp3d" />
    <inkscape:perspective
       id="perspective4615"
       inkscape:persp3d-origin="0.49999999 : 0.33333335 : 1"
       inkscape:vp_z="0.99999996 : 0.50000002 : 1"
       inkscape:vp_y="0 : 1000 : 0"
       inkscape:vp_x="0 : 0.50000002 : 1"
       sodipodi:type="inkscape:persp3d" />
    <inkscape:perspective
       id="perspective4615-9"
       inkscape:persp3d-origin="0.49999999 : 0.33333335 : 1"
       inkscape:vp_z="0.99999996 : 0.50000002 : 1"
       inkscape:vp_y="0 : 1000 : 0"
       inkscape:vp_x="0 : 0.50000002 : 1"
       sodipodi:type="inkscape:persp3d" />
    <inkscape:perspective
       id="perspective4648"
       inkscape:persp3d-origin="0.49999999 : 0.33333335 : 1"
       inkscape:vp_z="0.99999996 : 0.50000002 : 1"
       inkscape:vp_y="0 : 1000 : 0"
       inkscape:vp_x="0 : 0.50000002 : 1"
       sodipodi:type="inkscape:persp3d" />
    <inkscape:perspective
       id="perspective4670"
       inkscape:persp3d-origin="0.49999999 : 0.33333335 : 1"
       inkscape:vp_z="0.99999996 : 0.50000002 : 1"
       inkscape:vp_y="0 : 1000 : 0"
       inkscape:vp_x="0 : 0.50000002 : 1"
       sodipodi:type="inkscape:persp3d" />
    <inkscape:perspective
       id="perspective4697"
       inkscape:persp3d-origin="0.49999999 : 0.33333335 : 1"
       inkscape:vp_z="0.99999996 : 0.50000002 : 1"
       inkscape:vp_y="0 : 1000 : 0"
       inkscape:vp_x="0 : 0.50000002 : 1"
       sodipodi:type="inkscape:persp3d" />
    <inkscape:perspective
       id="perspective4738"
       inkscape:persp3d-origin="0.49999999 : 0.33333335 : 1"
       inkscape:vp_z="0.99999996 : 0.50000002 : 1"
       inkscape:vp_y="0 : 1000 : 0"
       inkscape:vp_x="0 : 0.50000002 : 1"
       sodipodi:type="inkscape:persp3d" />
    <inkscape:perspective
       id="perspective4858"
       inkscape:persp3d-origin="0.49999999 : 0.33333335 : 1"
       inkscape:vp_z="0.99999996 : 0.50000002 : 1"
       inkscape:vp_y="0 : 1000 : 0"
       inkscape:vp_x="0 : 0.50000002 : 1"
       sodipodi:type="inkscape:persp3d" />
    <inkscape:perspective
       id="perspective4894"
       inkscape:persp3d-origin="0.49999999 : 0.33333335 : 1"
       inkscape:vp_z="0.99999996 : 0.50000002 : 1"
       inkscape:vp_y="0 : 1000 : 0"
       inkscape:vp_x="0 : 0.50000002 : 1"
       sodipodi:type="inkscape:persp3d" />
    <inkscape:perspective
       id="perspective4894-2"
       inkscape:persp3d-origin="0.49999999 : 0.33333335 : 1"
       inkscape:vp_z="0.99999996 : 0.50000002 : 1"
       inkscape:vp_y="0 : 1000 : 0"
       inkscape:vp_x="0 : 0.50000002 : 1"
       sodipodi:type="inkscape:persp3d" />
    <inkscape:perspective
       id="perspective4965"
       inkscape:persp3d-origin="0.49999999 : 0.33333335 : 1"
       inkscape:vp_z="0.99999996 : 0.50000002 : 1"
       inkscape:vp_y="0 : 1000 : 0"
       inkscape:vp_x="0 : 0.50000002 : 1"
       sodipodi:type="inkscape:persp3d" />
    <inkscape:perspective
       id="perspective4987"
       inkscape:persp3d-origin="0.49999999 : 0.33333335 : 1"
       inkscape:vp_z="0.99999996 : 0.50000002 : 1"
       inkscape:vp_y="0 : 1000 : 0"
       inkscape:vp_x="0 : 0.50000002 : 1"
       sodipodi:type="inkscape:persp3d" />
    <inkscape:perspective
       id="perspective5040"
       inkscape:persp3d-origin="0.49999999 : 0.33333335 : 1"
       inkscape:vp_z="0.99999996 : 0.50000002 : 1"
       inkscape:vp_y="0 : 1000 : 0"
       inkscape:vp_x="0 : 0.50000002 : 1"
       sodipodi:type="inkscape:persp3d" />
    <inkscape:perspective
       id="perspective5074"
       inkscape:persp3d-origin="0.49999999 : 0.33333335 : 1"
       inkscape:vp_z="0.99999996 : 0.50000002 : 1"
       inkscape:vp_y="0 : 1000 : 0"
       inkscape:vp_x="0 : 0.50000002 : 1"
       sodipodi:type="inkscape:persp3d" />
    <inkscape:perspective
       id="perspective5275"
       inkscape:persp3d-origin="0.49999999 : 0.33333335 : 1"
       inkscape:vp_z="0.99999996 : 0.50000002 : 1"
       inkscape:vp_y="0 : 1000 : 0"
       inkscape:vp_x="0 : 0.50000002 : 1"
       sodipodi:type="inkscape:persp3d" />
    <inkscape:perspective
       id="perspective5275-7"
       inkscape:persp3d-origin="0.49999999 : 0.33333335 : 1"
       inkscape:vp_z="0.99999996 : 0.50000002 : 1"
       inkscape:vp_y="0 : 1000 : 0"
       inkscape:vp_x="0 : 0.50000002 : 1"
       sodipodi:type="inkscape:persp3d" />
  </defs>
  <sodipodi:namedview
     id="base"
     pagecolor="#ffffff"
     bordercolor="#666666"
     borderopacity="1.0"
     inkscape:pageopacity="0.0"
     inkscape:pageshadow="2"
     inkscape:zoom="2"
     inkscape:cx="80.645651"
     inkscape:cy="143.58648"
     inkscape:document-units="px"
     inkscape:current-layer="layer1"
     showgrid="false"
     inkscape:snap-nodes="true"
     inkscape:window-width="3840"
     inkscape:window-height="2092"
     inkscape:window-x="0"
     inkscape:window-y="49"
     inkscape:window-maximized="1"
     inkscape:snap-page="false"
     borderlayer="true"
     fit-margin-top="0"
     fit-margin-left="0"
     fit-margin-right="0"
     fit-margin-bottom="0" />
  <metadata
     id="metadata7">
    <rdf:RDF>
      <cc:Work
         rdf:about="">
        <dc:format>image/svg+xml</dc:format>
        <dc:type
           rdf:resource="http://purl.org/dc/dcmitype/StillImage" />
        <dc:title></dc:title>
      </cc:Work>
    </rdf:RDF>
  </metadata>
  <g
     inkscape:label="Layer 1"
     inkscape:groupmode="layer"
     id="layer1"
     transform="translate(4.8313715e-6,-797.36217)">
    <g
       id="g4916">
      <g
         id="g4828">
        <path
           style="fill:#009966;fill-opacity:1;stroke:none;stroke-width:0.9375"
           d="m -2.3e-6,797.36217 v 77.75391 L 42.304685,901.42467 -2.3e-6,927.73327 v 77.75393 H 74.999997 V 952.98717 H 180 v 52.50003 h 74.99999 v -77.75393 l -42.30468,-26.3086 42.30468,-26.30859 V 797.36217 H 180 v 52.5 H 74.999997 v -52.5 z"
           id="rect2894-4"
           inkscape:connector-curvature="0" />
        <path
           inkscape:connector-curvature="0"
           style="fill:#141414;fill-opacity:1;stroke:none;stroke-width:0.9375"
           d="m 86.249997,861.11217 v 3.10547 77.51953 H 101.25 v -43.0664 l 18.75,43.0664 h 15 l 18.75,-43.0664 v 43.0664 h 15 v -77.51953 -3.10547 h -15 l -26.25,60.23438 -26.25,-60.23438 z"
           id="rect3816-5" />
        <g
           id="g4174"
           transform="matrix(0.93749999,0,0,0.9375,-215.625,768.89763)">
          <path
             inkscape:connector-curvature="0"
             id="path2898-9-5"
             d="m 330,142.36216 c -1.86396,0 -3.43108,1.2746 -3.875,3 H 317.6875 314 l -69,43 v 32.125 c -1.7254,0.44392 -3,2.01104 -3,3.875 0,2.20914 1.79086,4 4,4 2.20914,0 4,-1.79086 4,-4 0,-1.86396 -1.2746,-3.43108 -3,-3.875 v -31 l 67.5,-42.125 h 11.625 c 0.44392,1.7254 2.01104,3 3.875,3 2.20914,0 4,-1.79086 4,-4 0,-2.20914 -1.79086,-4 -4,-4 z m 0,2 c 1.10456,0 2,0.89544 2,2 0,1.10456 -0.89544,2 -2,2 -1.10456,0 -2,-0.89544 -2,-2 0,-1.10456 0.89544,-2 2,-2 z m -84,78 c 1.10456,0 2,0.89544 2,2 0,1.10456 -0.89544,2 -2,2 -1.10456,0 -2,-0.89544 -2,-2 0,-1.10456 0.89544,-2 2,-2 z"
             style="fill:#cccccc;fill-opacity:1;stroke:none" />
          <path
             inkscape:connector-curvature="0"
             id="path2898-9-1-7"
             d="m 330,152.36216 c -1.86396,0 -3.43108,1.2746 -3.875,3 H 317.75 314 l -53,33 v 32.125 c -1.7254,0.44392 -3,2.01104 -3,3.875 0,2.20914 1.79086,4 4,4 2.20914,0 4,-1.79086 4,-4 0,-1.86396 -1.2746,-3.43108 -3,-3.875 v -31 l 51.5625,-32.125 h 11.5625 c 0.44392,1.7254 2.01104,3 3.875,3 2.20914,0 4,-1.79086 4,-4 0,-2.20914 -1.79086,-4 -4,-4 z m 0,2 c 1.10456,0 2,0.89544 2,2 0,1.10456 -0.89544,2 -2,2 -1.10456,0 -2,-0.89544 -2,-2 0,-1.10456 0.89544,-2 2,-2 z m -68,68 c 1.10456,0 2,0.89544 2,2 0,1.10456 -0.89544,2 -2,2 -1.10456,0 -2,-0.89544 -2,-2 0,-1.10456 0.89544,-2 2,-2 z"
             style="fill:#cccccc;fill-opacity:1;stroke:none" />
          <path
             inkscape:connector-curvature="0"
             id="path2898-9-8-6"
             d="m 330,162.36216 c -1.86396,0 -3.43108,1.2746 -3.875,3 H 317.8125 314 l -37,23 v 32.125 c -1.7254,0.44392 -3,2.01104 -3,3.875 0,2.20914 1.79086,4 4,4 2.20914,0 4,-1.79086 4,-4 0,-1.86396 -1.2746,-3.43108 -3,-3.875 v -31 l 35.625,-22.125 h 11.5 c 0.44392,1.7254 2.01104,3 3.875,3 2.20914,0 4,-1.79086 4,-4 0,-2.20914 -1.79086,-4 -4,-4 z m 0,2 c 1.10456,0 2,0.89544 2,2 0,1.10456 -0.89544,2 -2,2 -1.10456,0 -2,-0.89544 -2,-2 0,-1.10456 0.89544,-2 2,-2 z m -52,58 c 1.10456,0 2,0.89544 2,2 0,1.10456 -0.89544,2 -2,2 -1.10456,0 -2,-0.89544 -2,-2 0,-1.10456 0.89544,-2 2,-2 z"
             style="fill:#cccccc;fill-opacity:1;stroke:none" />
          <path
             inkscape:connector-curvature="0"
             id="path2898-9-88-3"
             d="m 330,172.36216 c -1.86396,0 -3.43108,1.2746 -3.875,3 H 317.8125 314 l -21,13 v 32.125 c -1.7254,0.44392 -3,2.01104 -3,3.875 0,2.20914 1.79086,4 4,4 2.20914,0 4,-1.79086 4,-4 0,-1.86396 -1.2746,-3.43108 -3,-3.875 v -31 l 19.5625,-12.125 h 11.5625 c 0.44392,1.7254 2.01104,3 3.875,3 2.20914,0 4,-1.79086 4,-4 0,-2.20914 -1.79086,-4 -4,-4 z m 0,2 c 1.10456,0 2,0.89544 2,2 0,1.10456 -0.89544,2 -2,2 -1.10456,0 -2,-0.89544 -2,-2 0,-1.10456 0.89544,-2 2,-2 z m -36,48 c 1.10456,0 2,0.89544 2,2 0,1.10456 -0.89544,2 -2,2 -1.10456,0 -2,-0.89544 -2,-2 0,-1.10456 0.89544,-2 2,-2 z"
             style="fill:#cccccc;fill-opacity:1;stroke:none" />
          <path
             inkscape:connector-curvature="0"
             id="path2898-9-12-7"
             d="m 330,140.36224 c -1.86396,0 -3.43108,-1.2746 -3.875,-3 H 317.6875 314 l -69,-43 v -32.125 c -1.7254,-0.44392 -3,-2.01104 -3,-3.875 0,-2.20914 1.79086,-4 4,-4 2.20914,0 4,1.79086 4,4 0,1.86396 -1.2746,3.43108 -3,3.875 v 31 l 67.5,42.125 h 11.625 c 0.44392,-1.7254 2.01104,-3 3.875,-3 2.20914,0 4,1.79086 4,4 0,2.20914 -1.79086,4 -4,4 z m 0,-2 c 1.10456,0 2,-0.89544 2,-2 0,-1.10456 -0.89544,-2 -2,-2 -1.10456,0 -2,0.89544 -2,2 0,1.10456 0.89544,2 2,2 z m -84,-78 c 1.10456,0 2,-0.89544 2,-2 0,-1.10456 -0.89544,-2 -2,-2 -1.10456,0 -2,0.89544 -2,2 0,1.10456 0.89544,2 2,2 z"
             style="fill:#cccccc;fill-opacity:1;stroke:none" />
          <path
             inkscape:connector-curvature="0"
             id="path2898-9-1-2-1"
             d="m 330,130.36224 c -1.86396,0 -3.43108,-1.2746 -3.875,-3 H 317.75 314 l -53,-33 v -32.125 c -1.7254,-0.44392 -3,-2.01104 -3,-3.875 0,-2.20914 1.79086,-4 4,-4 2.20914,0 4,1.79086 4,4 0,1.86396 -1.2746,3.43108 -3,3.875 v 31 l 51.5625,32.125 h 11.5625 c 0.44392,-1.7254 2.01104,-3 3.875,-3 2.20914,0 4,1.79086 4,4 0,2.20914 -1.79086,4 -4,4 z m 0,-2 c 1.10456,0 2,-0.89544 2,-2 0,-1.10456 -0.89544,-2 -2,-2 -1.10456,0 -2,0.89544 -2,2 0,1.10456 0.89544,2 2,2 z m -68,-68 c 1.10456,0 2,-0.89544 2,-2 0,-1.10456 -0.89544,-2 -2,-2 -1.10456,0 -2,0.89544 -2,2 0,1.10456 0.89544,2 2,2 z"
             style="fill:#cccccc;fill-opacity:1;stroke:none" />
          <path
             inkscape:connector-curvature="0"
             id="path2898-9-8-4-4"
             d="m 330,120.36224 c -1.86396,0 -3.43108,-1.2746 -3.875,-3 H 317.8125 314 l -37,-23 v -32.125 c -1.7254,-0.44392 -3,-2.01104 -3,-3.875 0,-2.20914 1.79086,-4 4,-4 2.20914,0 4,1.79086 4,4 0,1.86396 -1.2746,3.43108 -3,3.875 v 31 l 35.625,22.125 h 11.5 c 0.44392,-1.7254 2.01104,-3 3.875,-3 2.20914,0 4,1.79086 4,4 0,2.20914 -1.79086,4 -4,4 z m 0,-2 c 1.10456,0 2,-0.89544 2,-2 0,-1.10456 -0.89544,-2 -2,-2 -1.10456,0 -2,0.89544 -2,2 0,1.10456 0.89544,2 2,2 z m -52,-58 c 1.10456,0 2,-0.89544 2,-2 0,-1.10456 -0.89544,-2 -2,-2 -1.10456,0 -2,0.89544 -2,2 0,1.10456 0.89544,2 2,2 z"
             style="fill:#cccccc;fill-opacity:1;stroke:none" />
          <path
             inkscape:connector-curvature="0"
             id="path2898-9-88-0-7"
             d="m 330,110.36224 c -1.86396,0 -3.43108,-1.2746 -3.875,-3 H 317.8125 314 l -21,-13 v -32.125 c -1.7254,-0.44392 -3,-2.01104 -3,-3.875 0,-2.20914 1.79086,-4 4,-4 2.20914,0 4,1.79086 4,4 0,1.86396 -1.2746,3.43108 -3,3.875 v 31 l 19.5625,12.125 h 11.5625 c 0.44392,-1.7254 2.01104,-3 3.875,-3 2.20914,0 4,1.79086 4,4 0,2.20914 -1.79086,4 -4,4 z m 0,-2 c 1.10456,0 2,-0.89544 2,-2 0,-1.10456 -0.89544,-2 -2,-2 -1.10456,0 -2,0.89544 -2,2 0,1.10456 0.89544,2 2,2 z m -36,-48 c 1.10456,0 2,-0.89544 2,-2 0,-1.10456 -0.89544,-2 -2,-2 -1.10456,0 -2,0.89544 -2,2 0,1.10456 0.89544,2 2,2 z"
             style="fill:#cccccc;fill-opacity:1;stroke:none" />
          <path
             inkscape:connector-curvature="0"
             id="path2898-9-9-1"
             d="m 402,142.36216 c 1.86396,0 3.43108,1.2746 3.875,3 H 414.3125 418 l 69,43 v 32.125 c 1.7254,0.44392 3,2.01104 3,3.875 0,2.20914 -1.79086,4 -4,4 -2.20914,0 -4,-1.79086 -4,-4 0,-1.86396 1.2746,-3.43108 3,-3.875 v -31 l -67.5,-42.125 h -11.625 c -0.44392,1.7254 -2.01104,3 -3.875,3 -2.20914,0 -4,-1.79086 -4,-4 0,-2.20914 1.79086,-4 4,-4 z m 0,2 c -1.10456,0 -2,0.89544 -2,2 0,1.10456 0.89544,2 2,2 1.10456,0 2,-0.89544 2,-2 0,-1.10456 -0.89544,-2 -2,-2 z m 84,78 c -1.10456,0 -2,0.89544 -2,2 0,1.10456 0.89544,2 2,2 1.10456,0 2,-0.89544 2,-2 0,-1.10456 -0.89544,-2 -2,-2 z"
             style="fill:#cccccc;fill-opacity:1;stroke:none" />
          <path
             inkscape:connector-curvature="0"
             id="path2898-9-1-4-7"
             d="m 402,152.36216 c 1.86396,0 3.43108,1.2746 3.875,3 h 8.375 3.75 l 53,33 v 32.125 c 1.7254,0.44392 3,2.01104 3,3.875 0,2.20914 -1.79086,4 -4,4 -2.20914,0 -4,-1.79086 -4,-4 0,-1.86396 1.2746,-3.43108 3,-3.875 v -31 l -51.5625,-32.125 H 405.875 c -0.44392,1.7254 -2.01104,3 -3.875,3 -2.20914,0 -4,-1.79086 -4,-4 0,-2.20914 1.79086,-4 4,-4 z m 0,2 c -1.10456,0 -2,0.89544 -2,2 0,1.10456 0.89544,2 2,2 1.10456,0 2,-0.89544 2,-2 0,-1.10456 -0.89544,-2 -2,-2 z m 68,68 c -1.10456,0 -2,0.89544 -2,2 0,1.10456 0.89544,2 2,2 1.10456,0 2,-0.89544 2,-2 0,-1.10456 -0.89544,-2 -2,-2 z"
             style="fill:#cccccc;fill-opacity:1;stroke:none" />
          <path
             inkscape:connector-curvature="0"
             id="path2898-9-8-0-7"
             d="m 402,162.36216 c 1.86396,0 3.43108,1.2746 3.875,3 H 414.1875 418 l 37,23 v 32.125 c 1.7254,0.44392 3,2.01104 3,3.875 0,2.20914 -1.79086,4 -4,4 -2.20914,0 -4,-1.79086 -4,-4 0,-1.86396 1.2746,-3.43108 3,-3.875 v -31 l -35.625,-22.125 h -11.5 c -0.44392,1.7254 -2.01104,3 -3.875,3 -2.20914,0 -4,-1.79086 -4,-4 0,-2.20914 1.79086,-4 4,-4 z m 0,2 c -1.10456,0 -2,0.89544 -2,2 0,1.10456 0.89544,2 2,2 1.10456,0 2,-0.89544 2,-2 0,-1.10456 -0.89544,-2 -2,-2 z m 52,58 c -1.10456,0 -2,0.89544 -2,2 0,1.10456 0.89544,2 2,2 1.10456,0 2,-0.89544 2,-2 0,-1.10456 -0.89544,-2 -2,-2 z"
             style="fill:#cccccc;fill-opacity:1;stroke:none" />
          <path
             inkscape:connector-curvature="0"
             id="path2898-9-88-04-3"
             d="m 402,172.36216 c 1.86396,0 3.43108,1.2746 3.875,3 H 414.1875 418 l 21,13 v 32.125 c 1.7254,0.44392 3,2.01104 3,3.875 0,2.20914 -1.79086,4 -4,4 -2.20914,0 -4,-1.79086 -4,-4 0,-1.86396 1.2746,-3.43108 3,-3.875 v -31 l -19.5625,-12.125 H 405.875 c -0.44392,1.7254 -2.01104,3 -3.875,3 -2.20914,0 -4,-1.79086 -4,-4 0,-2.20914 1.79086,-4 4,-4 z m 0,2 c -1.10456,0 -2,0.89544 -2,2 0,1.10456 0.89544,2 2,2 1.10456,0 2,-0.89544 2,-2 0,-1.10456 -0.89544,-2 -2,-2 z m 36,48 c -1.10456,0 -2,0.89544 -2,2 0,1.10456 0.89544,2 2,2 1.10456,0 2,-0.89544 2,-2 0,-1.10456 -0.89544,-2 -2,-2 z"
             style="fill:#cccccc;fill-opacity:1;stroke:none" />
          <path
             inkscape:connector-curvature="0"
             id="path2898-9-12-4-6"
             d="m 402,140.36224 c 1.86396,0 3.43108,-1.2746 3.875,-3 H 414.3125 418 l 69,-43 v -32.125 c 1.7254,-0.44392 3,-2.01104 3,-3.875 0,-2.20914 -1.79086,-4 -4,-4 -2.20914,0 -4,1.79086 -4,4 0,1.86396 1.2746,3.43108 3,3.875 v 31 l -67.5,42.125 h -11.625 c -0.44392,-1.7254 -2.01104,-3 -3.875,-3 -2.20914,0 -4,1.79086 -4,4 0,2.20914 1.79086,4 4,4 z m 0,-2 c -1.10456,0 -2,-0.89544 -2,-2 0,-1.10456 0.89544,-2 2,-2 1.10456,0 2,0.89544 2,2 0,1.10456 -0.89544,2 -2,2 z m 84,-78 c -1.10456,0 -2,-0.89544 -2,-2 0,-1.10456 0.89544,-2 2,-2 1.10456,0 2,0.89544 2,2 0,1.10456 -0.89544,2 -2,2 z"
             style="fill:#cccccc;fill-opacity:1;stroke:none" />
          <path
             inkscape:connector-curvature="0"
             id="path2898-9-1-2-6-1"
             d="m 402,130.36224 c 1.86396,0 3.43108,-1.2746 3.875,-3 h 8.375 3.75 l 53,-33 v -32.125 c 1.7254,-0.44392 3,-2.01104 3,-3.875 0,-2.20914 -1.79086,-4 -4,-4 -2.20914,0 -4,1.79086 -4,4 0,1.86396 1.2746,3.43108 3,3.875 v 31 l -51.5625,32.125 H 405.875 c -0.44392,-1.7254 -2.01104,-3 -3.875,-3 -2.20914,0 -4,1.79086 -4,4 0,2.20914 1.79086,4 4,4 z m 0,-2 c -1.10456,0 -2,-0.89544 -2,-2 0,-1.10456 0.89544,-2 2,-2 1.10456,0 2,0.89544 2,2 0,1.10456 -0.89544,2 -2,2 z m 68,-68 c -1.10456,0 -2,-0.89544 -2,-2 0,-1.10456 0.89544,-2 2,-2 1.10456,0 2,0.89544 2,2 0,1.10456 -0.89544,2 -2,2 z"
             style="fill:#cccccc;fill-opacity:1;stroke:none" />
          <path
             inkscape:connector-curvature="0"
             id="path2898-9-8-4-2-3"
             d="m 402,120.36224 c 1.86396,0 3.43108,-1.2746 3.875,-3 H 414.1875 418 l 37,-23 v -32.125 c 1.7254,-0.44392 3,-2.01104 3,-3.875 0,-2.20914 -1.79086,-4 -4,-4 -2.20914,0 -4,1.79086 -4,4 0,1.86396 1.2746,3.43108 3,3.875 v 31 l -35.625,22.125 h -11.5 c -0.44392,-1.7254 -2.01104,-3 -3.875,-3 -2.20914,0 -4,1.79086 -4,4 0,2.20914 1.79086,4 4,4 z m 0,-2 c -1.10456,0 -2,-0.89544 -2,-2 0,-1.10456 0.89544,-2 2,-2 1.10456,0 2,0.89544 2,2 0,1.10456 -0.89544,2 -2,2 z m 52,-58 c -1.10456,0 -2,-0.89544 -2,-2 0,-1.10456 0.89544,-2 2,-2 1.10456,0 2,0.89544 2,2 0,1.10456 -0.89544,2 -2,2 z"
             style="fill:#cccccc;fill-opacity:1;stroke:none" />
          <path
             inkscape:connector-curvature="0"
             id="path2898-9-88-0-3-4"
             d="m 402,110.36224 c 1.86396,0 3.43108,-1.2746 3.875,-3 H 414.1875 418 l 21,-13 v -32.125 c 1.7254,-0.44392 3,-2.01104 3,-3.875 0,-2.20914 -1.79086,-4 -4,-4 -2.20914,0 -4,1.79086 -4,4 0,1.86396 1.2746,3.43108 3,3.875 v 31 l -19.5625,12.125 H 405.875 c -0.44392,-1.7254 -2.01104,-3 -3.875,-3 -2.20914,0 -4,1.79086 -4,4 0,2.20914 1.79086,4 4,4 z m 0,-2 c -1.10456,0 -2,-0.89544 -2,-2 0,-1.10456 0.89544,-2 2,-2 1.10456,0 2,0.89544 2,2 0,1.10456 -0.89544,2 -2,2 z m 36,-48 c -1.10456,0 -2,-0.89544 -2,-2 0,-1.10456 0.89544,-2 2,-2 1.10456,0 2,0.89544 2,2 0,1.10456 -0.89544,2 -2,2 z"
             style="fill:#cccccc;fill-opacity:1;stroke:none" />
          <ellipse
             transform="matrix(0.72774196,0,0,0.6635294,146,-88.73462)"
             id="path2898-2-2"
             style="fill:#cccccc;fill-opacity:1;stroke:none"
             cx="170.39008"
             cy="495.97922"
             rx="5.4964538"
             ry="6.0283689" />
          <ellipse
             transform="matrix(0.72774196,0,0,0.6635294,146,-286.73462)"
             id="path2898-2-7-9"
             style="fill:#cccccc;fill-opacity:1;stroke:none"
             cx="170.39008"
             cy="495.97922"
             rx="5.4964538"
             ry="6.0283689" />
          <ellipse
             transform="matrix(0.72774196,0,0,0.6635294,338,-88.73462)"
             id="path2898-2-3-8"
             style="fill:#cccccc;fill-opacity:1;stroke:none"
             cx="170.39008"
             cy="495.97922"
             rx="5.4964538"
             ry="6.0283689" />
          <ellipse
             transform="matrix(0.72774196,0,0,0.6635294,338,-286.73464)"
             id="path2898-2-7-8-9"
             style="fill:#cccccc;fill-opacity:1;stroke:none"
             cx="170.39008"
             cy="495.97922"
             rx="5.4964538"
             ry="6.0283689" />
        </g>
      </g>
      <text
         id="text3269"
         y="822.48236"
         x="99.896217"
         style="font-style:normal;font-weight:normal;font-size:11.24291801px;line-height:0%;font-family:sans-serif;letter-spacing:0px;word-spacing:0px;fill:#009966;fill-opacity:1;stroke:none;stroke-width:0.93690979"
         xml:space="preserve"><tspan
           style="font-style:normal;font-variant:normal;font-weight:normal;font-stretch:normal;font-size:16.92217827px;line-height:1.25;font-family:FreeSans;-inkscape-font-specification:FreeSans;stroke-width:0.93690979"
           y="822.48236"
           x="99.896217"
           id="tspan3271"
           sodipodi:role="line">MINSK</tspan></text>
      <text
         transform="scale(0.9999935,1.0000065)"
         id="text3273"
         y="1051.5555"
         x="-2.7817595"
         style="font-style:normal;font-weight:normal;font-size:11.25px;line-height:0%;font-family:sans-serif;letter-spacing:0px;word-spacing:0px;fill:#cccccc;fill-opacity:1;stroke:none;stroke-width:0.9375"
         xml:space="preserve"><tspan
           style="font-style:normal;font-variant:normal;font-weight:normal;font-stretch:normal;font-size:34.77194214px;line-height:1.25;font-family:FreeSans;-inkscape-font-specification:FreeSans;fill:#cccccc;fill-opacity:1;stroke-width:0.9375"
           y="1051.5555"
           x="-2.7817595"
           id="tspan3275"
           sodipodi:role="line">HACKERSPACE</tspan></text>
    </g>
  </g>
</svg>
