<?xml version="1.0" encoding="UTF-8" standalone="no"?>
<!-- Created with Inkscape (http://www.inkscape.org/) -->

<svg
   xmlns:dc="http://purl.org/dc/elements/1.1/"
   xmlns:cc="http://creativecommons.org/ns#"
   xmlns:rdf="http://www.w3.org/1999/02/22-rdf-syntax-ns#"
   xmlns:svg="http://www.w3.org/2000/svg"
   xmlns="http://www.w3.org/2000/svg"
   xmlns:sodipodi="http://sodipodi.sourceforge.net/DTD/sodipodi-0.dtd"
   xmlns:inkscape="http://www.inkscape.org/namespaces/inkscape"
   width="744.09448819"
   height="1052.3622047"
   id="mhs_logo_green"
   version="1.1"
   inkscape:version="0.48.4 r9939"
   sodipodi:docname="green.svg"
   inkscape:export-filename="green.png"
   inkscape:export-xdpi="68.437508"
   inkscape:export-ydpi="68.437508">
  <defs
     id="defs4">
    <inkscape:perspective
       sodipodi:type="inkscape:persp3d"
       inkscape:vp_x="0 : 526.18109 : 1"
       inkscape:vp_y="0 : 1000 : 0"
       inkscape:vp_z="744.09448 : 526.18109 : 1"
       inkscape:persp3d-origin="372.04724 : 350.78739 : 1"
       id="perspective10" />
    <inkscape:perspective
       id="perspective3608"
       inkscape:persp3d-origin="0.5 : 0.33333333 : 1"
       inkscape:vp_z="1 : 0.5 : 1"
       inkscape:vp_y="0 : 1000 : 0"
       inkscape:vp_x="0 : 0.5 : 1"
       sodipodi:type="inkscape:persp3d" />
    <inkscape:perspective
       id="perspective3608-7"
       inkscape:persp3d-origin="0.5 : 0.33333333 : 1"
       inkscape:vp_z="1 : 0.5 : 1"
       inkscape:vp_y="0 : 1000 : 0"
       inkscape:vp_x="0 : 0.5 : 1"
       sodipodi:type="inkscape:persp3d" />
    <inkscape:perspective
       id="perspective3608-6"
       inkscape:persp3d-origin="0.5 : 0.33333333 : 1"
       inkscape:vp_z="1 : 0.5 : 1"
       inkscape:vp_y="0 : 1000 : 0"
       inkscape:vp_x="0 : 0.5 : 1"
       sodipodi:type="inkscape:persp3d" />
    <inkscape:perspective
       id="perspective3669"
       inkscape:persp3d-origin="0.5 : 0.33333333 : 1"
       inkscape:vp_z="1 : 0.5 : 1"
       inkscape:vp_y="0 : 1000 : 0"
       inkscape:vp_x="0 : 0.5 : 1"
       sodipodi:type="inkscape:persp3d" />
    <inkscape:perspective
       id="perspective3767"
       inkscape:persp3d-origin="0.5 : 0.33333333 : 1"
       inkscape:vp_z="1 : 0.5 : 1"
       inkscape:vp_y="0 : 1000 : 0"
       inkscape:vp_x="0 : 0.5 : 1"
       sodipodi:type="inkscape:persp3d" />
    <inkscape:perspective
       id="perspective3789"
       inkscape:persp3d-origin="0.5 : 0.33333333 : 1"
       inkscape:vp_z="1 : 0.5 : 1"
       inkscape:vp_y="0 : 1000 : 0"
       inkscape:vp_x="0 : 0.5 : 1"
       sodipodi:type="inkscape:persp3d" />
    <inkscape:perspective
       id="perspective3811"
       inkscape:persp3d-origin="0.5 : 0.33333333 : 1"
       inkscape:vp_z="1 : 0.5 : 1"
       inkscape:vp_y="0 : 1000 : 0"
       inkscape:vp_x="0 : 0.5 : 1"
       sodipodi:type="inkscape:persp3d" />
    <inkscape:perspective
       id="perspective3833"
       inkscape:persp3d-origin="0.5 : 0.33333333 : 1"
       inkscape:vp_z="1 : 0.5 : 1"
       inkscape:vp_y="0 : 1000 : 0"
       inkscape:vp_x="0 : 0.5 : 1"
       sodipodi:type="inkscape:persp3d" />
    <inkscape:perspective
       id="perspective3862"
       inkscape:persp3d-origin="0.5 : 0.33333333 : 1"
       inkscape:vp_z="1 : 0.5 : 1"
       inkscape:vp_y="0 : 1000 : 0"
       inkscape:vp_x="0 : 0.5 : 1"
       sodipodi:type="inkscape:persp3d" />
    <inkscape:perspective
       id="perspective3884"
       inkscape:persp3d-origin="0.5 : 0.33333333 : 1"
       inkscape:vp_z="1 : 0.5 : 1"
       inkscape:vp_y="0 : 1000 : 0"
       inkscape:vp_x="0 : 0.5 : 1"
       sodipodi:type="inkscape:persp3d" />
    <inkscape:perspective
       id="perspective3912"
       inkscape:persp3d-origin="0.5 : 0.33333333 : 1"
       inkscape:vp_z="1 : 0.5 : 1"
       inkscape:vp_y="0 : 1000 : 0"
       inkscape:vp_x="0 : 0.5 : 1"
       sodipodi:type="inkscape:persp3d" />
    <inkscape:perspective
       id="perspective3955"
       inkscape:persp3d-origin="0.5 : 0.33333333 : 1"
       inkscape:vp_z="1 : 0.5 : 1"
       inkscape:vp_y="0 : 1000 : 0"
       inkscape:vp_x="0 : 0.5 : 1"
       sodipodi:type="inkscape:persp3d" />
    <inkscape:perspective
       id="perspective4011"
       inkscape:persp3d-origin="0.5 : 0.33333333 : 1"
       inkscape:vp_z="1 : 0.5 : 1"
       inkscape:vp_y="0 : 1000 : 0"
       inkscape:vp_x="0 : 0.5 : 1"
       sodipodi:type="inkscape:persp3d" />
    <inkscape:perspective
       id="perspective4050"
       inkscape:persp3d-origin="0.5 : 0.33333333 : 1"
       inkscape:vp_z="1 : 0.5 : 1"
       inkscape:vp_y="0 : 1000 : 0"
       inkscape:vp_x="0 : 0.5 : 1"
       sodipodi:type="inkscape:persp3d" />
    <inkscape:perspective
       id="perspective4084"
       inkscape:persp3d-origin="0.5 : 0.33333333 : 1"
       inkscape:vp_z="1 : 0.5 : 1"
       inkscape:vp_y="0 : 1000 : 0"
       inkscape:vp_x="0 : 0.5 : 1"
       sodipodi:type="inkscape:persp3d" />
    <inkscape:perspective
       id="perspective4118"
       inkscape:persp3d-origin="0.5 : 0.33333333 : 1"
       inkscape:vp_z="1 : 0.5 : 1"
       inkscape:vp_y="0 : 1000 : 0"
       inkscape:vp_x="0 : 0.5 : 1"
       sodipodi:type="inkscape:persp3d" />
    <inkscape:perspective
       id="perspective4152"
       inkscape:persp3d-origin="0.5 : 0.33333333 : 1"
       inkscape:vp_z="1 : 0.5 : 1"
       inkscape:vp_y="0 : 1000 : 0"
       inkscape:vp_x="0 : 0.5 : 1"
       sodipodi:type="inkscape:persp3d" />
    <inkscape:perspective
       id="perspective4175"
       inkscape:persp3d-origin="0.5 : 0.33333333 : 1"
       inkscape:vp_z="1 : 0.5 : 1"
       inkscape:vp_y="0 : 1000 : 0"
       inkscape:vp_x="0 : 0.5 : 1"
       sodipodi:type="inkscape:persp3d" />
    <inkscape:perspective
       id="perspective4197"
       inkscape:persp3d-origin="0.5 : 0.33333333 : 1"
       inkscape:vp_z="1 : 0.5 : 1"
       inkscape:vp_y="0 : 1000 : 0"
       inkscape:vp_x="0 : 0.5 : 1"
       sodipodi:type="inkscape:persp3d" />
    <inkscape:perspective
       id="perspective4222"
       inkscape:persp3d-origin="0.5 : 0.33333333 : 1"
       inkscape:vp_z="1 : 0.5 : 1"
       inkscape:vp_y="0 : 1000 : 0"
       inkscape:vp_x="0 : 0.5 : 1"
       sodipodi:type="inkscape:persp3d" />
    <inkscape:perspective
       id="perspective4263"
       inkscape:persp3d-origin="0.5 : 0.33333333 : 1"
       inkscape:vp_z="1 : 0.5 : 1"
       inkscape:vp_y="0 : 1000 : 0"
       inkscape:vp_x="0 : 0.5 : 1"
       sodipodi:type="inkscape:persp3d" />
    <inkscape:perspective
       id="perspective4297"
       inkscape:persp3d-origin="0.5 : 0.33333333 : 1"
       inkscape:vp_z="1 : 0.5 : 1"
       inkscape:vp_y="0 : 1000 : 0"
       inkscape:vp_x="0 : 0.5 : 1"
       sodipodi:type="inkscape:persp3d" />
    <inkscape:perspective
       id="perspective4321"
       inkscape:persp3d-origin="0.5 : 0.33333333 : 1"
       inkscape:vp_z="1 : 0.5 : 1"
       inkscape:vp_y="0 : 1000 : 0"
       inkscape:vp_x="0 : 0.5 : 1"
       sodipodi:type="inkscape:persp3d" />
    <inkscape:perspective
       id="perspective4345"
       inkscape:persp3d-origin="0.5 : 0.33333333 : 1"
       inkscape:vp_z="1 : 0.5 : 1"
       inkscape:vp_y="0 : 1000 : 0"
       inkscape:vp_x="0 : 0.5 : 1"
       sodipodi:type="inkscape:persp3d" />
    <inkscape:perspective
       id="perspective4367"
       inkscape:persp3d-origin="0.5 : 0.33333333 : 1"
       inkscape:vp_z="1 : 0.5 : 1"
       inkscape:vp_y="0 : 1000 : 0"
       inkscape:vp_x="0 : 0.5 : 1"
       sodipodi:type="inkscape:persp3d" />
    <inkscape:perspective
       id="perspective4415"
       inkscape:persp3d-origin="0.5 : 0.33333333 : 1"
       inkscape:vp_z="1 : 0.5 : 1"
       inkscape:vp_y="0 : 1000 : 0"
       inkscape:vp_x="0 : 0.5 : 1"
       sodipodi:type="inkscape:persp3d" />
    <inkscape:perspective
       id="perspective4461"
       inkscape:persp3d-origin="0.5 : 0.33333333 : 1"
       inkscape:vp_z="1 : 0.5 : 1"
       inkscape:vp_y="0 : 1000 : 0"
       inkscape:vp_x="0 : 0.5 : 1"
       sodipodi:type="inkscape:persp3d" />
    <inkscape:perspective
       id="perspective4515"
       inkscape:persp3d-origin="0.5 : 0.33333333 : 1"
       inkscape:vp_z="1 : 0.5 : 1"
       inkscape:vp_y="0 : 1000 : 0"
       inkscape:vp_x="0 : 0.5 : 1"
       sodipodi:type="inkscape:persp3d" />
    <inkscape:perspective
       id="perspective4578"
       inkscape:persp3d-origin="0.5 : 0.33333333 : 1"
       inkscape:vp_z="1 : 0.5 : 1"
       inkscape:vp_y="0 : 1000 : 0"
       inkscape:vp_x="0 : 0.5 : 1"
       sodipodi:type="inkscape:persp3d" />
    <inkscape:perspective
       id="perspective4600"
       inkscape:persp3d-origin="0.5 : 0.33333333 : 1"
       inkscape:vp_z="1 : 0.5 : 1"
       inkscape:vp_y="0 : 1000 : 0"
       inkscape:vp_x="0 : 0.5 : 1"
       sodipodi:type="inkscape:persp3d" />
    <inkscape:perspective
       id="perspective4600-3"
       inkscape:persp3d-origin="0.5 : 0.33333333 : 1"
       inkscape:vp_z="1 : 0.5 : 1"
       inkscape:vp_y="0 : 1000 : 0"
       inkscape:vp_x="0 : 0.5 : 1"
       sodipodi:type="inkscape:persp3d" />
    <inkscape:perspective
       id="perspective2828"
       inkscape:persp3d-origin="0.5 : 0.33333333 : 1"
       inkscape:vp_z="1 : 0.5 : 1"
       inkscape:vp_y="0 : 1000 : 0"
       inkscape:vp_x="0 : 0.5 : 1"
       sodipodi:type="inkscape:persp3d" />
    <inkscape:perspective
       id="perspective2948"
       inkscape:persp3d-origin="0.5 : 0.33333333 : 1"
       inkscape:vp_z="1 : 0.5 : 1"
       inkscape:vp_y="0 : 1000 : 0"
       inkscape:vp_x="0 : 0.5 : 1"
       sodipodi:type="inkscape:persp3d" />
    <inkscape:perspective
       id="perspective2889"
       inkscape:persp3d-origin="0.5 : 0.33333333 : 1"
       inkscape:vp_z="1 : 0.5 : 1"
       inkscape:vp_y="0 : 1000 : 0"
       inkscape:vp_x="0 : 0.5 : 1"
       sodipodi:type="inkscape:persp3d" />
    <inkscape:perspective
       id="perspective2911"
       inkscape:persp3d-origin="0.5 : 0.33333333 : 1"
       inkscape:vp_z="1 : 0.5 : 1"
       inkscape:vp_y="0 : 1000 : 0"
       inkscape:vp_x="0 : 0.5 : 1"
       sodipodi:type="inkscape:persp3d" />
    <inkscape:perspective
       id="perspective3733"
       inkscape:persp3d-origin="0.5 : 0.33333333 : 1"
       inkscape:vp_z="1 : 0.5 : 1"
       inkscape:vp_y="0 : 1000 : 0"
       inkscape:vp_x="0 : 0.5 : 1"
       sodipodi:type="inkscape:persp3d" />
    <inkscape:perspective
       id="perspective3789-2"
       inkscape:persp3d-origin="0.5 : 0.33333333 : 1"
       inkscape:vp_z="1 : 0.5 : 1"
       inkscape:vp_y="0 : 1000 : 0"
       inkscape:vp_x="0 : 0.5 : 1"
       sodipodi:type="inkscape:persp3d" />
    <inkscape:perspective
       id="perspective3817"
       inkscape:persp3d-origin="0.5 : 0.33333333 : 1"
       inkscape:vp_z="1 : 0.5 : 1"
       inkscape:vp_y="0 : 1000 : 0"
       inkscape:vp_x="0 : 0.5 : 1"
       sodipodi:type="inkscape:persp3d" />
    <inkscape:perspective
       id="perspective3817-5"
       inkscape:persp3d-origin="0.5 : 0.33333333 : 1"
       inkscape:vp_z="1 : 0.5 : 1"
       inkscape:vp_y="0 : 1000 : 0"
       inkscape:vp_x="0 : 0.5 : 1"
       sodipodi:type="inkscape:persp3d" />
    <inkscape:perspective
       id="perspective3817-6"
       inkscape:persp3d-origin="0.5 : 0.33333333 : 1"
       inkscape:vp_z="1 : 0.5 : 1"
       inkscape:vp_y="0 : 1000 : 0"
       inkscape:vp_x="0 : 0.5 : 1"
       sodipodi:type="inkscape:persp3d" />
    <inkscape:perspective
       id="perspective3817-2"
       inkscape:persp3d-origin="0.5 : 0.33333333 : 1"
       inkscape:vp_z="1 : 0.5 : 1"
       inkscape:vp_y="0 : 1000 : 0"
       inkscape:vp_x="0 : 0.5 : 1"
       sodipodi:type="inkscape:persp3d" />
    <inkscape:perspective
       id="perspective3867"
       inkscape:persp3d-origin="0.5 : 0.33333333 : 1"
       inkscape:vp_z="1 : 0.5 : 1"
       inkscape:vp_y="0 : 1000 : 0"
       inkscape:vp_x="0 : 0.5 : 1"
       sodipodi:type="inkscape:persp3d" />
    <inkscape:perspective
       id="perspective3680"
       inkscape:persp3d-origin="0.5 : 0.33333333 : 1"
       inkscape:vp_z="1 : 0.5 : 1"
       inkscape:vp_y="0 : 1000 : 0"
       inkscape:vp_x="0 : 0.5 : 1"
       sodipodi:type="inkscape:persp3d" />
    <inkscape:perspective
       id="perspective3680-7"
       inkscape:persp3d-origin="0.5 : 0.33333333 : 1"
       inkscape:vp_z="1 : 0.5 : 1"
       inkscape:vp_y="0 : 1000 : 0"
       inkscape:vp_x="0 : 0.5 : 1"
       sodipodi:type="inkscape:persp3d" />
    <inkscape:perspective
       id="perspective3713"
       inkscape:persp3d-origin="0.5 : 0.33333333 : 1"
       inkscape:vp_z="1 : 0.5 : 1"
       inkscape:vp_y="0 : 1000 : 0"
       inkscape:vp_x="0 : 0.5 : 1"
       sodipodi:type="inkscape:persp3d" />
    <inkscape:perspective
       id="perspective3737"
       inkscape:persp3d-origin="0.5 : 0.33333333 : 1"
       inkscape:vp_z="1 : 0.5 : 1"
       inkscape:vp_y="0 : 1000 : 0"
       inkscape:vp_x="0 : 0.5 : 1"
       sodipodi:type="inkscape:persp3d" />
    <inkscape:perspective
       id="perspective3737-0"
       inkscape:persp3d-origin="0.5 : 0.33333333 : 1"
       inkscape:vp_z="1 : 0.5 : 1"
       inkscape:vp_y="0 : 1000 : 0"
       inkscape:vp_x="0 : 0.5 : 1"
       sodipodi:type="inkscape:persp3d" />
    <inkscape:perspective
       id="perspective3737-1"
       inkscape:persp3d-origin="0.5 : 0.33333333 : 1"
       inkscape:vp_z="1 : 0.5 : 1"
       inkscape:vp_y="0 : 1000 : 0"
       inkscape:vp_x="0 : 0.5 : 1"
       sodipodi:type="inkscape:persp3d" />
    <inkscape:perspective
       id="perspective3737-5"
       inkscape:persp3d-origin="0.5 : 0.33333333 : 1"
       inkscape:vp_z="1 : 0.5 : 1"
       inkscape:vp_y="0 : 1000 : 0"
       inkscape:vp_x="0 : 0.5 : 1"
       sodipodi:type="inkscape:persp3d" />
    <inkscape:perspective
       id="perspective3737-7"
       inkscape:persp3d-origin="0.5 : 0.33333333 : 1"
       inkscape:vp_z="1 : 0.5 : 1"
       inkscape:vp_y="0 : 1000 : 0"
       inkscape:vp_x="0 : 0.5 : 1"
       sodipodi:type="inkscape:persp3d" />
    <inkscape:perspective
       id="perspective3802"
       inkscape:persp3d-origin="0.5 : 0.33333333 : 1"
       inkscape:vp_z="1 : 0.5 : 1"
       inkscape:vp_y="0 : 1000 : 0"
       inkscape:vp_x="0 : 0.5 : 1"
       sodipodi:type="inkscape:persp3d" />
    <inkscape:perspective
       id="perspective3826"
       inkscape:persp3d-origin="0.5 : 0.33333333 : 1"
       inkscape:vp_z="1 : 0.5 : 1"
       inkscape:vp_y="0 : 1000 : 0"
       inkscape:vp_x="0 : 0.5 : 1"
       sodipodi:type="inkscape:persp3d" />
    <inkscape:perspective
       id="perspective3826-4"
       inkscape:persp3d-origin="0.5 : 0.33333333 : 1"
       inkscape:vp_z="1 : 0.5 : 1"
       inkscape:vp_y="0 : 1000 : 0"
       inkscape:vp_x="0 : 0.5 : 1"
       sodipodi:type="inkscape:persp3d" />
    <inkscape:perspective
       id="perspective3826-6"
       inkscape:persp3d-origin="0.5 : 0.33333333 : 1"
       inkscape:vp_z="1 : 0.5 : 1"
       inkscape:vp_y="0 : 1000 : 0"
       inkscape:vp_x="0 : 0.5 : 1"
       sodipodi:type="inkscape:persp3d" />
    <inkscape:perspective
       id="perspective3866"
       inkscape:persp3d-origin="0.5 : 0.33333333 : 1"
       inkscape:vp_z="1 : 0.5 : 1"
       inkscape:vp_y="0 : 1000 : 0"
       inkscape:vp_x="0 : 0.5 : 1"
       sodipodi:type="inkscape:persp3d" />
    <inkscape:perspective
       id="perspective3707"
       inkscape:persp3d-origin="0.5 : 0.33333333 : 1"
       inkscape:vp_z="1 : 0.5 : 1"
       inkscape:vp_y="0 : 1000 : 0"
       inkscape:vp_x="0 : 0.5 : 1"
       sodipodi:type="inkscape:persp3d" />
    <inkscape:perspective
       id="perspective3933"
       inkscape:persp3d-origin="0.5 : 0.33333333 : 1"
       inkscape:vp_z="1 : 0.5 : 1"
       inkscape:vp_y="0 : 1000 : 0"
       inkscape:vp_x="0 : 0.5 : 1"
       sodipodi:type="inkscape:persp3d" />
    <inkscape:perspective
       id="perspective3958"
       inkscape:persp3d-origin="0.5 : 0.33333333 : 1"
       inkscape:vp_z="1 : 0.5 : 1"
       inkscape:vp_y="0 : 1000 : 0"
       inkscape:vp_x="0 : 0.5 : 1"
       sodipodi:type="inkscape:persp3d" />
    <inkscape:perspective
       id="perspective3980"
       inkscape:persp3d-origin="0.5 : 0.33333333 : 1"
       inkscape:vp_z="1 : 0.5 : 1"
       inkscape:vp_y="0 : 1000 : 0"
       inkscape:vp_x="0 : 0.5 : 1"
       sodipodi:type="inkscape:persp3d" />
    <inkscape:perspective
       id="perspective4004"
       inkscape:persp3d-origin="0.5 : 0.33333333 : 1"
       inkscape:vp_z="1 : 0.5 : 1"
       inkscape:vp_y="0 : 1000 : 0"
       inkscape:vp_x="0 : 0.5 : 1"
       sodipodi:type="inkscape:persp3d" />
    <inkscape:perspective
       id="perspective4026"
       inkscape:persp3d-origin="0.5 : 0.33333333 : 1"
       inkscape:vp_z="1 : 0.5 : 1"
       inkscape:vp_y="0 : 1000 : 0"
       inkscape:vp_x="0 : 0.5 : 1"
       sodipodi:type="inkscape:persp3d" />
    <inkscape:perspective
       id="perspective4048"
       inkscape:persp3d-origin="0.5 : 0.33333333 : 1"
       inkscape:vp_z="1 : 0.5 : 1"
       inkscape:vp_y="0 : 1000 : 0"
       inkscape:vp_x="0 : 0.5 : 1"
       sodipodi:type="inkscape:persp3d" />
    <inkscape:perspective
       id="perspective4071"
       inkscape:persp3d-origin="0.5 : 0.33333333 : 1"
       inkscape:vp_z="1 : 0.5 : 1"
       inkscape:vp_y="0 : 1000 : 0"
       inkscape:vp_x="0 : 0.5 : 1"
       sodipodi:type="inkscape:persp3d" />
    <inkscape:perspective
       id="perspective4095"
       inkscape:persp3d-origin="0.5 : 0.33333333 : 1"
       inkscape:vp_z="1 : 0.5 : 1"
       inkscape:vp_y="0 : 1000 : 0"
       inkscape:vp_x="0 : 0.5 : 1"
       sodipodi:type="inkscape:persp3d" />
    <inkscape:perspective
       id="perspective4117"
       inkscape:persp3d-origin="0.5 : 0.33333333 : 1"
       inkscape:vp_z="1 : 0.5 : 1"
       inkscape:vp_y="0 : 1000 : 0"
       inkscape:vp_x="0 : 0.5 : 1"
       sodipodi:type="inkscape:persp3d" />
    <inkscape:perspective
       id="perspective4147"
       inkscape:persp3d-origin="0.5 : 0.33333333 : 1"
       inkscape:vp_z="1 : 0.5 : 1"
       inkscape:vp_y="0 : 1000 : 0"
       inkscape:vp_x="0 : 0.5 : 1"
       sodipodi:type="inkscape:persp3d" />
    <inkscape:perspective
       id="perspective4181"
       inkscape:persp3d-origin="0.5 : 0.33333333 : 1"
       inkscape:vp_z="1 : 0.5 : 1"
       inkscape:vp_y="0 : 1000 : 0"
       inkscape:vp_x="0 : 0.5 : 1"
       sodipodi:type="inkscape:persp3d" />
    <inkscape:perspective
       id="perspective4215"
       inkscape:persp3d-origin="0.5 : 0.33333333 : 1"
       inkscape:vp_z="1 : 0.5 : 1"
       inkscape:vp_y="0 : 1000 : 0"
       inkscape:vp_x="0 : 0.5 : 1"
       sodipodi:type="inkscape:persp3d" />
    <inkscape:perspective
       id="perspective4267"
       inkscape:persp3d-origin="0.5 : 0.33333333 : 1"
       inkscape:vp_z="1 : 0.5 : 1"
       inkscape:vp_y="0 : 1000 : 0"
       inkscape:vp_x="0 : 0.5 : 1"
       sodipodi:type="inkscape:persp3d" />
    <inkscape:perspective
       id="perspective4289"
       inkscape:persp3d-origin="0.5 : 0.33333333 : 1"
       inkscape:vp_z="1 : 0.5 : 1"
       inkscape:vp_y="0 : 1000 : 0"
       inkscape:vp_x="0 : 0.5 : 1"
       sodipodi:type="inkscape:persp3d" />
    <inkscape:perspective
       id="perspective4343"
       inkscape:persp3d-origin="0.5 : 0.33333333 : 1"
       inkscape:vp_z="1 : 0.5 : 1"
       inkscape:vp_y="0 : 1000 : 0"
       inkscape:vp_x="0 : 0.5 : 1"
       sodipodi:type="inkscape:persp3d" />
    <inkscape:perspective
       id="perspective4424"
       inkscape:persp3d-origin="0.5 : 0.33333333 : 1"
       inkscape:vp_z="1 : 0.5 : 1"
       inkscape:vp_y="0 : 1000 : 0"
       inkscape:vp_x="0 : 0.5 : 1"
       sodipodi:type="inkscape:persp3d" />
    <inkscape:perspective
       id="perspective4468"
       inkscape:persp3d-origin="0.5 : 0.33333333 : 1"
       inkscape:vp_z="1 : 0.5 : 1"
       inkscape:vp_y="0 : 1000 : 0"
       inkscape:vp_x="0 : 0.5 : 1"
       sodipodi:type="inkscape:persp3d" />
    <inkscape:perspective
       id="perspective4490"
       inkscape:persp3d-origin="0.5 : 0.33333333 : 1"
       inkscape:vp_z="1 : 0.5 : 1"
       inkscape:vp_y="0 : 1000 : 0"
       inkscape:vp_x="0 : 0.5 : 1"
       sodipodi:type="inkscape:persp3d" />
    <inkscape:perspective
       id="perspective4513"
       inkscape:persp3d-origin="0.5 : 0.33333333 : 1"
       inkscape:vp_z="1 : 0.5 : 1"
       inkscape:vp_y="0 : 1000 : 0"
       inkscape:vp_x="0 : 0.5 : 1"
       sodipodi:type="inkscape:persp3d" />
    <inkscape:perspective
       id="perspective4536"
       inkscape:persp3d-origin="0.5 : 0.33333333 : 1"
       inkscape:vp_z="1 : 0.5 : 1"
       inkscape:vp_y="0 : 1000 : 0"
       inkscape:vp_x="0 : 0.5 : 1"
       sodipodi:type="inkscape:persp3d" />
    <inkscape:perspective
       id="perspective4561"
       inkscape:persp3d-origin="0.5 : 0.33333333 : 1"
       inkscape:vp_z="1 : 0.5 : 1"
       inkscape:vp_y="0 : 1000 : 0"
       inkscape:vp_x="0 : 0.5 : 1"
       sodipodi:type="inkscape:persp3d" />
    <inkscape:perspective
       id="perspective4561-9"
       inkscape:persp3d-origin="0.5 : 0.33333333 : 1"
       inkscape:vp_z="1 : 0.5 : 1"
       inkscape:vp_y="0 : 1000 : 0"
       inkscape:vp_x="0 : 0.5 : 1"
       sodipodi:type="inkscape:persp3d" />
    <inkscape:perspective
       id="perspective4615"
       inkscape:persp3d-origin="0.5 : 0.33333333 : 1"
       inkscape:vp_z="1 : 0.5 : 1"
       inkscape:vp_y="0 : 1000 : 0"
       inkscape:vp_x="0 : 0.5 : 1"
       sodipodi:type="inkscape:persp3d" />
    <inkscape:perspective
       id="perspective4615-9"
       inkscape:persp3d-origin="0.5 : 0.33333333 : 1"
       inkscape:vp_z="1 : 0.5 : 1"
       inkscape:vp_y="0 : 1000 : 0"
       inkscape:vp_x="0 : 0.5 : 1"
       sodipodi:type="inkscape:persp3d" />
    <inkscape:perspective
       id="perspective4648"
       inkscape:persp3d-origin="0.5 : 0.33333333 : 1"
       inkscape:vp_z="1 : 0.5 : 1"
       inkscape:vp_y="0 : 1000 : 0"
       inkscape:vp_x="0 : 0.5 : 1"
       sodipodi:type="inkscape:persp3d" />
    <inkscape:perspective
       id="perspective4670"
       inkscape:persp3d-origin="0.5 : 0.33333333 : 1"
       inkscape:vp_z="1 : 0.5 : 1"
       inkscape:vp_y="0 : 1000 : 0"
       inkscape:vp_x="0 : 0.5 : 1"
       sodipodi:type="inkscape:persp3d" />
    <inkscape:perspective
       id="perspective4697"
       inkscape:persp3d-origin="0.5 : 0.33333333 : 1"
       inkscape:vp_z="1 : 0.5 : 1"
       inkscape:vp_y="0 : 1000 : 0"
       inkscape:vp_x="0 : 0.5 : 1"
       sodipodi:type="inkscape:persp3d" />
    <inkscape:perspective
       id="perspective4738"
       inkscape:persp3d-origin="0.5 : 0.33333333 : 1"
       inkscape:vp_z="1 : 0.5 : 1"
       inkscape:vp_y="0 : 1000 : 0"
       inkscape:vp_x="0 : 0.5 : 1"
       sodipodi:type="inkscape:persp3d" />
    <inkscape:perspective
       id="perspective4858"
       inkscape:persp3d-origin="0.5 : 0.33333333 : 1"
       inkscape:vp_z="1 : 0.5 : 1"
       inkscape:vp_y="0 : 1000 : 0"
       inkscape:vp_x="0 : 0.5 : 1"
       sodipodi:type="inkscape:persp3d" />
    <inkscape:perspective
       id="perspective4894"
       inkscape:persp3d-origin="0.5 : 0.33333333 : 1"
       inkscape:vp_z="1 : 0.5 : 1"
       inkscape:vp_y="0 : 1000 : 0"
       inkscape:vp_x="0 : 0.5 : 1"
       sodipodi:type="inkscape:persp3d" />
    <inkscape:perspective
       id="perspective4894-2"
       inkscape:persp3d-origin="0.5 : 0.33333333 : 1"
       inkscape:vp_z="1 : 0.5 : 1"
       inkscape:vp_y="0 : 1000 : 0"
       inkscape:vp_x="0 : 0.5 : 1"
       sodipodi:type="inkscape:persp3d" />
    <inkscape:perspective
       id="perspective4965"
       inkscape:persp3d-origin="0.5 : 0.33333333 : 1"
       inkscape:vp_z="1 : 0.5 : 1"
       inkscape:vp_y="0 : 1000 : 0"
       inkscape:vp_x="0 : 0.5 : 1"
       sodipodi:type="inkscape:persp3d" />
    <inkscape:perspective
       id="perspective4987"
       inkscape:persp3d-origin="0.5 : 0.33333333 : 1"
       inkscape:vp_z="1 : 0.5 : 1"
       inkscape:vp_y="0 : 1000 : 0"
       inkscape:vp_x="0 : 0.5 : 1"
       sodipodi:type="inkscape:persp3d" />
    <inkscape:perspective
       id="perspective5040"
       inkscape:persp3d-origin="0.5 : 0.33333333 : 1"
       inkscape:vp_z="1 : 0.5 : 1"
       inkscape:vp_y="0 : 1000 : 0"
       inkscape:vp_x="0 : 0.5 : 1"
       sodipodi:type="inkscape:persp3d" />
    <inkscape:perspective
       id="perspective5074"
       inkscape:persp3d-origin="0.5 : 0.33333333 : 1"
       inkscape:vp_z="1 : 0.5 : 1"
       inkscape:vp_y="0 : 1000 : 0"
       inkscape:vp_x="0 : 0.5 : 1"
       sodipodi:type="inkscape:persp3d" />
    <inkscape:perspective
       id="perspective5275"
       inkscape:persp3d-origin="0.5 : 0.33333333 : 1"
       inkscape:vp_z="1 : 0.5 : 1"
       inkscape:vp_y="0 : 1000 : 0"
       inkscape:vp_x="0 : 0.5 : 1"
       sodipodi:type="inkscape:persp3d" />
    <inkscape:perspective
       id="perspective5275-7"
       inkscape:persp3d-origin="0.5 : 0.33333333 : 1"
       inkscape:vp_z="1 : 0.5 : 1"
       inkscape:vp_y="0 : 1000 : 0"
       inkscape:vp_x="0 : 0.5 : 1"
       sodipodi:type="inkscape:persp3d" />
  </defs>
  <sodipodi:namedview
     id="base"
     pagecolor="#ffffff"
     bordercolor="#666666"
     borderopacity="1.0"
     inkscape:pageopacity="0.0"
     inkscape:pageshadow="2"
     inkscape:zoom="1"
     inkscape:cx="-79.14258"
     inkscape:cy="694.26773"
     inkscape:document-units="px"
     inkscape:current-layer="layer1"
     showgrid="false"
     inkscape:snap-nodes="true"
     inkscape:window-width="1871"
     inkscape:window-height="1056"
     inkscape:window-x="49"
     inkscape:window-y="24"
     inkscape:window-maximized="1"
     inkscape:snap-page="false"
     borderlayer="true" />
  <metadata
     id="metadata7">
    <rdf:RDF>
      <cc:Work
         rdf:about="">
        <dc:format>image/svg+xml</dc:format>
        <dc:type
           rdf:resource="http://purl.org/dc/dcmitype/StillImage" />
        <dc:title />
      </cc:Work>
    </rdf:RDF>
  </metadata>
  <g
     inkscape:label="Layer 1"
     inkscape:groupmode="layer"
     id="layer1">
    <g
       id="g4060">
      <path
         inkscape:connector-curvature="0"
         id="rect2894"
         d="m 230,30.36216 0,82.9375 45.125,28.0625 -45.125,28.0625 0,82.9375 80,0 0,-56 112,0 0,56 80,0 0,-82.9375 -45.125,-28.0625 45.125,-28.0625 0,-82.9375 -80,0 0,56 -112,0 0,-56 -80,0 z"
         style="fill:#009966;fill-opacity:1;stroke:none" />
      <path
         id="rect3816"
         d="m 322,98.36216 0,3.3125 0,82.6875 16,0 0,-45.9375 20,45.9375 16,0 20,-45.9375 0,45.9375 16,0 0,-82.6875 0,-3.3125 -16,0 -28,64.25 -28,-64.25 -16,0 z"
         style="fill:#000000;fill-opacity:1;stroke:none"
         inkscape:connector-curvature="0" />
      <g
         id="g4293">
        <path
           style="fill:#ffffff;fill-opacity:1;stroke:none"
           d="m 330,142.36216 c -1.86396,0 -3.43108,1.2746 -3.875,3 l -8.4375,0 -3.6875,0 -69,43 0,32.125 c -1.7254,0.44392 -3,2.01104 -3,3.875 0,2.20914 1.79086,4 4,4 2.20914,0 4,-1.79086 4,-4 0,-1.86396 -1.2746,-3.43108 -3,-3.875 l 0,-31 67.5,-42.125 11.625,0 c 0.44392,1.7254 2.01104,3 3.875,3 2.20914,0 4,-1.79086 4,-4 0,-2.20914 -1.79086,-4 -4,-4 z m 0,2 c 1.10456,0 2,0.89544 2,2 0,1.10456 -0.89544,2 -2,2 -1.10456,0 -2,-0.89544 -2,-2 0,-1.10456 0.89544,-2 2,-2 z m -84,78 c 1.10456,0 2,0.89544 2,2 0,1.10456 -0.89544,2 -2,2 -1.10456,0 -2,-0.89544 -2,-2 0,-1.10456 0.89544,-2 2,-2 z"
           id="path2898-9"
           inkscape:connector-curvature="0" />
        <path
           style="fill:#ffffff;fill-opacity:1;stroke:none"
           d="m 330,152.36216 c -1.86396,0 -3.43108,1.2746 -3.875,3 l -8.375,0 -3.75,0 -53,33 0,32.125 c -1.7254,0.44392 -3,2.01104 -3,3.875 0,2.20914 1.79086,4 4,4 2.20914,0 4,-1.79086 4,-4 0,-1.86396 -1.2746,-3.43108 -3,-3.875 l 0,-31 51.5625,-32.125 11.5625,0 c 0.44392,1.7254 2.01104,3 3.875,3 2.20914,0 4,-1.79086 4,-4 0,-2.20914 -1.79086,-4 -4,-4 z m 0,2 c 1.10456,0 2,0.89544 2,2 0,1.10456 -0.89544,2 -2,2 -1.10456,0 -2,-0.89544 -2,-2 0,-1.10456 0.89544,-2 2,-2 z m -68,68 c 1.10456,0 2,0.89544 2,2 0,1.10456 -0.89544,2 -2,2 -1.10456,0 -2,-0.89544 -2,-2 0,-1.10456 0.89544,-2 2,-2 z"
           id="path2898-9-1"
           inkscape:connector-curvature="0" />
        <path
           style="fill:#ffffff;fill-opacity:1;stroke:none"
           d="m 330,162.36216 c -1.86396,0 -3.43108,1.2746 -3.875,3 l -8.3125,0 -3.8125,0 -37,23 0,32.125 c -1.7254,0.44392 -3,2.01104 -3,3.875 0,2.20914 1.79086,4 4,4 2.20914,0 4,-1.79086 4,-4 0,-1.86396 -1.2746,-3.43108 -3,-3.875 l 0,-31 35.625,-22.125 11.5,0 c 0.44392,1.7254 2.01104,3 3.875,3 2.20914,0 4,-1.79086 4,-4 0,-2.20914 -1.79086,-4 -4,-4 z m 0,2 c 1.10456,0 2,0.89544 2,2 0,1.10456 -0.89544,2 -2,2 -1.10456,0 -2,-0.89544 -2,-2 0,-1.10456 0.89544,-2 2,-2 z m -52,58 c 1.10456,0 2,0.89544 2,2 0,1.10456 -0.89544,2 -2,2 -1.10456,0 -2,-0.89544 -2,-2 0,-1.10456 0.89544,-2 2,-2 z"
           id="path2898-9-8"
           inkscape:connector-curvature="0" />
        <path
           style="fill:#ffffff;fill-opacity:1;stroke:none"
           d="m 330,172.36216 c -1.86396,0 -3.43108,1.2746 -3.875,3 l -8.3125,0 -3.8125,0 -21,13 0,32.125 c -1.7254,0.44392 -3,2.01104 -3,3.875 0,2.20914 1.79086,4 4,4 2.20914,0 4,-1.79086 4,-4 0,-1.86396 -1.2746,-3.43108 -3,-3.875 l 0,-31 19.5625,-12.125 11.5625,0 c 0.44392,1.7254 2.01104,3 3.875,3 2.20914,0 4,-1.79086 4,-4 0,-2.20914 -1.79086,-4 -4,-4 z m 0,2 c 1.10456,0 2,0.89544 2,2 0,1.10456 -0.89544,2 -2,2 -1.10456,0 -2,-0.89544 -2,-2 0,-1.10456 0.89544,-2 2,-2 z m -36,48 c 1.10456,0 2,0.89544 2,2 0,1.10456 -0.89544,2 -2,2 -1.10456,0 -2,-0.89544 -2,-2 0,-1.10456 0.89544,-2 2,-2 z"
           id="path2898-9-88"
           inkscape:connector-curvature="0" />
        <path
           style="fill:#ffffff;fill-opacity:1;stroke:none"
           d="m 330,140.36224 c -1.86396,0 -3.43108,-1.2746 -3.875,-3 l -8.4375,0 -3.6875,0 -69,-43 0,-32.125 c -1.7254,-0.44392 -3,-2.01104 -3,-3.875 0,-2.20914 1.79086,-4 4,-4 2.20914,0 4,1.79086 4,4 0,1.86396 -1.2746,3.43108 -3,3.875 l 0,31 67.5,42.125 11.625,0 c 0.44392,-1.7254 2.01104,-3 3.875,-3 2.20914,0 4,1.79086 4,4 0,2.20914 -1.79086,4 -4,4 z m 0,-2 c 1.10456,0 2,-0.89544 2,-2 0,-1.10456 -0.89544,-2 -2,-2 -1.10456,0 -2,0.89544 -2,2 0,1.10456 0.89544,2 2,2 z m -84,-78 c 1.10456,0 2,-0.89544 2,-2 0,-1.10456 -0.89544,-2 -2,-2 -1.10456,0 -2,0.89544 -2,2 0,1.10456 0.89544,2 2,2 z"
           id="path2898-9-12"
           inkscape:connector-curvature="0" />
        <path
           style="fill:#ffffff;fill-opacity:1;stroke:none"
           d="m 330,130.36224 c -1.86396,0 -3.43108,-1.2746 -3.875,-3 l -8.375,0 -3.75,0 -53,-33 0,-32.125 c -1.7254,-0.44392 -3,-2.01104 -3,-3.875 0,-2.20914 1.79086,-4 4,-4 2.20914,0 4,1.79086 4,4 0,1.86396 -1.2746,3.43108 -3,3.875 l 0,31 51.5625,32.125 11.5625,0 c 0.44392,-1.7254 2.01104,-3 3.875,-3 2.20914,0 4,1.79086 4,4 0,2.20914 -1.79086,4 -4,4 z m 0,-2 c 1.10456,0 2,-0.89544 2,-2 0,-1.10456 -0.89544,-2 -2,-2 -1.10456,0 -2,0.89544 -2,2 0,1.10456 0.89544,2 2,2 z m -68,-68 c 1.10456,0 2,-0.89544 2,-2 0,-1.10456 -0.89544,-2 -2,-2 -1.10456,0 -2,0.89544 -2,2 0,1.10456 0.89544,2 2,2 z"
           id="path2898-9-1-2"
           inkscape:connector-curvature="0" />
        <path
           style="fill:#ffffff;fill-opacity:1;stroke:none"
           d="m 330,120.36224 c -1.86396,0 -3.43108,-1.2746 -3.875,-3 l -8.3125,0 -3.8125,0 -37,-23 0,-32.125 c -1.7254,-0.44392 -3,-2.01104 -3,-3.875 0,-2.20914 1.79086,-4 4,-4 2.20914,0 4,1.79086 4,4 0,1.86396 -1.2746,3.43108 -3,3.875 l 0,31 35.625,22.125 11.5,0 c 0.44392,-1.7254 2.01104,-3 3.875,-3 2.20914,0 4,1.79086 4,4 0,2.20914 -1.79086,4 -4,4 z m 0,-2 c 1.10456,0 2,-0.89544 2,-2 0,-1.10456 -0.89544,-2 -2,-2 -1.10456,0 -2,0.89544 -2,2 0,1.10456 0.89544,2 2,2 z m -52,-58 c 1.10456,0 2,-0.89544 2,-2 0,-1.10456 -0.89544,-2 -2,-2 -1.10456,0 -2,0.89544 -2,2 0,1.10456 0.89544,2 2,2 z"
           id="path2898-9-8-4"
           inkscape:connector-curvature="0" />
        <path
           style="fill:#ffffff;fill-opacity:1;stroke:none"
           d="m 330,110.36224 c -1.86396,0 -3.43108,-1.2746 -3.875,-3 l -8.3125,0 -3.8125,0 -21,-13 0,-32.125 c -1.7254,-0.44392 -3,-2.01104 -3,-3.875 0,-2.20914 1.79086,-4 4,-4 2.20914,0 4,1.79086 4,4 0,1.86396 -1.2746,3.43108 -3,3.875 l 0,31 19.5625,12.125 11.5625,0 c 0.44392,-1.7254 2.01104,-3 3.875,-3 2.20914,0 4,1.79086 4,4 0,2.20914 -1.79086,4 -4,4 z m 0,-2 c 1.10456,0 2,-0.89544 2,-2 0,-1.10456 -0.89544,-2 -2,-2 -1.10456,0 -2,0.89544 -2,2 0,1.10456 0.89544,2 2,2 z m -36,-48 c 1.10456,0 2,-0.89544 2,-2 0,-1.10456 -0.89544,-2 -2,-2 -1.10456,0 -2,0.89544 -2,2 0,1.10456 0.89544,2 2,2 z"
           id="path2898-9-88-0"
           inkscape:connector-curvature="0" />
        <path
           style="fill:#ffffff;fill-opacity:1;stroke:none"
           d="m 402,142.36216 c 1.86396,0 3.43108,1.2746 3.875,3 l 8.4375,0 3.6875,0 69,43 0,32.125 c 1.7254,0.44392 3,2.01104 3,3.875 0,2.20914 -1.79086,4 -4,4 -2.20914,0 -4,-1.79086 -4,-4 0,-1.86396 1.2746,-3.43108 3,-3.875 l 0,-31 -67.5,-42.125 -11.625,0 c -0.44392,1.7254 -2.01104,3 -3.875,3 -2.20914,0 -4,-1.79086 -4,-4 0,-2.20914 1.79086,-4 4,-4 z m 0,2 c -1.10456,0 -2,0.89544 -2,2 0,1.10456 0.89544,2 2,2 1.10456,0 2,-0.89544 2,-2 0,-1.10456 -0.89544,-2 -2,-2 z m 84,78 c -1.10456,0 -2,0.89544 -2,2 0,1.10456 0.89544,2 2,2 1.10456,0 2,-0.89544 2,-2 0,-1.10456 -0.89544,-2 -2,-2 z"
           id="path2898-9-9"
           inkscape:connector-curvature="0" />
        <path
           style="fill:#ffffff;fill-opacity:1;stroke:none"
           d="m 402,152.36216 c 1.86396,0 3.43108,1.2746 3.875,3 l 8.375,0 3.75,0 53,33 0,32.125 c 1.7254,0.44392 3,2.01104 3,3.875 0,2.20914 -1.79086,4 -4,4 -2.20914,0 -4,-1.79086 -4,-4 0,-1.86396 1.2746,-3.43108 3,-3.875 l 0,-31 -51.5625,-32.125 -11.5625,0 c -0.44392,1.7254 -2.01104,3 -3.875,3 -2.20914,0 -4,-1.79086 -4,-4 0,-2.20914 1.79086,-4 4,-4 z m 0,2 c -1.10456,0 -2,0.89544 -2,2 0,1.10456 0.89544,2 2,2 1.10456,0 2,-0.89544 2,-2 0,-1.10456 -0.89544,-2 -2,-2 z m 68,68 c -1.10456,0 -2,0.89544 -2,2 0,1.10456 0.89544,2 2,2 1.10456,0 2,-0.89544 2,-2 0,-1.10456 -0.89544,-2 -2,-2 z"
           id="path2898-9-1-4"
           inkscape:connector-curvature="0" />
        <path
           style="fill:#ffffff;fill-opacity:1;stroke:none"
           d="m 402,162.36216 c 1.86396,0 3.43108,1.2746 3.875,3 l 8.3125,0 3.8125,0 37,23 0,32.125 c 1.7254,0.44392 3,2.01104 3,3.875 0,2.20914 -1.79086,4 -4,4 -2.20914,0 -4,-1.79086 -4,-4 0,-1.86396 1.2746,-3.43108 3,-3.875 l 0,-31 -35.625,-22.125 -11.5,0 c -0.44392,1.7254 -2.01104,3 -3.875,3 -2.20914,0 -4,-1.79086 -4,-4 0,-2.20914 1.79086,-4 4,-4 z m 0,2 c -1.10456,0 -2,0.89544 -2,2 0,1.10456 0.89544,2 2,2 1.10456,0 2,-0.89544 2,-2 0,-1.10456 -0.89544,-2 -2,-2 z m 52,58 c -1.10456,0 -2,0.89544 -2,2 0,1.10456 0.89544,2 2,2 1.10456,0 2,-0.89544 2,-2 0,-1.10456 -0.89544,-2 -2,-2 z"
           id="path2898-9-8-0"
           inkscape:connector-curvature="0" />
        <path
           style="fill:#ffffff;fill-opacity:1;stroke:none"
           d="m 402,172.36216 c 1.86396,0 3.43108,1.2746 3.875,3 l 8.3125,0 3.8125,0 21,13 0,32.125 c 1.7254,0.44392 3,2.01104 3,3.875 0,2.20914 -1.79086,4 -4,4 -2.20914,0 -4,-1.79086 -4,-4 0,-1.86396 1.2746,-3.43108 3,-3.875 l 0,-31 -19.5625,-12.125 -11.5625,0 c -0.44392,1.7254 -2.01104,3 -3.875,3 -2.20914,0 -4,-1.79086 -4,-4 0,-2.20914 1.79086,-4 4,-4 z m 0,2 c -1.10456,0 -2,0.89544 -2,2 0,1.10456 0.89544,2 2,2 1.10456,0 2,-0.89544 2,-2 0,-1.10456 -0.89544,-2 -2,-2 z m 36,48 c -1.10456,0 -2,0.89544 -2,2 0,1.10456 0.89544,2 2,2 1.10456,0 2,-0.89544 2,-2 0,-1.10456 -0.89544,-2 -2,-2 z"
           id="path2898-9-88-04"
           inkscape:connector-curvature="0" />
        <path
           style="fill:#ffffff;fill-opacity:1;stroke:none"
           d="m 402,140.36224 c 1.86396,0 3.43108,-1.2746 3.875,-3 l 8.4375,0 3.6875,0 69,-43 0,-32.125 c 1.7254,-0.44392 3,-2.01104 3,-3.875 0,-2.20914 -1.79086,-4 -4,-4 -2.20914,0 -4,1.79086 -4,4 0,1.86396 1.2746,3.43108 3,3.875 l 0,31 -67.5,42.125 -11.625,0 c -0.44392,-1.7254 -2.01104,-3 -3.875,-3 -2.20914,0 -4,1.79086 -4,4 0,2.20914 1.79086,4 4,4 z m 0,-2 c -1.10456,0 -2,-0.89544 -2,-2 0,-1.10456 0.89544,-2 2,-2 1.10456,0 2,0.89544 2,2 0,1.10456 -0.89544,2 -2,2 z m 84,-78 c -1.10456,0 -2,-0.89544 -2,-2 0,-1.10456 0.89544,-2 2,-2 1.10456,0 2,0.89544 2,2 0,1.10456 -0.89544,2 -2,2 z"
           id="path2898-9-12-4"
           inkscape:connector-curvature="0" />
        <path
           style="fill:#ffffff;fill-opacity:1;stroke:none"
           d="m 402,130.36224 c 1.86396,0 3.43108,-1.2746 3.875,-3 l 8.375,0 3.75,0 53,-33 0,-32.125 c 1.7254,-0.44392 3,-2.01104 3,-3.875 0,-2.20914 -1.79086,-4 -4,-4 -2.20914,0 -4,1.79086 -4,4 0,1.86396 1.2746,3.43108 3,3.875 l 0,31 -51.5625,32.125 -11.5625,0 c -0.44392,-1.7254 -2.01104,-3 -3.875,-3 -2.20914,0 -4,1.79086 -4,4 0,2.20914 1.79086,4 4,4 z m 0,-2 c -1.10456,0 -2,-0.89544 -2,-2 0,-1.10456 0.89544,-2 2,-2 1.10456,0 2,0.89544 2,2 0,1.10456 -0.89544,2 -2,2 z m 68,-68 c -1.10456,0 -2,-0.89544 -2,-2 0,-1.10456 0.89544,-2 2,-2 1.10456,0 2,0.89544 2,2 0,1.10456 -0.89544,2 -2,2 z"
           id="path2898-9-1-2-6"
           inkscape:connector-curvature="0" />
        <path
           style="fill:#ffffff;fill-opacity:1;stroke:none"
           d="m 402,120.36224 c 1.86396,0 3.43108,-1.2746 3.875,-3 l 8.3125,0 3.8125,0 37,-23 0,-32.125 c 1.7254,-0.44392 3,-2.01104 3,-3.875 0,-2.20914 -1.79086,-4 -4,-4 -2.20914,0 -4,1.79086 -4,4 0,1.86396 1.2746,3.43108 3,3.875 l 0,31 -35.625,22.125 -11.5,0 c -0.44392,-1.7254 -2.01104,-3 -3.875,-3 -2.20914,0 -4,1.79086 -4,4 0,2.20914 1.79086,4 4,4 z m 0,-2 c -1.10456,0 -2,-0.89544 -2,-2 0,-1.10456 0.89544,-2 2,-2 1.10456,0 2,0.89544 2,2 0,1.10456 -0.89544,2 -2,2 z m 52,-58 c -1.10456,0 -2,-0.89544 -2,-2 0,-1.10456 0.89544,-2 2,-2 1.10456,0 2,0.89544 2,2 0,1.10456 -0.89544,2 -2,2 z"
           id="path2898-9-8-4-2"
           inkscape:connector-curvature="0" />
        <path
           style="fill:#ffffff;fill-opacity:1;stroke:none"
           d="m 402,110.36224 c 1.86396,0 3.43108,-1.2746 3.875,-3 l 8.3125,0 3.8125,0 21,-13 0,-32.125 c 1.7254,-0.44392 3,-2.01104 3,-3.875 0,-2.20914 -1.79086,-4 -4,-4 -2.20914,0 -4,1.79086 -4,4 0,1.86396 1.2746,3.43108 3,3.875 l 0,31 -19.5625,12.125 -11.5625,0 c -0.44392,-1.7254 -2.01104,-3 -3.875,-3 -2.20914,0 -4,1.79086 -4,4 0,2.20914 1.79086,4 4,4 z m 0,-2 c -1.10456,0 -2,-0.89544 -2,-2 0,-1.10456 0.89544,-2 2,-2 1.10456,0 2,0.89544 2,2 0,1.10456 -0.89544,2 -2,2 z m 36,-48 c -1.10456,0 -2,-0.89544 -2,-2 0,-1.10456 0.89544,-2 2,-2 1.10456,0 2,0.89544 2,2 0,1.10456 -0.89544,2 -2,2 z"
           id="path2898-9-88-0-3"
           inkscape:connector-curvature="0" />
        <path
           sodipodi:type="arc"
           style="fill:#ffffff;fill-opacity:1;stroke:none"
           id="path2898-2"
           sodipodi:cx="170.39008"
           sodipodi:cy="495.97922"
           sodipodi:rx="5.4964538"
           sodipodi:ry="6.0283689"
           d="m 175.88653,495.97922 a 5.4964538,6.0283689 0 1 1 -10.99291,0 5.4964538,6.0283689 0 1 1 10.99291,0 z"
           transform="matrix(0.72774196,0,0,0.6635294,146,-88.73462)" />
        <path
           sodipodi:type="arc"
           style="fill:#ffffff;fill-opacity:1;stroke:none"
           id="path2898-2-7"
           sodipodi:cx="170.39008"
           sodipodi:cy="495.97922"
           sodipodi:rx="5.4964538"
           sodipodi:ry="6.0283689"
           d="m 175.88653,495.97922 a 5.4964538,6.0283689 0 1 1 -10.99291,0 5.4964538,6.0283689 0 1 1 10.99291,0 z"
           transform="matrix(0.72774196,0,0,0.6635294,146,-286.73462)" />
        <path
           sodipodi:type="arc"
           style="fill:#ffffff;fill-opacity:1;stroke:none"
           id="path2898-2-3"
           sodipodi:cx="170.39008"
           sodipodi:cy="495.97922"
           sodipodi:rx="5.4964538"
           sodipodi:ry="6.0283689"
           d="m 175.88653,495.97922 a 5.4964538,6.0283689 0 1 1 -10.99291,0 5.4964538,6.0283689 0 1 1 10.99291,0 z"
           transform="matrix(0.72774196,0,0,0.6635294,338,-88.73462)" />
        <path
           sodipodi:type="arc"
           style="fill:#ffffff;fill-opacity:1;stroke:none"
           id="path2898-2-7-8"
           sodipodi:cx="170.39008"
           sodipodi:cy="495.97922"
           sodipodi:rx="5.4964538"
           sodipodi:ry="6.0283689"
           d="m 175.88653,495.97922 a 5.4964538,6.0283689 0 1 1 -10.99291,0 5.4964538,6.0283689 0 1 1 10.99291,0 z"
           transform="matrix(0.72774196,0,0,0.6635294,338,-286.73464)" />
      </g>
    </g>
  </g>
</svg>
