<?xml version="1.0" encoding="UTF-8" standalone="no"?>
<!-- Created with Inkscape (http://www.inkscape.org/) -->

<svg
   xmlns:dc="http://purl.org/dc/elements/1.1/"
   xmlns:cc="http://creativecommons.org/ns#"
   xmlns:rdf="http://www.w3.org/1999/02/22-rdf-syntax-ns#"
   xmlns:svg="http://www.w3.org/2000/svg"
   xmlns="http://www.w3.org/2000/svg"
   xmlns:sodipodi="http://sodipodi.sourceforge.net/DTD/sodipodi-0.dtd"
   xmlns:inkscape="http://www.inkscape.org/namespaces/inkscape"
   width="272"
   height="272"
   id="mhs_logo_black"
   version="1.1"
   inkscape:version="0.48.5 r10040"
   sodipodi:docname="green_with_text.svg"
   inkscape:export-filename="green.png"
   inkscape:export-xdpi="68.437508"
   inkscape:export-ydpi="68.437508"
   viewBox="0 0 254.99999 255.00001">
  <defs
     id="defs4">
    <inkscape:perspective
       sodipodi:type="inkscape:persp3d"
       inkscape:vp_x="0 : 526.18111 : 1"
       inkscape:vp_y="0 : 1000 : 0"
       inkscape:vp_z="744.09445 : 526.18111 : 1"
       inkscape:persp3d-origin="372.04723 : 350.78741 : 1"
       id="perspective10" />
    <inkscape:perspective
       id="perspective3608"
       inkscape:persp3d-origin="0.49999999 : 0.33333335 : 1"
       inkscape:vp_z="0.99999996 : 0.50000002 : 1"
       inkscape:vp_y="0 : 1000 : 0"
       inkscape:vp_x="0 : 0.50000002 : 1"
       sodipodi:type="inkscape:persp3d" />
    <inkscape:perspective
       id="perspective3608-7"
       inkscape:persp3d-origin="0.49999999 : 0.33333335 : 1"
       inkscape:vp_z="0.99999996 : 0.50000002 : 1"
       inkscape:vp_y="0 : 1000 : 0"
       inkscape:vp_x="0 : 0.50000002 : 1"
       sodipodi:type="inkscape:persp3d" />
    <inkscape:perspective
       id="perspective3608-6"
       inkscape:persp3d-origin="0.49999999 : 0.33333335 : 1"
       inkscape:vp_z="0.99999996 : 0.50000002 : 1"
       inkscape:vp_y="0 : 1000 : 0"
       inkscape:vp_x="0 : 0.50000002 : 1"
       sodipodi:type="inkscape:persp3d" />
    <inkscape:perspective
       id="perspective3669"
       inkscape:persp3d-origin="0.49999999 : 0.33333335 : 1"
       inkscape:vp_z="0.99999996 : 0.50000002 : 1"
       inkscape:vp_y="0 : 1000 : 0"
       inkscape:vp_x="0 : 0.50000002 : 1"
       sodipodi:type="inkscape:persp3d" />
    <inkscape:perspective
       id="perspective3767"
       inkscape:persp3d-origin="0.49999999 : 0.33333335 : 1"
       inkscape:vp_z="0.99999996 : 0.50000002 : 1"
       inkscape:vp_y="0 : 1000 : 0"
       inkscape:vp_x="0 : 0.50000002 : 1"
       sodipodi:type="inkscape:persp3d" />
    <inkscape:perspective
       id="perspective3789"
       inkscape:persp3d-origin="0.49999999 : 0.33333335 : 1"
       inkscape:vp_z="0.99999996 : 0.50000002 : 1"
       inkscape:vp_y="0 : 1000 : 0"
       inkscape:vp_x="0 : 0.50000002 : 1"
       sodipodi:type="inkscape:persp3d" />
    <inkscape:perspective
       id="perspective3811"
       inkscape:persp3d-origin="0.49999999 : 0.33333335 : 1"
       inkscape:vp_z="0.99999996 : 0.50000002 : 1"
       inkscape:vp_y="0 : 1000 : 0"
       inkscape:vp_x="0 : 0.50000002 : 1"
       sodipodi:type="inkscape:persp3d" />
    <inkscape:perspective
       id="perspective3833"
       inkscape:persp3d-origin="0.49999999 : 0.33333335 : 1"
       inkscape:vp_z="0.99999996 : 0.50000002 : 1"
       inkscape:vp_y="0 : 1000 : 0"
       inkscape:vp_x="0 : 0.50000002 : 1"
       sodipodi:type="inkscape:persp3d" />
    <inkscape:perspective
       id="perspective3862"
       inkscape:persp3d-origin="0.49999999 : 0.33333335 : 1"
       inkscape:vp_z="0.99999996 : 0.50000002 : 1"
       inkscape:vp_y="0 : 1000 : 0"
       inkscape:vp_x="0 : 0.50000002 : 1"
       sodipodi:type="inkscape:persp3d" />
    <inkscape:perspective
       id="perspective3884"
       inkscape:persp3d-origin="0.49999999 : 0.33333335 : 1"
       inkscape:vp_z="0.99999996 : 0.50000002 : 1"
       inkscape:vp_y="0 : 1000 : 0"
       inkscape:vp_x="0 : 0.50000002 : 1"
       sodipodi:type="inkscape:persp3d" />
    <inkscape:perspective
       id="perspective3912"
       inkscape:persp3d-origin="0.49999999 : 0.33333335 : 1"
       inkscape:vp_z="0.99999996 : 0.50000002 : 1"
       inkscape:vp_y="0 : 1000 : 0"
       inkscape:vp_x="0 : 0.50000002 : 1"
       sodipodi:type="inkscape:persp3d" />
    <inkscape:perspective
       id="perspective3955"
       inkscape:persp3d-origin="0.49999999 : 0.33333335 : 1"
       inkscape:vp_z="0.99999996 : 0.50000002 : 1"
       inkscape:vp_y="0 : 1000 : 0"
       inkscape:vp_x="0 : 0.50000002 : 1"
       sodipodi:type="inkscape:persp3d" />
    <inkscape:perspective
       id="perspective4011"
       inkscape:persp3d-origin="0.49999999 : 0.33333335 : 1"
       inkscape:vp_z="0.99999996 : 0.50000002 : 1"
       inkscape:vp_y="0 : 1000 : 0"
       inkscape:vp_x="0 : 0.50000002 : 1"
       sodipodi:type="inkscape:persp3d" />
    <inkscape:perspective
       id="perspective4050"
       inkscape:persp3d-origin="0.49999999 : 0.33333335 : 1"
       inkscape:vp_z="0.99999996 : 0.50000002 : 1"
       inkscape:vp_y="0 : 1000 : 0"
       inkscape:vp_x="0 : 0.50000002 : 1"
       sodipodi:type="inkscape:persp3d" />
    <inkscape:perspective
       id="perspective4084"
       inkscape:persp3d-origin="0.49999999 : 0.33333335 : 1"
       inkscape:vp_z="0.99999996 : 0.50000002 : 1"
       inkscape:vp_y="0 : 1000 : 0"
       inkscape:vp_x="0 : 0.50000002 : 1"
       sodipodi:type="inkscape:persp3d" />
    <inkscape:perspective
       id="perspective4118"
       inkscape:persp3d-origin="0.49999999 : 0.33333335 : 1"
       inkscape:vp_z="0.99999996 : 0.50000002 : 1"
       inkscape:vp_y="0 : 1000 : 0"
       inkscape:vp_x="0 : 0.50000002 : 1"
       sodipodi:type="inkscape:persp3d" />
    <inkscape:perspective
       id="perspective4152"
       inkscape:persp3d-origin="0.49999999 : 0.33333335 : 1"
       inkscape:vp_z="0.99999996 : 0.50000002 : 1"
       inkscape:vp_y="0 : 1000 : 0"
       inkscape:vp_x="0 : 0.50000002 : 1"
       sodipodi:type="inkscape:persp3d" />
    <inkscape:perspective
       id="perspective4175"
       inkscape:persp3d-origin="0.49999999 : 0.33333335 : 1"
       inkscape:vp_z="0.99999996 : 0.50000002 : 1"
       inkscape:vp_y="0 : 1000 : 0"
       inkscape:vp_x="0 : 0.50000002 : 1"
       sodipodi:type="inkscape:persp3d" />
    <inkscape:perspective
       id="perspective4197"
       inkscape:persp3d-origin="0.49999999 : 0.33333335 : 1"
       inkscape:vp_z="0.99999996 : 0.50000002 : 1"
       inkscape:vp_y="0 : 1000 : 0"
       inkscape:vp_x="0 : 0.50000002 : 1"
       sodipodi:type="inkscape:persp3d" />
    <inkscape:perspective
       id="perspective4222"
       inkscape:persp3d-origin="0.49999999 : 0.33333335 : 1"
       inkscape:vp_z="0.99999996 : 0.50000002 : 1"
       inkscape:vp_y="0 : 1000 : 0"
       inkscape:vp_x="0 : 0.50000002 : 1"
       sodipodi:type="inkscape:persp3d" />
    <inkscape:perspective
       id="perspective4263"
       inkscape:persp3d-origin="0.49999999 : 0.33333335 : 1"
       inkscape:vp_z="0.99999996 : 0.50000002 : 1"
       inkscape:vp_y="0 : 1000 : 0"
       inkscape:vp_x="0 : 0.50000002 : 1"
       sodipodi:type="inkscape:persp3d" />
    <inkscape:perspective
       id="perspective4297"
       inkscape:persp3d-origin="0.49999999 : 0.33333335 : 1"
       inkscape:vp_z="0.99999996 : 0.50000002 : 1"
       inkscape:vp_y="0 : 1000 : 0"
       inkscape:vp_x="0 : 0.50000002 : 1"
       sodipodi:type="inkscape:persp3d" />
    <inkscape:perspective
       id="perspective4321"
       inkscape:persp3d-origin="0.49999999 : 0.33333335 : 1"
       inkscape:vp_z="0.99999996 : 0.50000002 : 1"
       inkscape:vp_y="0 : 1000 : 0"
       inkscape:vp_x="0 : 0.50000002 : 1"
       sodipodi:type="inkscape:persp3d" />
    <inkscape:perspective
       id="perspective4345"
       inkscape:persp3d-origin="0.49999999 : 0.33333335 : 1"
       inkscape:vp_z="0.99999996 : 0.50000002 : 1"
       inkscape:vp_y="0 : 1000 : 0"
       inkscape:vp_x="0 : 0.50000002 : 1"
       sodipodi:type="inkscape:persp3d" />
    <inkscape:perspective
       id="perspective4367"
       inkscape:persp3d-origin="0.49999999 : 0.33333335 : 1"
       inkscape:vp_z="0.99999996 : 0.50000002 : 1"
       inkscape:vp_y="0 : 1000 : 0"
       inkscape:vp_x="0 : 0.50000002 : 1"
       sodipodi:type="inkscape:persp3d" />
    <inkscape:perspective
       id="perspective4415"
       inkscape:persp3d-origin="0.49999999 : 0.33333335 : 1"
       inkscape:vp_z="0.99999996 : 0.50000002 : 1"
       inkscape:vp_y="0 : 1000 : 0"
       inkscape:vp_x="0 : 0.50000002 : 1"
       sodipodi:type="inkscape:persp3d" />
    <inkscape:perspective
       id="perspective4461"
       inkscape:persp3d-origin="0.49999999 : 0.33333335 : 1"
       inkscape:vp_z="0.99999996 : 0.50000002 : 1"
       inkscape:vp_y="0 : 1000 : 0"
       inkscape:vp_x="0 : 0.50000002 : 1"
       sodipodi:type="inkscape:persp3d" />
    <inkscape:perspective
       id="perspective4515"
       inkscape:persp3d-origin="0.49999999 : 0.33333335 : 1"
       inkscape:vp_z="0.99999996 : 0.50000002 : 1"
       inkscape:vp_y="0 : 1000 : 0"
       inkscape:vp_x="0 : 0.50000002 : 1"
       sodipodi:type="inkscape:persp3d" />
    <inkscape:perspective
       id="perspective4578"
       inkscape:persp3d-origin="0.49999999 : 0.33333335 : 1"
       inkscape:vp_z="0.99999996 : 0.50000002 : 1"
       inkscape:vp_y="0 : 1000 : 0"
       inkscape:vp_x="0 : 0.50000002 : 1"
       sodipodi:type="inkscape:persp3d" />
    <inkscape:perspective
       id="perspective4600"
       inkscape:persp3d-origin="0.49999999 : 0.33333335 : 1"
       inkscape:vp_z="0.99999996 : 0.50000002 : 1"
       inkscape:vp_y="0 : 1000 : 0"
       inkscape:vp_x="0 : 0.50000002 : 1"
       sodipodi:type="inkscape:persp3d" />
    <inkscape:perspective
       id="perspective4600-3"
       inkscape:persp3d-origin="0.49999999 : 0.33333335 : 1"
       inkscape:vp_z="0.99999996 : 0.50000002 : 1"
       inkscape:vp_y="0 : 1000 : 0"
       inkscape:vp_x="0 : 0.50000002 : 1"
       sodipodi:type="inkscape:persp3d" />
    <inkscape:perspective
       id="perspective2828"
       inkscape:persp3d-origin="0.49999999 : 0.33333335 : 1"
       inkscape:vp_z="0.99999996 : 0.50000002 : 1"
       inkscape:vp_y="0 : 1000 : 0"
       inkscape:vp_x="0 : 0.50000002 : 1"
       sodipodi:type="inkscape:persp3d" />
    <inkscape:perspective
       id="perspective2948"
       inkscape:persp3d-origin="0.49999999 : 0.33333335 : 1"
       inkscape:vp_z="0.99999996 : 0.50000002 : 1"
       inkscape:vp_y="0 : 1000 : 0"
       inkscape:vp_x="0 : 0.50000002 : 1"
       sodipodi:type="inkscape:persp3d" />
    <inkscape:perspective
       id="perspective2889"
       inkscape:persp3d-origin="0.49999999 : 0.33333335 : 1"
       inkscape:vp_z="0.99999996 : 0.50000002 : 1"
       inkscape:vp_y="0 : 1000 : 0"
       inkscape:vp_x="0 : 0.50000002 : 1"
       sodipodi:type="inkscape:persp3d" />
    <inkscape:perspective
       id="perspective2911"
       inkscape:persp3d-origin="0.49999999 : 0.33333335 : 1"
       inkscape:vp_z="0.99999996 : 0.50000002 : 1"
       inkscape:vp_y="0 : 1000 : 0"
       inkscape:vp_x="0 : 0.50000002 : 1"
       sodipodi:type="inkscape:persp3d" />
    <inkscape:perspective
       id="perspective3733"
       inkscape:persp3d-origin="0.49999999 : 0.33333335 : 1"
       inkscape:vp_z="0.99999996 : 0.50000002 : 1"
       inkscape:vp_y="0 : 1000 : 0"
       inkscape:vp_x="0 : 0.50000002 : 1"
       sodipodi:type="inkscape:persp3d" />
    <inkscape:perspective
       id="perspective3789-2"
       inkscape:persp3d-origin="0.49999999 : 0.33333335 : 1"
       inkscape:vp_z="0.99999996 : 0.50000002 : 1"
       inkscape:vp_y="0 : 1000 : 0"
       inkscape:vp_x="0 : 0.50000002 : 1"
       sodipodi:type="inkscape:persp3d" />
    <inkscape:perspective
       id="perspective3817"
       inkscape:persp3d-origin="0.49999999 : 0.33333335 : 1"
       inkscape:vp_z="0.99999996 : 0.50000002 : 1"
       inkscape:vp_y="0 : 1000 : 0"
       inkscape:vp_x="0 : 0.50000002 : 1"
       sodipodi:type="inkscape:persp3d" />
    <inkscape:perspective
       id="perspective3817-5"
       inkscape:persp3d-origin="0.49999999 : 0.33333335 : 1"
       inkscape:vp_z="0.99999996 : 0.50000002 : 1"
       inkscape:vp_y="0 : 1000 : 0"
       inkscape:vp_x="0 : 0.50000002 : 1"
       sodipodi:type="inkscape:persp3d" />
    <inkscape:perspective
       id="perspective3817-6"
       inkscape:persp3d-origin="0.49999999 : 0.33333335 : 1"
       inkscape:vp_z="0.99999996 : 0.50000002 : 1"
       inkscape:vp_y="0 : 1000 : 0"
       inkscape:vp_x="0 : 0.50000002 : 1"
       sodipodi:type="inkscape:persp3d" />
    <inkscape:perspective
       id="perspective3817-2"
       inkscape:persp3d-origin="0.49999999 : 0.33333335 : 1"
       inkscape:vp_z="0.99999996 : 0.50000002 : 1"
       inkscape:vp_y="0 : 1000 : 0"
       inkscape:vp_x="0 : 0.50000002 : 1"
       sodipodi:type="inkscape:persp3d" />
    <inkscape:perspective
       id="perspective3867"
       inkscape:persp3d-origin="0.49999999 : 0.33333335 : 1"
       inkscape:vp_z="0.99999996 : 0.50000002 : 1"
       inkscape:vp_y="0 : 1000 : 0"
       inkscape:vp_x="0 : 0.50000002 : 1"
       sodipodi:type="inkscape:persp3d" />
    <inkscape:perspective
       id="perspective3680"
       inkscape:persp3d-origin="0.49999999 : 0.33333335 : 1"
       inkscape:vp_z="0.99999996 : 0.50000002 : 1"
       inkscape:vp_y="0 : 1000 : 0"
       inkscape:vp_x="0 : 0.50000002 : 1"
       sodipodi:type="inkscape:persp3d" />
    <inkscape:perspective
       id="perspective3680-7"
       inkscape:persp3d-origin="0.49999999 : 0.33333335 : 1"
       inkscape:vp_z="0.99999996 : 0.50000002 : 1"
       inkscape:vp_y="0 : 1000 : 0"
       inkscape:vp_x="0 : 0.50000002 : 1"
       sodipodi:type="inkscape:persp3d" />
    <inkscape:perspective
       id="perspective3713"
       inkscape:persp3d-origin="0.49999999 : 0.33333335 : 1"
       inkscape:vp_z="0.99999996 : 0.50000002 : 1"
       inkscape:vp_y="0 : 1000 : 0"
       inkscape:vp_x="0 : 0.50000002 : 1"
       sodipodi:type="inkscape:persp3d" />
    <inkscape:perspective
       id="perspective3737"
       inkscape:persp3d-origin="0.49999999 : 0.33333335 : 1"
       inkscape:vp_z="0.99999996 : 0.50000002 : 1"
       inkscape:vp_y="0 : 1000 : 0"
       inkscape:vp_x="0 : 0.50000002 : 1"
       sodipodi:type="inkscape:persp3d" />
    <inkscape:perspective
       id="perspective3737-0"
       inkscape:persp3d-origin="0.49999999 : 0.33333335 : 1"
       inkscape:vp_z="0.99999996 : 0.50000002 : 1"
       inkscape:vp_y="0 : 1000 : 0"
       inkscape:vp_x="0 : 0.50000002 : 1"
       sodipodi:type="inkscape:persp3d" />
    <inkscape:perspective
       id="perspective3737-1"
       inkscape:persp3d-origin="0.49999999 : 0.33333335 : 1"
       inkscape:vp_z="0.99999996 : 0.50000002 : 1"
       inkscape:vp_y="0 : 1000 : 0"
       inkscape:vp_x="0 : 0.50000002 : 1"
       sodipodi:type="inkscape:persp3d" />
    <inkscape:perspective
       id="perspective3737-5"
       inkscape:persp3d-origin="0.49999999 : 0.33333335 : 1"
       inkscape:vp_z="0.99999996 : 0.50000002 : 1"
       inkscape:vp_y="0 : 1000 : 0"
       inkscape:vp_x="0 : 0.50000002 : 1"
       sodipodi:type="inkscape:persp3d" />
    <inkscape:perspective
       id="perspective3737-7"
       inkscape:persp3d-origin="0.49999999 : 0.33333335 : 1"
       inkscape:vp_z="0.99999996 : 0.50000002 : 1"
       inkscape:vp_y="0 : 1000 : 0"
       inkscape:vp_x="0 : 0.50000002 : 1"
       sodipodi:type="inkscape:persp3d" />
    <inkscape:perspective
       id="perspective3802"
       inkscape:persp3d-origin="0.49999999 : 0.33333335 : 1"
       inkscape:vp_z="0.99999996 : 0.50000002 : 1"
       inkscape:vp_y="0 : 1000 : 0"
       inkscape:vp_x="0 : 0.50000002 : 1"
       sodipodi:type="inkscape:persp3d" />
    <inkscape:perspective
       id="perspective3826"
       inkscape:persp3d-origin="0.49999999 : 0.33333335 : 1"
       inkscape:vp_z="0.99999996 : 0.50000002 : 1"
       inkscape:vp_y="0 : 1000 : 0"
       inkscape:vp_x="0 : 0.50000002 : 1"
       sodipodi:type="inkscape:persp3d" />
    <inkscape:perspective
       id="perspective3826-4"
       inkscape:persp3d-origin="0.49999999 : 0.33333335 : 1"
       inkscape:vp_z="0.99999996 : 0.50000002 : 1"
       inkscape:vp_y="0 : 1000 : 0"
       inkscape:vp_x="0 : 0.50000002 : 1"
       sodipodi:type="inkscape:persp3d" />
    <inkscape:perspective
       id="perspective3826-6"
       inkscape:persp3d-origin="0.49999999 : 0.33333335 : 1"
       inkscape:vp_z="0.99999996 : 0.50000002 : 1"
       inkscape:vp_y="0 : 1000 : 0"
       inkscape:vp_x="0 : 0.50000002 : 1"
       sodipodi:type="inkscape:persp3d" />
    <inkscape:perspective
       id="perspective3866"
       inkscape:persp3d-origin="0.49999999 : 0.33333335 : 1"
       inkscape:vp_z="0.99999996 : 0.50000002 : 1"
       inkscape:vp_y="0 : 1000 : 0"
       inkscape:vp_x="0 : 0.50000002 : 1"
       sodipodi:type="inkscape:persp3d" />
    <inkscape:perspective
       id="perspective3707"
       inkscape:persp3d-origin="0.49999999 : 0.33333335 : 1"
       inkscape:vp_z="0.99999996 : 0.50000002 : 1"
       inkscape:vp_y="0 : 1000 : 0"
       inkscape:vp_x="0 : 0.50000002 : 1"
       sodipodi:type="inkscape:persp3d" />
    <inkscape:perspective
       id="perspective3933"
       inkscape:persp3d-origin="0.49999999 : 0.33333335 : 1"
       inkscape:vp_z="0.99999996 : 0.50000002 : 1"
       inkscape:vp_y="0 : 1000 : 0"
       inkscape:vp_x="0 : 0.50000002 : 1"
       sodipodi:type="inkscape:persp3d" />
    <inkscape:perspective
       id="perspective3958"
       inkscape:persp3d-origin="0.49999999 : 0.33333335 : 1"
       inkscape:vp_z="0.99999996 : 0.50000002 : 1"
       inkscape:vp_y="0 : 1000 : 0"
       inkscape:vp_x="0 : 0.50000002 : 1"
       sodipodi:type="inkscape:persp3d" />
    <inkscape:perspective
       id="perspective3980"
       inkscape:persp3d-origin="0.49999999 : 0.33333335 : 1"
       inkscape:vp_z="0.99999996 : 0.50000002 : 1"
       inkscape:vp_y="0 : 1000 : 0"
       inkscape:vp_x="0 : 0.50000002 : 1"
       sodipodi:type="inkscape:persp3d" />
    <inkscape:perspective
       id="perspective4004"
       inkscape:persp3d-origin="0.49999999 : 0.33333335 : 1"
       inkscape:vp_z="0.99999996 : 0.50000002 : 1"
       inkscape:vp_y="0 : 1000 : 0"
       inkscape:vp_x="0 : 0.50000002 : 1"
       sodipodi:type="inkscape:persp3d" />
    <inkscape:perspective
       id="perspective4026"
       inkscape:persp3d-origin="0.49999999 : 0.33333335 : 1"
       inkscape:vp_z="0.99999996 : 0.50000002 : 1"
       inkscape:vp_y="0 : 1000 : 0"
       inkscape:vp_x="0 : 0.50000002 : 1"
       sodipodi:type="inkscape:persp3d" />
    <inkscape:perspective
       id="perspective4048"
       inkscape:persp3d-origin="0.49999999 : 0.33333335 : 1"
       inkscape:vp_z="0.99999996 : 0.50000002 : 1"
       inkscape:vp_y="0 : 1000 : 0"
       inkscape:vp_x="0 : 0.50000002 : 1"
       sodipodi:type="inkscape:persp3d" />
    <inkscape:perspective
       id="perspective4071"
       inkscape:persp3d-origin="0.49999999 : 0.33333335 : 1"
       inkscape:vp_z="0.99999996 : 0.50000002 : 1"
       inkscape:vp_y="0 : 1000 : 0"
       inkscape:vp_x="0 : 0.50000002 : 1"
       sodipodi:type="inkscape:persp3d" />
    <inkscape:perspective
       id="perspective4095"
       inkscape:persp3d-origin="0.49999999 : 0.33333335 : 1"
       inkscape:vp_z="0.99999996 : 0.50000002 : 1"
       inkscape:vp_y="0 : 1000 : 0"
       inkscape:vp_x="0 : 0.50000002 : 1"
       sodipodi:type="inkscape:persp3d" />
    <inkscape:perspective
       id="perspective4117"
       inkscape:persp3d-origin="0.49999999 : 0.33333335 : 1"
       inkscape:vp_z="0.99999996 : 0.50000002 : 1"
       inkscape:vp_y="0 : 1000 : 0"
       inkscape:vp_x="0 : 0.50000002 : 1"
       sodipodi:type="inkscape:persp3d" />
    <inkscape:perspective
       id="perspective4147"
       inkscape:persp3d-origin="0.49999999 : 0.33333335 : 1"
       inkscape:vp_z="0.99999996 : 0.50000002 : 1"
       inkscape:vp_y="0 : 1000 : 0"
       inkscape:vp_x="0 : 0.50000002 : 1"
       sodipodi:type="inkscape:persp3d" />
    <inkscape:perspective
       id="perspective4181"
       inkscape:persp3d-origin="0.49999999 : 0.33333335 : 1"
       inkscape:vp_z="0.99999996 : 0.50000002 : 1"
       inkscape:vp_y="0 : 1000 : 0"
       inkscape:vp_x="0 : 0.50000002 : 1"
       sodipodi:type="inkscape:persp3d" />
    <inkscape:perspective
       id="perspective4215"
       inkscape:persp3d-origin="0.49999999 : 0.33333335 : 1"
       inkscape:vp_z="0.99999996 : 0.50000002 : 1"
       inkscape:vp_y="0 : 1000 : 0"
       inkscape:vp_x="0 : 0.50000002 : 1"
       sodipodi:type="inkscape:persp3d" />
    <inkscape:perspective
       id="perspective4267"
       inkscape:persp3d-origin="0.49999999 : 0.33333335 : 1"
       inkscape:vp_z="0.99999996 : 0.50000002 : 1"
       inkscape:vp_y="0 : 1000 : 0"
       inkscape:vp_x="0 : 0.50000002 : 1"
       sodipodi:type="inkscape:persp3d" />
    <inkscape:perspective
       id="perspective4289"
       inkscape:persp3d-origin="0.49999999 : 0.33333335 : 1"
       inkscape:vp_z="0.99999996 : 0.50000002 : 1"
       inkscape:vp_y="0 : 1000 : 0"
       inkscape:vp_x="0 : 0.50000002 : 1"
       sodipodi:type="inkscape:persp3d" />
    <inkscape:perspective
       id="perspective4343"
       inkscape:persp3d-origin="0.49999999 : 0.33333335 : 1"
       inkscape:vp_z="0.99999996 : 0.50000002 : 1"
       inkscape:vp_y="0 : 1000 : 0"
       inkscape:vp_x="0 : 0.50000002 : 1"
       sodipodi:type="inkscape:persp3d" />
    <inkscape:perspective
       id="perspective4424"
       inkscape:persp3d-origin="0.49999999 : 0.33333335 : 1"
       inkscape:vp_z="0.99999996 : 0.50000002 : 1"
       inkscape:vp_y="0 : 1000 : 0"
       inkscape:vp_x="0 : 0.50000002 : 1"
       sodipodi:type="inkscape:persp3d" />
    <inkscape:perspective
       id="perspective4468"
       inkscape:persp3d-origin="0.49999999 : 0.33333335 : 1"
       inkscape:vp_z="0.99999996 : 0.50000002 : 1"
       inkscape:vp_y="0 : 1000 : 0"
       inkscape:vp_x="0 : 0.50000002 : 1"
       sodipodi:type="inkscape:persp3d" />
    <inkscape:perspective
       id="perspective4490"
       inkscape:persp3d-origin="0.49999999 : 0.33333335 : 1"
       inkscape:vp_z="0.99999996 : 0.50000002 : 1"
       inkscape:vp_y="0 : 1000 : 0"
       inkscape:vp_x="0 : 0.50000002 : 1"
       sodipodi:type="inkscape:persp3d" />
    <inkscape:perspective
       id="perspective4513"
       inkscape:persp3d-origin="0.49999999 : 0.33333335 : 1"
       inkscape:vp_z="0.99999996 : 0.50000002 : 1"
       inkscape:vp_y="0 : 1000 : 0"
       inkscape:vp_x="0 : 0.50000002 : 1"
       sodipodi:type="inkscape:persp3d" />
    <inkscape:perspective
       id="perspective4536"
       inkscape:persp3d-origin="0.49999999 : 0.33333335 : 1"
       inkscape:vp_z="0.99999996 : 0.50000002 : 1"
       inkscape:vp_y="0 : 1000 : 0"
       inkscape:vp_x="0 : 0.50000002 : 1"
       sodipodi:type="inkscape:persp3d" />
    <inkscape:perspective
       id="perspective4561"
       inkscape:persp3d-origin="0.49999999 : 0.33333335 : 1"
       inkscape:vp_z="0.99999996 : 0.50000002 : 1"
       inkscape:vp_y="0 : 1000 : 0"
       inkscape:vp_x="0 : 0.50000002 : 1"
       sodipodi:type="inkscape:persp3d" />
    <inkscape:perspective
       id="perspective4561-9"
       inkscape:persp3d-origin="0.49999999 : 0.33333335 : 1"
       inkscape:vp_z="0.99999996 : 0.50000002 : 1"
       inkscape:vp_y="0 : 1000 : 0"
       inkscape:vp_x="0 : 0.50000002 : 1"
       sodipodi:type="inkscape:persp3d" />
    <inkscape:perspective
       id="perspective4615"
       inkscape:persp3d-origin="0.49999999 : 0.33333335 : 1"
       inkscape:vp_z="0.99999996 : 0.50000002 : 1"
       inkscape:vp_y="0 : 1000 : 0"
       inkscape:vp_x="0 : 0.50000002 : 1"
       sodipodi:type="inkscape:persp3d" />
    <inkscape:perspective
       id="perspective4615-9"
       inkscape:persp3d-origin="0.49999999 : 0.33333335 : 1"
       inkscape:vp_z="0.99999996 : 0.50000002 : 1"
       inkscape:vp_y="0 : 1000 : 0"
       inkscape:vp_x="0 : 0.50000002 : 1"
       sodipodi:type="inkscape:persp3d" />
    <inkscape:perspective
       id="perspective4648"
       inkscape:persp3d-origin="0.49999999 : 0.33333335 : 1"
       inkscape:vp_z="0.99999996 : 0.50000002 : 1"
       inkscape:vp_y="0 : 1000 : 0"
       inkscape:vp_x="0 : 0.50000002 : 1"
       sodipodi:type="inkscape:persp3d" />
    <inkscape:perspective
       id="perspective4670"
       inkscape:persp3d-origin="0.49999999 : 0.33333335 : 1"
       inkscape:vp_z="0.99999996 : 0.50000002 : 1"
       inkscape:vp_y="0 : 1000 : 0"
       inkscape:vp_x="0 : 0.50000002 : 1"
       sodipodi:type="inkscape:persp3d" />
    <inkscape:perspective
       id="perspective4697"
       inkscape:persp3d-origin="0.49999999 : 0.33333335 : 1"
       inkscape:vp_z="0.99999996 : 0.50000002 : 1"
       inkscape:vp_y="0 : 1000 : 0"
       inkscape:vp_x="0 : 0.50000002 : 1"
       sodipodi:type="inkscape:persp3d" />
    <inkscape:perspective
       id="perspective4738"
       inkscape:persp3d-origin="0.49999999 : 0.33333335 : 1"
       inkscape:vp_z="0.99999996 : 0.50000002 : 1"
       inkscape:vp_y="0 : 1000 : 0"
       inkscape:vp_x="0 : 0.50000002 : 1"
       sodipodi:type="inkscape:persp3d" />
    <inkscape:perspective
       id="perspective4858"
       inkscape:persp3d-origin="0.49999999 : 0.33333335 : 1"
       inkscape:vp_z="0.99999996 : 0.50000002 : 1"
       inkscape:vp_y="0 : 1000 : 0"
       inkscape:vp_x="0 : 0.50000002 : 1"
       sodipodi:type="inkscape:persp3d" />
    <inkscape:perspective
       id="perspective4894"
       inkscape:persp3d-origin="0.49999999 : 0.33333335 : 1"
       inkscape:vp_z="0.99999996 : 0.50000002 : 1"
       inkscape:vp_y="0 : 1000 : 0"
       inkscape:vp_x="0 : 0.50000002 : 1"
       sodipodi:type="inkscape:persp3d" />
    <inkscape:perspective
       id="perspective4894-2"
       inkscape:persp3d-origin="0.49999999 : 0.33333335 : 1"
       inkscape:vp_z="0.99999996 : 0.50000002 : 1"
       inkscape:vp_y="0 : 1000 : 0"
       inkscape:vp_x="0 : 0.50000002 : 1"
       sodipodi:type="inkscape:persp3d" />
    <inkscape:perspective
       id="perspective4965"
       inkscape:persp3d-origin="0.49999999 : 0.33333335 : 1"
       inkscape:vp_z="0.99999996 : 0.50000002 : 1"
       inkscape:vp_y="0 : 1000 : 0"
       inkscape:vp_x="0 : 0.50000002 : 1"
       sodipodi:type="inkscape:persp3d" />
    <inkscape:perspective
       id="perspective4987"
       inkscape:persp3d-origin="0.49999999 : 0.33333335 : 1"
       inkscape:vp_z="0.99999996 : 0.50000002 : 1"
       inkscape:vp_y="0 : 1000 : 0"
       inkscape:vp_x="0 : 0.50000002 : 1"
       sodipodi:type="inkscape:persp3d" />
    <inkscape:perspective
       id="perspective5040"
       inkscape:persp3d-origin="0.49999999 : 0.33333335 : 1"
       inkscape:vp_z="0.99999996 : 0.50000002 : 1"
       inkscape:vp_y="0 : 1000 : 0"
       inkscape:vp_x="0 : 0.50000002 : 1"
       sodipodi:type="inkscape:persp3d" />
    <inkscape:perspective
       id="perspective5074"
       inkscape:persp3d-origin="0.49999999 : 0.33333335 : 1"
       inkscape:vp_z="0.99999996 : 0.50000002 : 1"
       inkscape:vp_y="0 : 1000 : 0"
       inkscape:vp_x="0 : 0.50000002 : 1"
       sodipodi:type="inkscape:persp3d" />
    <inkscape:perspective
       id="perspective5275"
       inkscape:persp3d-origin="0.49999999 : 0.33333335 : 1"
       inkscape:vp_z="0.99999996 : 0.50000002 : 1"
       inkscape:vp_y="0 : 1000 : 0"
       inkscape:vp_x="0 : 0.50000002 : 1"
       sodipodi:type="inkscape:persp3d" />
    <inkscape:perspective
       id="perspective5275-7"
       inkscape:persp3d-origin="0.49999999 : 0.33333335 : 1"
       inkscape:vp_z="0.99999996 : 0.50000002 : 1"
       inkscape:vp_y="0 : 1000 : 0"
       inkscape:vp_x="0 : 0.50000002 : 1"
       sodipodi:type="inkscape:persp3d" />
  </defs>
  <sodipodi:namedview
     id="base"
     pagecolor="#ffffff"
     bordercolor="#666666"
     borderopacity="1.0"
     inkscape:pageopacity="0.0"
     inkscape:pageshadow="2"
     inkscape:zoom="2"
     inkscape:cx="137.5"
     inkscape:cy="143.58648"
     inkscape:document-units="px"
     inkscape:current-layer="layer1"
     showgrid="false"
     inkscape:snap-nodes="true"
     inkscape:window-width="1920"
     inkscape:window-height="1030"
     inkscape:window-x="0"
     inkscape:window-y="31"
     inkscape:window-maximized="1"
     inkscape:snap-page="false"
     borderlayer="true"
     fit-margin-top="0"
     fit-margin-left="0"
     fit-margin-right="0"
     fit-margin-bottom="0" />
  <metadata
     id="metadata7">
    <rdf:RDF>
      <cc:Work
         rdf:about="">
        <dc:format>image/svg+xml</dc:format>
        <dc:type
           rdf:resource="http://purl.org/dc/dcmitype/StillImage" />
        <dc:title />
      </cc:Work>
    </rdf:RDF>
  </metadata>
  <g
     inkscape:label="Layer 1"
     inkscape:groupmode="layer"
     id="layer1"
     transform="translate(4.8313715e-6,-797.36217)">
    <g
       id="g3210">
      <g
         id="g3205">
        <path
           style="fill:#009966;fill-opacity:1;stroke:none"
           d="m -2.3e-6,797.36217 v 77.75391 L 42.304685,901.42467 -2.3e-6,927.73327 v 77.75393 H 74.999997 V 952.98717 H 180 v 52.50003 h 74.99999 v -77.75393 l -42.30468,-26.3086 42.30468,-26.30859 V 797.36217 H 180 v 52.5 H 74.999997 v -52.5 z"
           id="rect2894-4"
           inkscape:connector-curvature="0" />
        <path
           inkscape:connector-curvature="0"
           style="fill:#141414;fill-opacity:1;stroke:none"
           d="m 86.249997,861.11217 v 3.10547 77.51953 H 101.25 v -43.0664 l 18.75,43.0664 h 15 l 18.75,-43.0664 v 43.0664 h 15 v -77.51953 -3.10547 h -15 l -26.25,60.23438 -26.25,-60.23438 z"
           id="rect3816-5" />
        <path
           style="fill:#cccccc;fill-opacity:1;stroke:none"
           d="M 40 8 C 37.790861 8 36 9.7908611 36 12 C 36 14.209139 37.790861 16 40 16 C 42.209139 16 44 14.209139 44 12 C 44 9.7908611 42.209139 8 40 8 z M 232 8 C 229.79086 8 228 9.7908611 228 12 C 228 14.209139 229.79086 16 232 16 C 234.20914 16 236 14.209139 236 12 C 236 9.7908611 234.20914 8 232 8 z M 16 24 C 13.79086 24 12 25.790859 12 28 C 12 29.863957 13.2746 31.431085 15 31.875 L 15 64 L 84 107 L 87.6875 107 L 96.125 107 C 96.56892 108.7254 98.13604 110 100 110 C 102.20914 110 104 108.20914 104 106 C 104 103.79086 102.20914 102 100 102 C 98.13604 102 96.56892 103.2746 96.125 105 L 84.5 105 L 17 62.875 L 17 31.875 C 18.725399 31.431085 20 29.863957 20 28 C 20 25.790859 18.209139 24 16 24 z M 32 24 C 29.790861 24 28 25.790859 28 28 C 28 29.863957 29.274601 31.431085 31 31.875 L 31 64 L 84 97 L 87.75 97 L 96.125 97 C 96.56892 98.725397 98.13604 100 100 100 C 102.20914 100 104 98.209141 104 96 C 104 93.790859 102.20914 92 100 92 C 98.13604 92 96.56892 93.274603 96.125 95 L 84.5625 95 L 33 62.875 L 33 31.875 C 34.7254 31.431085 36 29.863957 36 28 C 36 25.790859 34.20914 24 32 24 z M 48 24 C 45.79086 24 44 25.790859 44 28 C 44 29.863957 45.274601 31.431085 47 31.875 L 47 64 L 84 87 L 87.8125 87 L 96.125 87 C 96.56892 88.725397 98.13604 90 100 90 C 102.20914 90 104 88.209141 104 86 C 104 83.790859 102.20914 82 100 82 C 98.13604 82 96.56892 83.274603 96.125 85 L 84.625 85 L 49 62.875 L 49 31.875 C 50.7254 31.431085 52 29.863957 52 28 C 52 25.790859 50.20914 24 48 24 z M 64 24 C 61.79086 24 60 25.790859 60 28 C 60 29.863957 61.274601 31.431085 63 31.875 L 63 64 L 84 77 L 87.8125 77 L 96.125 77 C 96.56892 78.725397 98.13604 80 100 80 C 102.20914 80 104 78.209141 104 76 C 104 73.790859 102.20914 72 100 72 C 98.13604 72 96.56892 73.274603 96.125 75 L 84.5625 75 L 65 62.875 L 65 31.875 C 66.7254 31.431085 68 29.863957 68 28 C 68 25.790859 66.20914 24 64 24 z M 208 24 C 205.79086 24 204 25.790859 204 28 C 204 29.863957 205.27459 31.431085 207 31.875 L 207 62.875 L 187.4375 75 L 175.875 75 C 175.43107 73.274603 173.86396 72 172 72 C 169.79086 72 168 73.790859 168 76 C 168 78.209141 169.79086 80 172 80 C 173.86396 80 175.43107 78.725397 175.875 77 L 184.1875 77 L 188 77 L 209 64 L 209 31.875 C 210.7254 31.431085 212 29.863957 212 28 C 212 25.790859 210.20913 24 208 24 z M 224 24 C 221.79086 24 220 25.790859 220 28 C 220 29.863957 221.27459 31.431085 223 31.875 L 223 62.875 L 187.375 85 L 175.875 85 C 175.43107 83.274603 173.86396 82 172 82 C 169.79086 82 168 83.790859 168 86 C 168 88.209141 169.79086 90 172 90 C 173.86396 90 175.43107 88.725397 175.875 87 L 184.1875 87 L 188 87 L 225 64 L 225 31.875 C 226.7254 31.431085 228 29.863957 228 28 C 228 25.790859 226.20913 24 224 24 z M 240 24 C 237.79086 24 236 25.790859 236 28 C 236 29.863957 237.27459 31.431085 239 31.875 L 239 62.875 L 187.4375 95 L 175.875 95 C 175.43107 93.274603 173.86396 92 172 92 C 169.79086 92 168 93.790859 168 96 C 168 98.209141 169.79086 100 172 100 C 173.86396 100 175.43107 98.725397 175.875 97 L 184.25 97 L 188 97 L 241 64 L 241 31.875 C 242.7254 31.431085 244 29.863957 244 28 C 244 25.790859 242.20913 24 240 24 z M 256 24 C 253.79086 24 252 25.790859 252 28 C 252 29.863957 253.27459 31.431085 255 31.875 L 255 62.875 L 187.5 105 L 175.875 105 C 175.43107 103.2746 173.86396 102 172 102 C 169.79086 102 168 103.79086 168 106 C 168 108.20914 169.79086 110 172 110 C 173.86396 110 175.43107 108.7254 175.875 107 L 184.3125 107 L 188 107 L 257 64 L 257 31.875 C 258.7254 31.431085 260 29.863957 260 28 C 260 25.790859 258.20913 24 256 24 z M 16 26 C 17.10456 26 18 26.895445 18 28 C 18 29.104565 17.10456 30 16 30 C 14.89544 30 14 29.104565 14 28 C 14 26.895445 14.89544 26 16 26 z M 32 26 C 33.10456 26 34 26.895445 34 28 C 34 29.104565 33.10456 30 32 30 C 30.89544 30 30 29.104565 30 28 C 30 26.895445 30.89544 26 32 26 z M 48 26 C 49.10456 26 50 26.895445 50 28 C 50 29.104565 49.10456 30 48 30 C 46.89544 30 46 29.104565 46 28 C 46 26.895445 46.89544 26 48 26 z M 64 26 C 65.10456 26 66 26.895445 66 28 C 66 29.104565 65.10456 30 64 30 C 62.89544 30 62 29.104565 62 28 C 62 26.895445 62.89544 26 64 26 z M 208 26 C 209.10455 26 210 26.895445 210 28 C 210 29.104565 209.10455 30 208 30 C 206.89543 30 206 29.104565 206 28 C 206 26.895445 206.89543 26 208 26 z M 224 26 C 225.10455 26 226 26.895445 226 28 C 226 29.104565 225.10455 30 224 30 C 222.89543 30 222 29.104565 222 28 C 222 26.895445 222.89543 26 224 26 z M 240 26 C 241.10455 26 242 26.895445 242 28 C 242 29.104565 241.10455 30 240 30 C 238.89543 30 238 29.104565 238 28 C 238 26.895445 238.89543 26 240 26 z M 256 26 C 257.10455 26 258 26.895445 258 28 C 258 29.104565 257.10455 30 256 30 C 254.89543 30 254 29.104565 254 28 C 254 26.895445 254.89543 26 256 26 z M 100 74 C 101.10456 74 102 74.895445 102 76 C 102 77.104565 101.10456 78 100 78 C 98.89544 78 98 77.104565 98 76 C 98 74.895445 98.89544 74 100 74 z M 172 74 C 173.10455 74 174 74.895445 174 76 C 174 77.104565 173.10455 78 172 78 C 170.89543 78 170 77.104565 170 76 C 170 74.895445 170.89543 74 172 74 z M 100 84 C 101.10456 84 102 84.895445 102 86 C 102 87.104565 101.10456 88 100 88 C 98.89544 88 98 87.104565 98 86 C 98 84.895445 98.89544 84 100 84 z M 172 84 C 173.10455 84 174 84.895445 174 86 C 174 87.104565 173.10455 88 172 88 C 170.89543 88 170 87.104565 170 86 C 170 84.895445 170.89543 84 172 84 z M 100 94 C 101.10456 94 102 94.895445 102 96 C 102 97.104565 101.10456 98 100 98 C 98.89544 98 98 97.104565 98 96 C 98 94.895445 98.89544 94 100 94 z M 172 94 C 173.10455 94 174 94.895445 174 96 C 174 97.104565 173.10455 98 172 98 C 170.89543 98 170 97.104565 170 96 C 170 94.895445 170.89543 94 172 94 z M 100 104 C 101.10456 104 102 104.89545 102 106 C 102 107.10457 101.10456 108 100 108 C 98.89544 108 98 107.10457 98 106 C 98 104.89545 98.89544 104 100 104 z M 172 104 C 173.10455 104 174 104.89545 174 106 C 174 107.10457 173.10455 108 172 108 C 170.89543 108 170 107.10457 170 106 C 170 104.89545 170.89543 104 172 104 z M 100 112 C 98.13604 112 96.56892 113.27459 96.125 115 L 87.6875 115 L 84 115 L 15 158 L 15 190.125 C 13.2746 190.56893 12 192.13603 12 194 C 12 196.20913 13.79086 198 16 198 C 18.209139 198 20 196.20913 20 194 C 20 192.13603 18.725399 190.56893 17 190.125 L 17 159.125 L 84.5 117 L 96.125 117 C 96.56892 118.7254 98.13604 120 100 120 C 102.20914 120 104 118.20913 104 116 C 104 113.79086 102.20914 112 100 112 z M 172 112 C 169.79086 112 168 113.79086 168 116 C 168 118.20913 169.79086 120 172 120 C 173.86396 120 175.43107 118.7254 175.875 117 L 187.5 117 L 255 159.125 L 255 190.125 C 253.27459 190.56893 252 192.13603 252 194 C 252 196.20913 253.79086 198 256 198 C 258.20913 198 260 196.20913 260 194 C 260 192.13603 258.7254 190.56893 257 190.125 L 257 158 L 188 115 L 184.3125 115 L 175.875 115 C 175.43107 113.27459 173.86396 112 172 112 z M 100 114 C 101.10456 114 102 114.89543 102 116 C 102 117.10455 101.10456 118 100 118 C 98.89544 118 98 117.10455 98 116 C 98 114.89543 98.89544 114 100 114 z M 172 114 C 173.10455 114 174 114.89543 174 116 C 174 117.10455 173.10455 118 172 118 C 170.89543 118 170 117.10455 170 116 C 170 114.89543 170.89543 114 172 114 z M 100 122 C 98.13604 122 96.56892 123.27459 96.125 125 L 87.75 125 L 84 125 L 31 158 L 31 190.125 C 29.274601 190.56893 28 192.13603 28 194 C 28 196.20913 29.790861 198 32 198 C 34.20914 198 36 196.20913 36 194 C 36 192.13603 34.7254 190.56893 33 190.125 L 33 159.125 L 84.5625 127 L 96.125 127 C 96.56892 128.7254 98.13604 130 100 130 C 102.20914 130 104 128.20913 104 126 C 104 123.79086 102.20914 122 100 122 z M 172 122 C 169.79086 122 168 123.79086 168 126 C 168 128.20913 169.79086 130 172 130 C 173.86396 130 175.43107 128.7254 175.875 127 L 187.4375 127 L 239 159.125 L 239 190.125 C 237.27459 190.56893 236 192.13603 236 194 C 236 196.20913 237.79086 198 240 198 C 242.20913 198 244 196.20913 244 194 C 244 192.13603 242.7254 190.56893 241 190.125 L 241 158 L 188 125 L 184.25 125 L 175.875 125 C 175.43107 123.27459 173.86396 122 172 122 z M 100 124 C 101.10456 124 102 124.89543 102 126 C 102 127.10455 101.10456 128 100 128 C 98.89544 128 98 127.10455 98 126 C 98 124.89543 98.89544 124 100 124 z M 172 124 C 173.10455 124 174 124.89543 174 126 C 174 127.10455 173.10455 128 172 128 C 170.89543 128 170 127.10455 170 126 C 170 124.89543 170.89543 124 172 124 z M 100 132 C 98.13604 132 96.56892 133.27459 96.125 135 L 87.8125 135 L 84 135 L 47 158 L 47 190.125 C 45.274601 190.56893 44 192.13603 44 194 C 44 196.20913 45.79086 198 48 198 C 50.20914 198 52 196.20913 52 194 C 52 192.13603 50.7254 190.56893 49 190.125 L 49 159.125 L 84.625 137 L 96.125 137 C 96.56892 138.7254 98.13604 140 100 140 C 102.20914 140 104 138.20913 104 136 C 104 133.79086 102.20914 132 100 132 z M 172 132 C 169.79086 132 168 133.79086 168 136 C 168 138.20913 169.79086 140 172 140 C 173.86396 140 175.43107 138.7254 175.875 137 L 187.375 137 L 223 159.125 L 223 190.125 C 221.27459 190.56893 220 192.13603 220 194 C 220 196.20913 221.79086 198 224 198 C 226.20913 198 228 196.20913 228 194 C 228 192.13603 226.7254 190.56893 225 190.125 L 225 158 L 188 135 L 184.1875 135 L 175.875 135 C 175.43107 133.27459 173.86396 132 172 132 z M 100 134 C 101.10456 134 102 134.89543 102 136 C 102 137.10455 101.10456 138 100 138 C 98.89544 138 98 137.10455 98 136 C 98 134.89543 98.89544 134 100 134 z M 172 134 C 173.10455 134 174 134.89543 174 136 C 174 137.10455 173.10455 138 172 138 C 170.89543 138 170 137.10455 170 136 C 170 134.89543 170.89543 134 172 134 z M 100 142 C 98.13604 142 96.56892 143.27459 96.125 145 L 87.8125 145 L 84 145 L 63 158 L 63 190.125 C 61.274601 190.56893 60 192.13603 60 194 C 60 196.20913 61.79086 198 64 198 C 66.20914 198 68 196.20913 68 194 C 68 192.13603 66.7254 190.56893 65 190.125 L 65 159.125 L 84.5625 147 L 96.125 147 C 96.56892 148.7254 98.13604 150 100 150 C 102.20914 150 104 148.20913 104 146 C 104 143.79086 102.20914 142 100 142 z M 172 142 C 169.79086 142 168 143.79086 168 146 C 168 148.20913 169.79086 150 172 150 C 173.86396 150 175.43107 148.7254 175.875 147 L 187.4375 147 L 207 159.125 L 207 190.125 C 205.27459 190.56893 204 192.13603 204 194 C 204 196.20913 205.79086 198 208 198 C 210.20913 198 212 196.20913 212 194 C 212 192.13603 210.7254 190.56893 209 190.125 L 209 158 L 188 145 L 184.1875 145 L 175.875 145 C 175.43107 143.27459 173.86396 142 172 142 z M 100 144 C 101.10456 144 102 144.89543 102 146 C 102 147.10455 101.10456 148 100 148 C 98.89544 148 98 147.10455 98 146 C 98 144.89543 98.89544 144 100 144 z M 172 144 C 173.10455 144 174 144.89543 174 146 C 174 147.10455 173.10455 148 172 148 C 170.89543 148 170 147.10455 170 146 C 170 144.89543 170.89543 144 172 144 z M 16 192 C 17.10456 192 18 192.89543 18 194 C 18 195.10455 17.10456 196 16 196 C 14.89544 196 14 195.10455 14 194 C 14 192.89543 14.89544 192 16 192 z M 32 192 C 33.10456 192 34 192.89543 34 194 C 34 195.10455 33.10456 196 32 196 C 30.89544 196 30 195.10455 30 194 C 30 192.89543 30.89544 192 32 192 z M 48 192 C 49.10456 192 50 192.89543 50 194 C 50 195.10455 49.10456 196 48 196 C 46.89544 196 46 195.10455 46 194 C 46 192.89543 46.89544 192 48 192 z M 64 192 C 65.10456 192 66 192.89543 66 194 C 66 195.10455 65.10456 196 64 196 C 62.89544 196 62 195.10455 62 194 C 62 192.89543 62.89544 192 64 192 z M 208 192 C 209.10455 192 210 192.89543 210 194 C 210 195.10455 209.10455 196 208 196 C 206.89543 196 206 195.10455 206 194 C 206 192.89543 206.89543 192 208 192 z M 224 192 C 225.10455 192 226 192.89543 226 194 C 226 195.10455 225.10455 196 224 196 C 222.89543 196 222 195.10455 222 194 C 222 192.89543 222.89543 192 224 192 z M 240 192 C 241.10455 192 242 192.89543 242 194 C 242 195.10455 241.10455 196 240 196 C 238.89543 196 238 195.10455 238 194 C 238 192.89543 238.89543 192 240 192 z M 256 192 C 257.10455 192 258 192.89543 258 194 C 258 195.10455 257.10455 196 256 196 C 254.89543 196 254 195.10455 254 194 C 254 192.89543 254.89543 192 256 192 z M 40 206 C 37.790861 206 36 207.79086 36 210 C 36 212.20914 37.790861 214 40 214 C 42.209139 214 44 212.20914 44 210 C 44 207.79086 42.209139 206 40 206 z M 232 206 C 229.79086 206 228 207.79086 228 210 C 228 212.20914 229.79086 214 232 214 C 234.20914 214 236 212.20914 236 210 C 236 207.79086 234.20914 206 232 206 z "
           transform="matrix(0.93750004,0,0,0.93750004,-1.4831371e-5,797.36217)"
           id="path2898-9-5" />
      </g>
      <text
         id="text3269"
         y="822.48236"
         x="99.896217"
         style="font-size:11.24291801px;font-style:normal;font-weight:normal;line-height:0%;letter-spacing:0px;word-spacing:0px;fill:#009966;fill-opacity:1;stroke:none;font-family:sans-serif"
         xml:space="preserve"
         sodipodi:linespacing="0%"><tspan
           style="font-size:16.92217827px;font-style:normal;font-variant:normal;font-weight:normal;font-stretch:normal;line-height:1.25;font-family:FreeSans;-inkscape-font-specification:FreeSans"
           y="822.48236"
           x="99.896217"
           id="tspan3271"
           sodipodi:role="line">MINSK</tspan></text>
      <text
         transform="scale(0.9999935,1.0000065)"
         id="text3273"
         y="1051.5555"
         x="-2.7817595"
         style="font-size:11.25px;font-style:normal;font-weight:normal;line-height:0%;letter-spacing:0px;word-spacing:0px;fill:#cccccc;fill-opacity:1;stroke:none;font-family:sans-serif"
         xml:space="preserve"
         sodipodi:linespacing="0%"><tspan
           style="font-size:34.77194214px;font-style:normal;font-variant:normal;font-weight:normal;font-stretch:normal;line-height:1.25;fill:#cccccc;fill-opacity:1;font-family:FreeSans;-inkscape-font-specification:FreeSans"
           y="1051.5555"
           x="-2.7817595"
           id="tspan3275"
           sodipodi:role="line">HACKERSPACE</tspan></text>
    </g>
  </g>
</svg>
