<?xml version="1.0" encoding="UTF-8" standalone="no"?>
<!-- Created with Inkscape (http://www.inkscape.org/) -->

<svg
   xmlns:dc="http://purl.org/dc/elements/1.1/"
   xmlns:cc="http://creativecommons.org/ns#"
   xmlns:rdf="http://www.w3.org/1999/02/22-rdf-syntax-ns#"
   xmlns:svg="http://www.w3.org/2000/svg"
   xmlns="http://www.w3.org/2000/svg"
   xmlns:sodipodi="http://sodipodi.sourceforge.net/DTD/sodipodi-0.dtd"
   xmlns:inkscape="http://www.inkscape.org/namespaces/inkscape"
   width="560"
   height="560"
   id="mhs_logo_black"
   version="1.1"
   inkscape:version="0.48.5 r10040"
   sodipodi:docname="green.svg"
   inkscape:export-filename="green.png"
   inkscape:export-xdpi="96"
   inkscape:export-ydpi="96"
   viewBox="0 0 560 560">
  <defs
     id="defs4">
    <inkscape:perspective
       sodipodi:type="inkscape:persp3d"
       inkscape:vp_x="0 : 561.25983 : 1"
       inkscape:vp_y="0 : 1066.6666 : 0"
       inkscape:vp_z="793.70078 : 561.25983 : 1"
       inkscape:persp3d-origin="396.85039 : 374.17323 : 1"
       id="perspective10" />
    <inkscape:perspective
       id="perspective3608"
       inkscape:persp3d-origin="0.53333334 : 0.35555556 : 1"
       inkscape:vp_z="1.0666667 : 0.53333333 : 1"
       inkscape:vp_y="0 : 1066.6666 : 0"
       inkscape:vp_x="0 : 0.53333333 : 1"
       sodipodi:type="inkscape:persp3d" />
    <inkscape:perspective
       id="perspective3608-7"
       inkscape:persp3d-origin="0.53333334 : 0.35555556 : 1"
       inkscape:vp_z="1.0666667 : 0.53333333 : 1"
       inkscape:vp_y="0 : 1066.6666 : 0"
       inkscape:vp_x="0 : 0.53333333 : 1"
       sodipodi:type="inkscape:persp3d" />
    <inkscape:perspective
       id="perspective3608-6"
       inkscape:persp3d-origin="0.53333334 : 0.35555556 : 1"
       inkscape:vp_z="1.0666667 : 0.53333333 : 1"
       inkscape:vp_y="0 : 1066.6666 : 0"
       inkscape:vp_x="0 : 0.53333333 : 1"
       sodipodi:type="inkscape:persp3d" />
    <inkscape:perspective
       id="perspective3669"
       inkscape:persp3d-origin="0.53333334 : 0.35555556 : 1"
       inkscape:vp_z="1.0666667 : 0.53333333 : 1"
       inkscape:vp_y="0 : 1066.6666 : 0"
       inkscape:vp_x="0 : 0.53333333 : 1"
       sodipodi:type="inkscape:persp3d" />
    <inkscape:perspective
       id="perspective3767"
       inkscape:persp3d-origin="0.53333334 : 0.35555556 : 1"
       inkscape:vp_z="1.0666667 : 0.53333333 : 1"
       inkscape:vp_y="0 : 1066.6666 : 0"
       inkscape:vp_x="0 : 0.53333333 : 1"
       sodipodi:type="inkscape:persp3d" />
    <inkscape:perspective
       id="perspective3789"
       inkscape:persp3d-origin="0.53333334 : 0.35555556 : 1"
       inkscape:vp_z="1.0666667 : 0.53333333 : 1"
       inkscape:vp_y="0 : 1066.6666 : 0"
       inkscape:vp_x="0 : 0.53333333 : 1"
       sodipodi:type="inkscape:persp3d" />
    <inkscape:perspective
       id="perspective3811"
       inkscape:persp3d-origin="0.53333334 : 0.35555556 : 1"
       inkscape:vp_z="1.0666667 : 0.53333333 : 1"
       inkscape:vp_y="0 : 1066.6666 : 0"
       inkscape:vp_x="0 : 0.53333333 : 1"
       sodipodi:type="inkscape:persp3d" />
    <inkscape:perspective
       id="perspective3833"
       inkscape:persp3d-origin="0.53333334 : 0.35555556 : 1"
       inkscape:vp_z="1.0666667 : 0.53333333 : 1"
       inkscape:vp_y="0 : 1066.6666 : 0"
       inkscape:vp_x="0 : 0.53333333 : 1"
       sodipodi:type="inkscape:persp3d" />
    <inkscape:perspective
       id="perspective3862"
       inkscape:persp3d-origin="0.53333334 : 0.35555556 : 1"
       inkscape:vp_z="1.0666667 : 0.53333333 : 1"
       inkscape:vp_y="0 : 1066.6666 : 0"
       inkscape:vp_x="0 : 0.53333333 : 1"
       sodipodi:type="inkscape:persp3d" />
    <inkscape:perspective
       id="perspective3884"
       inkscape:persp3d-origin="0.53333334 : 0.35555556 : 1"
       inkscape:vp_z="1.0666667 : 0.53333333 : 1"
       inkscape:vp_y="0 : 1066.6666 : 0"
       inkscape:vp_x="0 : 0.53333333 : 1"
       sodipodi:type="inkscape:persp3d" />
    <inkscape:perspective
       id="perspective3912"
       inkscape:persp3d-origin="0.53333334 : 0.35555556 : 1"
       inkscape:vp_z="1.0666667 : 0.53333333 : 1"
       inkscape:vp_y="0 : 1066.6666 : 0"
       inkscape:vp_x="0 : 0.53333333 : 1"
       sodipodi:type="inkscape:persp3d" />
    <inkscape:perspective
       id="perspective3955"
       inkscape:persp3d-origin="0.53333334 : 0.35555556 : 1"
       inkscape:vp_z="1.0666667 : 0.53333333 : 1"
       inkscape:vp_y="0 : 1066.6666 : 0"
       inkscape:vp_x="0 : 0.53333333 : 1"
       sodipodi:type="inkscape:persp3d" />
    <inkscape:perspective
       id="perspective4011"
       inkscape:persp3d-origin="0.53333334 : 0.35555556 : 1"
       inkscape:vp_z="1.0666667 : 0.53333333 : 1"
       inkscape:vp_y="0 : 1066.6666 : 0"
       inkscape:vp_x="0 : 0.53333333 : 1"
       sodipodi:type="inkscape:persp3d" />
    <inkscape:perspective
       id="perspective4050"
       inkscape:persp3d-origin="0.53333334 : 0.35555556 : 1"
       inkscape:vp_z="1.0666667 : 0.53333333 : 1"
       inkscape:vp_y="0 : 1066.6666 : 0"
       inkscape:vp_x="0 : 0.53333333 : 1"
       sodipodi:type="inkscape:persp3d" />
    <inkscape:perspective
       id="perspective4084"
       inkscape:persp3d-origin="0.53333334 : 0.35555556 : 1"
       inkscape:vp_z="1.0666667 : 0.53333333 : 1"
       inkscape:vp_y="0 : 1066.6666 : 0"
       inkscape:vp_x="0 : 0.53333333 : 1"
       sodipodi:type="inkscape:persp3d" />
    <inkscape:perspective
       id="perspective4118"
       inkscape:persp3d-origin="0.53333334 : 0.35555556 : 1"
       inkscape:vp_z="1.0666667 : 0.53333333 : 1"
       inkscape:vp_y="0 : 1066.6666 : 0"
       inkscape:vp_x="0 : 0.53333333 : 1"
       sodipodi:type="inkscape:persp3d" />
    <inkscape:perspective
       id="perspective4152"
       inkscape:persp3d-origin="0.53333334 : 0.35555556 : 1"
       inkscape:vp_z="1.0666667 : 0.53333333 : 1"
       inkscape:vp_y="0 : 1066.6666 : 0"
       inkscape:vp_x="0 : 0.53333333 : 1"
       sodipodi:type="inkscape:persp3d" />
    <inkscape:perspective
       id="perspective4175"
       inkscape:persp3d-origin="0.53333334 : 0.35555556 : 1"
       inkscape:vp_z="1.0666667 : 0.53333333 : 1"
       inkscape:vp_y="0 : 1066.6666 : 0"
       inkscape:vp_x="0 : 0.53333333 : 1"
       sodipodi:type="inkscape:persp3d" />
    <inkscape:perspective
       id="perspective4197"
       inkscape:persp3d-origin="0.53333334 : 0.35555556 : 1"
       inkscape:vp_z="1.0666667 : 0.53333333 : 1"
       inkscape:vp_y="0 : 1066.6666 : 0"
       inkscape:vp_x="0 : 0.53333333 : 1"
       sodipodi:type="inkscape:persp3d" />
    <inkscape:perspective
       id="perspective4222"
       inkscape:persp3d-origin="0.53333334 : 0.35555556 : 1"
       inkscape:vp_z="1.0666667 : 0.53333333 : 1"
       inkscape:vp_y="0 : 1066.6666 : 0"
       inkscape:vp_x="0 : 0.53333333 : 1"
       sodipodi:type="inkscape:persp3d" />
    <inkscape:perspective
       id="perspective4263"
       inkscape:persp3d-origin="0.53333334 : 0.35555556 : 1"
       inkscape:vp_z="1.0666667 : 0.53333333 : 1"
       inkscape:vp_y="0 : 1066.6666 : 0"
       inkscape:vp_x="0 : 0.53333333 : 1"
       sodipodi:type="inkscape:persp3d" />
    <inkscape:perspective
       id="perspective4297"
       inkscape:persp3d-origin="0.53333334 : 0.35555556 : 1"
       inkscape:vp_z="1.0666667 : 0.53333333 : 1"
       inkscape:vp_y="0 : 1066.6666 : 0"
       inkscape:vp_x="0 : 0.53333333 : 1"
       sodipodi:type="inkscape:persp3d" />
    <inkscape:perspective
       id="perspective4321"
       inkscape:persp3d-origin="0.53333334 : 0.35555556 : 1"
       inkscape:vp_z="1.0666667 : 0.53333333 : 1"
       inkscape:vp_y="0 : 1066.6666 : 0"
       inkscape:vp_x="0 : 0.53333333 : 1"
       sodipodi:type="inkscape:persp3d" />
    <inkscape:perspective
       id="perspective4345"
       inkscape:persp3d-origin="0.53333334 : 0.35555556 : 1"
       inkscape:vp_z="1.0666667 : 0.53333333 : 1"
       inkscape:vp_y="0 : 1066.6666 : 0"
       inkscape:vp_x="0 : 0.53333333 : 1"
       sodipodi:type="inkscape:persp3d" />
    <inkscape:perspective
       id="perspective4367"
       inkscape:persp3d-origin="0.53333334 : 0.35555556 : 1"
       inkscape:vp_z="1.0666667 : 0.53333333 : 1"
       inkscape:vp_y="0 : 1066.6666 : 0"
       inkscape:vp_x="0 : 0.53333333 : 1"
       sodipodi:type="inkscape:persp3d" />
    <inkscape:perspective
       id="perspective4415"
       inkscape:persp3d-origin="0.53333334 : 0.35555556 : 1"
       inkscape:vp_z="1.0666667 : 0.53333333 : 1"
       inkscape:vp_y="0 : 1066.6666 : 0"
       inkscape:vp_x="0 : 0.53333333 : 1"
       sodipodi:type="inkscape:persp3d" />
    <inkscape:perspective
       id="perspective4461"
       inkscape:persp3d-origin="0.53333334 : 0.35555556 : 1"
       inkscape:vp_z="1.0666667 : 0.53333333 : 1"
       inkscape:vp_y="0 : 1066.6666 : 0"
       inkscape:vp_x="0 : 0.53333333 : 1"
       sodipodi:type="inkscape:persp3d" />
    <inkscape:perspective
       id="perspective4515"
       inkscape:persp3d-origin="0.53333334 : 0.35555556 : 1"
       inkscape:vp_z="1.0666667 : 0.53333333 : 1"
       inkscape:vp_y="0 : 1066.6666 : 0"
       inkscape:vp_x="0 : 0.53333333 : 1"
       sodipodi:type="inkscape:persp3d" />
    <inkscape:perspective
       id="perspective4578"
       inkscape:persp3d-origin="0.53333334 : 0.35555556 : 1"
       inkscape:vp_z="1.0666667 : 0.53333333 : 1"
       inkscape:vp_y="0 : 1066.6666 : 0"
       inkscape:vp_x="0 : 0.53333333 : 1"
       sodipodi:type="inkscape:persp3d" />
    <inkscape:perspective
       id="perspective4600"
       inkscape:persp3d-origin="0.53333334 : 0.35555556 : 1"
       inkscape:vp_z="1.0666667 : 0.53333333 : 1"
       inkscape:vp_y="0 : 1066.6666 : 0"
       inkscape:vp_x="0 : 0.53333333 : 1"
       sodipodi:type="inkscape:persp3d" />
    <inkscape:perspective
       id="perspective4600-3"
       inkscape:persp3d-origin="0.53333334 : 0.35555556 : 1"
       inkscape:vp_z="1.0666667 : 0.53333333 : 1"
       inkscape:vp_y="0 : 1066.6666 : 0"
       inkscape:vp_x="0 : 0.53333333 : 1"
       sodipodi:type="inkscape:persp3d" />
    <inkscape:perspective
       id="perspective2828"
       inkscape:persp3d-origin="0.53333334 : 0.35555556 : 1"
       inkscape:vp_z="1.0666667 : 0.53333333 : 1"
       inkscape:vp_y="0 : 1066.6666 : 0"
       inkscape:vp_x="0 : 0.53333333 : 1"
       sodipodi:type="inkscape:persp3d" />
    <inkscape:perspective
       id="perspective2948"
       inkscape:persp3d-origin="0.53333334 : 0.35555556 : 1"
       inkscape:vp_z="1.0666667 : 0.53333333 : 1"
       inkscape:vp_y="0 : 1066.6666 : 0"
       inkscape:vp_x="0 : 0.53333333 : 1"
       sodipodi:type="inkscape:persp3d" />
    <inkscape:perspective
       id="perspective2889"
       inkscape:persp3d-origin="0.53333334 : 0.35555556 : 1"
       inkscape:vp_z="1.0666667 : 0.53333333 : 1"
       inkscape:vp_y="0 : 1066.6666 : 0"
       inkscape:vp_x="0 : 0.53333333 : 1"
       sodipodi:type="inkscape:persp3d" />
    <inkscape:perspective
       id="perspective2911"
       inkscape:persp3d-origin="0.53333334 : 0.35555556 : 1"
       inkscape:vp_z="1.0666667 : 0.53333333 : 1"
       inkscape:vp_y="0 : 1066.6666 : 0"
       inkscape:vp_x="0 : 0.53333333 : 1"
       sodipodi:type="inkscape:persp3d" />
    <inkscape:perspective
       id="perspective3733"
       inkscape:persp3d-origin="0.53333334 : 0.35555556 : 1"
       inkscape:vp_z="1.0666667 : 0.53333333 : 1"
       inkscape:vp_y="0 : 1066.6666 : 0"
       inkscape:vp_x="0 : 0.53333333 : 1"
       sodipodi:type="inkscape:persp3d" />
    <inkscape:perspective
       id="perspective3789-2"
       inkscape:persp3d-origin="0.53333334 : 0.35555556 : 1"
       inkscape:vp_z="1.0666667 : 0.53333333 : 1"
       inkscape:vp_y="0 : 1066.6666 : 0"
       inkscape:vp_x="0 : 0.53333333 : 1"
       sodipodi:type="inkscape:persp3d" />
    <inkscape:perspective
       id="perspective3817"
       inkscape:persp3d-origin="0.53333334 : 0.35555556 : 1"
       inkscape:vp_z="1.0666667 : 0.53333333 : 1"
       inkscape:vp_y="0 : 1066.6666 : 0"
       inkscape:vp_x="0 : 0.53333333 : 1"
       sodipodi:type="inkscape:persp3d" />
    <inkscape:perspective
       id="perspective3817-5"
       inkscape:persp3d-origin="0.53333334 : 0.35555556 : 1"
       inkscape:vp_z="1.0666667 : 0.53333333 : 1"
       inkscape:vp_y="0 : 1066.6666 : 0"
       inkscape:vp_x="0 : 0.53333333 : 1"
       sodipodi:type="inkscape:persp3d" />
    <inkscape:perspective
       id="perspective3817-6"
       inkscape:persp3d-origin="0.53333334 : 0.35555556 : 1"
       inkscape:vp_z="1.0666667 : 0.53333333 : 1"
       inkscape:vp_y="0 : 1066.6666 : 0"
       inkscape:vp_x="0 : 0.53333333 : 1"
       sodipodi:type="inkscape:persp3d" />
    <inkscape:perspective
       id="perspective3817-2"
       inkscape:persp3d-origin="0.53333334 : 0.35555556 : 1"
       inkscape:vp_z="1.0666667 : 0.53333333 : 1"
       inkscape:vp_y="0 : 1066.6666 : 0"
       inkscape:vp_x="0 : 0.53333333 : 1"
       sodipodi:type="inkscape:persp3d" />
    <inkscape:perspective
       id="perspective3867"
       inkscape:persp3d-origin="0.53333334 : 0.35555556 : 1"
       inkscape:vp_z="1.0666667 : 0.53333333 : 1"
       inkscape:vp_y="0 : 1066.6666 : 0"
       inkscape:vp_x="0 : 0.53333333 : 1"
       sodipodi:type="inkscape:persp3d" />
    <inkscape:perspective
       id="perspective3680"
       inkscape:persp3d-origin="0.53333334 : 0.35555556 : 1"
       inkscape:vp_z="1.0666667 : 0.53333333 : 1"
       inkscape:vp_y="0 : 1066.6666 : 0"
       inkscape:vp_x="0 : 0.53333333 : 1"
       sodipodi:type="inkscape:persp3d" />
    <inkscape:perspective
       id="perspective3680-7"
       inkscape:persp3d-origin="0.53333334 : 0.35555556 : 1"
       inkscape:vp_z="1.0666667 : 0.53333333 : 1"
       inkscape:vp_y="0 : 1066.6666 : 0"
       inkscape:vp_x="0 : 0.53333333 : 1"
       sodipodi:type="inkscape:persp3d" />
    <inkscape:perspective
       id="perspective3713"
       inkscape:persp3d-origin="0.53333334 : 0.35555556 : 1"
       inkscape:vp_z="1.0666667 : 0.53333333 : 1"
       inkscape:vp_y="0 : 1066.6666 : 0"
       inkscape:vp_x="0 : 0.53333333 : 1"
       sodipodi:type="inkscape:persp3d" />
    <inkscape:perspective
       id="perspective3737"
       inkscape:persp3d-origin="0.53333334 : 0.35555556 : 1"
       inkscape:vp_z="1.0666667 : 0.53333333 : 1"
       inkscape:vp_y="0 : 1066.6666 : 0"
       inkscape:vp_x="0 : 0.53333333 : 1"
       sodipodi:type="inkscape:persp3d" />
    <inkscape:perspective
       id="perspective3737-0"
       inkscape:persp3d-origin="0.53333334 : 0.35555556 : 1"
       inkscape:vp_z="1.0666667 : 0.53333333 : 1"
       inkscape:vp_y="0 : 1066.6666 : 0"
       inkscape:vp_x="0 : 0.53333333 : 1"
       sodipodi:type="inkscape:persp3d" />
    <inkscape:perspective
       id="perspective3737-1"
       inkscape:persp3d-origin="0.53333334 : 0.35555556 : 1"
       inkscape:vp_z="1.0666667 : 0.53333333 : 1"
       inkscape:vp_y="0 : 1066.6666 : 0"
       inkscape:vp_x="0 : 0.53333333 : 1"
       sodipodi:type="inkscape:persp3d" />
    <inkscape:perspective
       id="perspective3737-5"
       inkscape:persp3d-origin="0.53333334 : 0.35555556 : 1"
       inkscape:vp_z="1.0666667 : 0.53333333 : 1"
       inkscape:vp_y="0 : 1066.6666 : 0"
       inkscape:vp_x="0 : 0.53333333 : 1"
       sodipodi:type="inkscape:persp3d" />
    <inkscape:perspective
       id="perspective3737-7"
       inkscape:persp3d-origin="0.53333334 : 0.35555556 : 1"
       inkscape:vp_z="1.0666667 : 0.53333333 : 1"
       inkscape:vp_y="0 : 1066.6666 : 0"
       inkscape:vp_x="0 : 0.53333333 : 1"
       sodipodi:type="inkscape:persp3d" />
    <inkscape:perspective
       id="perspective3802"
       inkscape:persp3d-origin="0.53333334 : 0.35555556 : 1"
       inkscape:vp_z="1.0666667 : 0.53333333 : 1"
       inkscape:vp_y="0 : 1066.6666 : 0"
       inkscape:vp_x="0 : 0.53333333 : 1"
       sodipodi:type="inkscape:persp3d" />
    <inkscape:perspective
       id="perspective3826"
       inkscape:persp3d-origin="0.53333334 : 0.35555556 : 1"
       inkscape:vp_z="1.0666667 : 0.53333333 : 1"
       inkscape:vp_y="0 : 1066.6666 : 0"
       inkscape:vp_x="0 : 0.53333333 : 1"
       sodipodi:type="inkscape:persp3d" />
    <inkscape:perspective
       id="perspective3826-4"
       inkscape:persp3d-origin="0.53333334 : 0.35555556 : 1"
       inkscape:vp_z="1.0666667 : 0.53333333 : 1"
       inkscape:vp_y="0 : 1066.6666 : 0"
       inkscape:vp_x="0 : 0.53333333 : 1"
       sodipodi:type="inkscape:persp3d" />
    <inkscape:perspective
       id="perspective3826-6"
       inkscape:persp3d-origin="0.53333334 : 0.35555556 : 1"
       inkscape:vp_z="1.0666667 : 0.53333333 : 1"
       inkscape:vp_y="0 : 1066.6666 : 0"
       inkscape:vp_x="0 : 0.53333333 : 1"
       sodipodi:type="inkscape:persp3d" />
    <inkscape:perspective
       id="perspective3866"
       inkscape:persp3d-origin="0.53333334 : 0.35555556 : 1"
       inkscape:vp_z="1.0666667 : 0.53333333 : 1"
       inkscape:vp_y="0 : 1066.6666 : 0"
       inkscape:vp_x="0 : 0.53333333 : 1"
       sodipodi:type="inkscape:persp3d" />
    <inkscape:perspective
       id="perspective3707"
       inkscape:persp3d-origin="0.53333334 : 0.35555556 : 1"
       inkscape:vp_z="1.0666667 : 0.53333333 : 1"
       inkscape:vp_y="0 : 1066.6666 : 0"
       inkscape:vp_x="0 : 0.53333333 : 1"
       sodipodi:type="inkscape:persp3d" />
    <inkscape:perspective
       id="perspective3933"
       inkscape:persp3d-origin="0.53333334 : 0.35555556 : 1"
       inkscape:vp_z="1.0666667 : 0.53333333 : 1"
       inkscape:vp_y="0 : 1066.6666 : 0"
       inkscape:vp_x="0 : 0.53333333 : 1"
       sodipodi:type="inkscape:persp3d" />
    <inkscape:perspective
       id="perspective3958"
       inkscape:persp3d-origin="0.53333334 : 0.35555556 : 1"
       inkscape:vp_z="1.0666667 : 0.53333333 : 1"
       inkscape:vp_y="0 : 1066.6666 : 0"
       inkscape:vp_x="0 : 0.53333333 : 1"
       sodipodi:type="inkscape:persp3d" />
    <inkscape:perspective
       id="perspective3980"
       inkscape:persp3d-origin="0.53333334 : 0.35555556 : 1"
       inkscape:vp_z="1.0666667 : 0.53333333 : 1"
       inkscape:vp_y="0 : 1066.6666 : 0"
       inkscape:vp_x="0 : 0.53333333 : 1"
       sodipodi:type="inkscape:persp3d" />
    <inkscape:perspective
       id="perspective4004"
       inkscape:persp3d-origin="0.53333334 : 0.35555556 : 1"
       inkscape:vp_z="1.0666667 : 0.53333333 : 1"
       inkscape:vp_y="0 : 1066.6666 : 0"
       inkscape:vp_x="0 : 0.53333333 : 1"
       sodipodi:type="inkscape:persp3d" />
    <inkscape:perspective
       id="perspective4026"
       inkscape:persp3d-origin="0.53333334 : 0.35555556 : 1"
       inkscape:vp_z="1.0666667 : 0.53333333 : 1"
       inkscape:vp_y="0 : 1066.6666 : 0"
       inkscape:vp_x="0 : 0.53333333 : 1"
       sodipodi:type="inkscape:persp3d" />
    <inkscape:perspective
       id="perspective4048"
       inkscape:persp3d-origin="0.53333334 : 0.35555556 : 1"
       inkscape:vp_z="1.0666667 : 0.53333333 : 1"
       inkscape:vp_y="0 : 1066.6666 : 0"
       inkscape:vp_x="0 : 0.53333333 : 1"
       sodipodi:type="inkscape:persp3d" />
    <inkscape:perspective
       id="perspective4071"
       inkscape:persp3d-origin="0.53333334 : 0.35555556 : 1"
       inkscape:vp_z="1.0666667 : 0.53333333 : 1"
       inkscape:vp_y="0 : 1066.6666 : 0"
       inkscape:vp_x="0 : 0.53333333 : 1"
       sodipodi:type="inkscape:persp3d" />
    <inkscape:perspective
       id="perspective4095"
       inkscape:persp3d-origin="0.53333334 : 0.35555556 : 1"
       inkscape:vp_z="1.0666667 : 0.53333333 : 1"
       inkscape:vp_y="0 : 1066.6666 : 0"
       inkscape:vp_x="0 : 0.53333333 : 1"
       sodipodi:type="inkscape:persp3d" />
    <inkscape:perspective
       id="perspective4117"
       inkscape:persp3d-origin="0.53333334 : 0.35555556 : 1"
       inkscape:vp_z="1.0666667 : 0.53333333 : 1"
       inkscape:vp_y="0 : 1066.6666 : 0"
       inkscape:vp_x="0 : 0.53333333 : 1"
       sodipodi:type="inkscape:persp3d" />
    <inkscape:perspective
       id="perspective4147"
       inkscape:persp3d-origin="0.53333334 : 0.35555556 : 1"
       inkscape:vp_z="1.0666667 : 0.53333333 : 1"
       inkscape:vp_y="0 : 1066.6666 : 0"
       inkscape:vp_x="0 : 0.53333333 : 1"
       sodipodi:type="inkscape:persp3d" />
    <inkscape:perspective
       id="perspective4181"
       inkscape:persp3d-origin="0.53333334 : 0.35555556 : 1"
       inkscape:vp_z="1.0666667 : 0.53333333 : 1"
       inkscape:vp_y="0 : 1066.6666 : 0"
       inkscape:vp_x="0 : 0.53333333 : 1"
       sodipodi:type="inkscape:persp3d" />
    <inkscape:perspective
       id="perspective4215"
       inkscape:persp3d-origin="0.53333334 : 0.35555556 : 1"
       inkscape:vp_z="1.0666667 : 0.53333333 : 1"
       inkscape:vp_y="0 : 1066.6666 : 0"
       inkscape:vp_x="0 : 0.53333333 : 1"
       sodipodi:type="inkscape:persp3d" />
    <inkscape:perspective
       id="perspective4267"
       inkscape:persp3d-origin="0.53333334 : 0.35555556 : 1"
       inkscape:vp_z="1.0666667 : 0.53333333 : 1"
       inkscape:vp_y="0 : 1066.6666 : 0"
       inkscape:vp_x="0 : 0.53333333 : 1"
       sodipodi:type="inkscape:persp3d" />
    <inkscape:perspective
       id="perspective4289"
       inkscape:persp3d-origin="0.53333334 : 0.35555556 : 1"
       inkscape:vp_z="1.0666667 : 0.53333333 : 1"
       inkscape:vp_y="0 : 1066.6666 : 0"
       inkscape:vp_x="0 : 0.53333333 : 1"
       sodipodi:type="inkscape:persp3d" />
    <inkscape:perspective
       id="perspective4343"
       inkscape:persp3d-origin="0.53333334 : 0.35555556 : 1"
       inkscape:vp_z="1.0666667 : 0.53333333 : 1"
       inkscape:vp_y="0 : 1066.6666 : 0"
       inkscape:vp_x="0 : 0.53333333 : 1"
       sodipodi:type="inkscape:persp3d" />
    <inkscape:perspective
       id="perspective4424"
       inkscape:persp3d-origin="0.53333334 : 0.35555556 : 1"
       inkscape:vp_z="1.0666667 : 0.53333333 : 1"
       inkscape:vp_y="0 : 1066.6666 : 0"
       inkscape:vp_x="0 : 0.53333333 : 1"
       sodipodi:type="inkscape:persp3d" />
    <inkscape:perspective
       id="perspective4468"
       inkscape:persp3d-origin="0.53333334 : 0.35555556 : 1"
       inkscape:vp_z="1.0666667 : 0.53333333 : 1"
       inkscape:vp_y="0 : 1066.6666 : 0"
       inkscape:vp_x="0 : 0.53333333 : 1"
       sodipodi:type="inkscape:persp3d" />
    <inkscape:perspective
       id="perspective4490"
       inkscape:persp3d-origin="0.53333334 : 0.35555556 : 1"
       inkscape:vp_z="1.0666667 : 0.53333333 : 1"
       inkscape:vp_y="0 : 1066.6666 : 0"
       inkscape:vp_x="0 : 0.53333333 : 1"
       sodipodi:type="inkscape:persp3d" />
    <inkscape:perspective
       id="perspective4513"
       inkscape:persp3d-origin="0.53333334 : 0.35555556 : 1"
       inkscape:vp_z="1.0666667 : 0.53333333 : 1"
       inkscape:vp_y="0 : 1066.6666 : 0"
       inkscape:vp_x="0 : 0.53333333 : 1"
       sodipodi:type="inkscape:persp3d" />
    <inkscape:perspective
       id="perspective4536"
       inkscape:persp3d-origin="0.53333334 : 0.35555556 : 1"
       inkscape:vp_z="1.0666667 : 0.53333333 : 1"
       inkscape:vp_y="0 : 1066.6666 : 0"
       inkscape:vp_x="0 : 0.53333333 : 1"
       sodipodi:type="inkscape:persp3d" />
    <inkscape:perspective
       id="perspective4561"
       inkscape:persp3d-origin="0.53333334 : 0.35555556 : 1"
       inkscape:vp_z="1.0666667 : 0.53333333 : 1"
       inkscape:vp_y="0 : 1066.6666 : 0"
       inkscape:vp_x="0 : 0.53333333 : 1"
       sodipodi:type="inkscape:persp3d" />
    <inkscape:perspective
       id="perspective4561-9"
       inkscape:persp3d-origin="0.53333334 : 0.35555556 : 1"
       inkscape:vp_z="1.0666667 : 0.53333333 : 1"
       inkscape:vp_y="0 : 1066.6666 : 0"
       inkscape:vp_x="0 : 0.53333333 : 1"
       sodipodi:type="inkscape:persp3d" />
    <inkscape:perspective
       id="perspective4615"
       inkscape:persp3d-origin="0.53333334 : 0.35555556 : 1"
       inkscape:vp_z="1.0666667 : 0.53333333 : 1"
       inkscape:vp_y="0 : 1066.6666 : 0"
       inkscape:vp_x="0 : 0.53333333 : 1"
       sodipodi:type="inkscape:persp3d" />
    <inkscape:perspective
       id="perspective4615-9"
       inkscape:persp3d-origin="0.53333334 : 0.35555556 : 1"
       inkscape:vp_z="1.0666667 : 0.53333333 : 1"
       inkscape:vp_y="0 : 1066.6666 : 0"
       inkscape:vp_x="0 : 0.53333333 : 1"
       sodipodi:type="inkscape:persp3d" />
    <inkscape:perspective
       id="perspective4648"
       inkscape:persp3d-origin="0.53333334 : 0.35555556 : 1"
       inkscape:vp_z="1.0666667 : 0.53333333 : 1"
       inkscape:vp_y="0 : 1066.6666 : 0"
       inkscape:vp_x="0 : 0.53333333 : 1"
       sodipodi:type="inkscape:persp3d" />
    <inkscape:perspective
       id="perspective4670"
       inkscape:persp3d-origin="0.53333334 : 0.35555556 : 1"
       inkscape:vp_z="1.0666667 : 0.53333333 : 1"
       inkscape:vp_y="0 : 1066.6666 : 0"
       inkscape:vp_x="0 : 0.53333333 : 1"
       sodipodi:type="inkscape:persp3d" />
    <inkscape:perspective
       id="perspective4697"
       inkscape:persp3d-origin="0.53333334 : 0.35555556 : 1"
       inkscape:vp_z="1.0666667 : 0.53333333 : 1"
       inkscape:vp_y="0 : 1066.6666 : 0"
       inkscape:vp_x="0 : 0.53333333 : 1"
       sodipodi:type="inkscape:persp3d" />
    <inkscape:perspective
       id="perspective4738"
       inkscape:persp3d-origin="0.53333334 : 0.35555556 : 1"
       inkscape:vp_z="1.0666667 : 0.53333333 : 1"
       inkscape:vp_y="0 : 1066.6666 : 0"
       inkscape:vp_x="0 : 0.53333333 : 1"
       sodipodi:type="inkscape:persp3d" />
    <inkscape:perspective
       id="perspective4858"
       inkscape:persp3d-origin="0.53333334 : 0.35555556 : 1"
       inkscape:vp_z="1.0666667 : 0.53333333 : 1"
       inkscape:vp_y="0 : 1066.6666 : 0"
       inkscape:vp_x="0 : 0.53333333 : 1"
       sodipodi:type="inkscape:persp3d" />
    <inkscape:perspective
       id="perspective4894"
       inkscape:persp3d-origin="0.53333334 : 0.35555556 : 1"
       inkscape:vp_z="1.0666667 : 0.53333333 : 1"
       inkscape:vp_y="0 : 1066.6666 : 0"
       inkscape:vp_x="0 : 0.53333333 : 1"
       sodipodi:type="inkscape:persp3d" />
    <inkscape:perspective
       id="perspective4894-2"
       inkscape:persp3d-origin="0.53333334 : 0.35555556 : 1"
       inkscape:vp_z="1.0666667 : 0.53333333 : 1"
       inkscape:vp_y="0 : 1066.6666 : 0"
       inkscape:vp_x="0 : 0.53333333 : 1"
       sodipodi:type="inkscape:persp3d" />
    <inkscape:perspective
       id="perspective4965"
       inkscape:persp3d-origin="0.53333334 : 0.35555556 : 1"
       inkscape:vp_z="1.0666667 : 0.53333333 : 1"
       inkscape:vp_y="0 : 1066.6666 : 0"
       inkscape:vp_x="0 : 0.53333333 : 1"
       sodipodi:type="inkscape:persp3d" />
    <inkscape:perspective
       id="perspective4987"
       inkscape:persp3d-origin="0.53333334 : 0.35555556 : 1"
       inkscape:vp_z="1.0666667 : 0.53333333 : 1"
       inkscape:vp_y="0 : 1066.6666 : 0"
       inkscape:vp_x="0 : 0.53333333 : 1"
       sodipodi:type="inkscape:persp3d" />
    <inkscape:perspective
       id="perspective5040"
       inkscape:persp3d-origin="0.53333334 : 0.35555556 : 1"
       inkscape:vp_z="1.0666667 : 0.53333333 : 1"
       inkscape:vp_y="0 : 1066.6666 : 0"
       inkscape:vp_x="0 : 0.53333333 : 1"
       sodipodi:type="inkscape:persp3d" />
    <inkscape:perspective
       id="perspective5074"
       inkscape:persp3d-origin="0.53333334 : 0.35555556 : 1"
       inkscape:vp_z="1.0666667 : 0.53333333 : 1"
       inkscape:vp_y="0 : 1066.6666 : 0"
       inkscape:vp_x="0 : 0.53333333 : 1"
       sodipodi:type="inkscape:persp3d" />
    <inkscape:perspective
       id="perspective5275"
       inkscape:persp3d-origin="0.53333334 : 0.35555556 : 1"
       inkscape:vp_z="1.0666667 : 0.53333333 : 1"
       inkscape:vp_y="0 : 1066.6666 : 0"
       inkscape:vp_x="0 : 0.53333333 : 1"
       sodipodi:type="inkscape:persp3d" />
    <inkscape:perspective
       id="perspective5275-7"
       inkscape:persp3d-origin="0.53333334 : 0.35555556 : 1"
       inkscape:vp_z="1.0666667 : 0.53333333 : 1"
       inkscape:vp_y="0 : 1066.6666 : 0"
       inkscape:vp_x="0 : 0.53333333 : 1"
       sodipodi:type="inkscape:persp3d" />
  </defs>
  <sodipodi:namedview
     id="base"
     pagecolor="#ffffff"
     bordercolor="#666666"
     borderopacity="1.0"
     inkscape:pageopacity="0.0"
     inkscape:pageshadow="2"
     inkscape:zoom="1"
     inkscape:cx="55.71343"
     inkscape:cy="296.88485"
     inkscape:document-units="px"
     inkscape:current-layer="g4635"
     showgrid="false"
     inkscape:snap-nodes="true"
     inkscape:window-width="1920"
     inkscape:window-height="1021"
     inkscape:window-x="0"
     inkscape:window-y="31"
     inkscape:window-maximized="1"
     inkscape:snap-page="false"
     borderlayer="true"
     fit-margin-top="0"
     fit-margin-left="0"
     fit-margin-right="0"
     fit-margin-bottom="0" />
  <metadata
     id="metadata7">
    <rdf:RDF>
      <cc:Work
         rdf:about="">
        <dc:format>image/svg+xml</dc:format>
        <dc:type
           rdf:resource="http://purl.org/dc/dcmitype/StillImage" />
        <dc:title></dc:title>
      </cc:Work>
    </rdf:RDF>
  </metadata>
  <g
     inkscape:label="Layer 1"
     inkscape:groupmode="layer"
     id="layer1"
     transform="translate(4.1293829e-6,-492.36214)">
    <g
       id="g4635">
      <g
         id="g3995">
        <rect
           y="492.36215"
           x="-4.1293829e-06"
           height="560"
           width="560"
           id="rect4594"
           style="fill:#ffffff;fill-opacity:1;fill-rule:evenodd;stroke:#858c81;stroke-width:0;stroke-miterlimit:4;stroke-opacity:0.42213117;stroke-dasharray:none" />
        <g
           id="g3990">
          <path
             style="fill:#141414;fill-opacity:1;stroke:none"
             d="m 83.999996,612.39114 v 119.52829 l 65.033094,40.44326 -65.033094,40.44315 v 119.5283 H 199.29412 v -80.70625 h 161.41177 v 80.70625 h 115.2941 v -119.5283 l -65.03306,-40.44315 65.03306,-40.44326 V 612.39114 h -115.2941 v 80.70638 H 199.29412 v -80.70638 z"
             id="rect2894-4-6"
             inkscape:connector-curvature="0" />
          <path
             inkscape:connector-curvature="0"
             style="fill:#009966;fill-opacity:1;stroke:none"
             d="m 216.58823,710.39171 v 4.77394 119.16818 h 23.05883 v -66.20461 l 28.82353,66.20461 h 23.05883 l 28.82353,-66.20461 v 66.20461 h 23.05882 V 715.16565 710.39171 H 320.35295 L 280,802.98788 239.64706,710.39171 z"
             id="rect3816-5-7" />
          <path
             style="fill:#cccccc;fill-opacity:1;stroke:none"
             d="m 141.64704,623.92061 c -3.18376,0 -5.76471,2.58099 -5.76471,5.76475 0,3.18379 2.58095,5.76475 5.76471,5.76475 3.18376,0 5.7647,-2.58096 5.7647,-5.76475 0,-3.18376 -2.58094,-5.76475 -5.7647,-5.76475 z m 276.70589,0 c -3.18376,0 -5.76469,2.58099 -5.76469,5.76475 0,3.18379 2.58093,5.76475 5.76469,5.76475 3.18376,0 5.76472,-2.58096 5.76472,-5.76475 0,-3.18376 -2.58096,-5.76475 -5.76472,-5.76475 z M 107.0588,646.97958 c -3.18376,0 -5.76471,2.58096 -5.76471,5.76472 0,2.68631 1.83693,4.94485 4.32354,5.58459 v 46.2981 l 99.44118,61.97098 h 5.31434 12.15993 c 0.63976,2.48659 2.89826,4.32353 5.58456,4.32353 3.18375,0 5.7647,-2.58096 5.7647,-5.76472 0,-3.18379 -2.58095,-5.76475 -5.7647,-5.76475 -2.6863,0 -4.9448,1.83691 -5.58456,4.32356 h -16.75369 l -97.27941,-60.70991 v -44.67679 c 2.4866,-0.63974 4.32353,-2.89828 4.32353,-5.58459 0,-3.18376 -2.58095,-5.76472 -5.76471,-5.76472 z m 23.05883,0 c -3.18376,0 -5.76471,2.58096 -5.76471,5.76472 0,2.68631 1.83692,4.94485 4.32353,5.58459 v 46.2981 l 76.38236,47.5591 h 5.40441 12.06986 c 0.63976,2.48662 2.89826,4.32356 5.58456,4.32356 3.18375,0 5.7647,-2.58096 5.7647,-5.76471 0,-3.18379 -2.58095,-5.76476 -5.7647,-5.76476 -2.6863,0 -4.9448,1.83695 -5.58456,4.32357 H 205.86947 L 131.5588,703.00568 v -44.67679 c 2.48661,-0.63974 4.32353,-2.89828 4.32353,-5.58459 0,-3.18376 -2.58094,-5.76472 -5.7647,-5.76472 z m 23.05882,0 c -3.18376,0 -5.76471,2.58096 -5.76471,5.76472 0,2.68631 1.83693,4.94485 4.32354,5.58459 v 46.2981 l 53.32353,33.14726 h 5.49448 11.97979 c 0.63976,2.48661 2.89826,4.32356 5.58456,4.32356 3.18375,0 5.7647,-2.58096 5.7647,-5.76475 0,-3.18376 -2.58095,-5.76472 -5.7647,-5.76472 -2.6863,0 -4.9448,1.83694 -5.58456,4.32356 h -16.57354 l -51.34191,-31.88622 v -44.67679 c 2.48661,-0.63974 4.32353,-2.89828 4.32353,-5.58459 0,-3.18376 -2.58095,-5.76472 -5.76471,-5.76472 z m 23.05883,0 c -3.18376,0 -5.76471,2.58096 -5.76471,5.76472 0,2.68631 1.83693,4.94485 4.32353,5.58459 v 46.2981 l 30.26471,18.73541 h 5.49448 11.97979 c 0.63976,2.48662 2.89826,4.32356 5.58456,4.32356 3.18375,0 5.7647,-2.58096 5.7647,-5.76475 0,-3.18376 -2.58095,-5.76472 -5.7647,-5.76472 -2.6863,0 -4.9448,1.83695 -5.58456,4.32357 h -16.66361 l -28.19301,-17.47438 v -44.67679 c 2.4866,-0.63974 4.32352,-2.89828 4.32352,-5.58459 0,-3.18376 -2.58094,-5.76472 -5.7647,-5.76472 z m 207.52942,0 c -3.18376,0 -5.76471,2.58096 -5.76471,5.76472 0,2.68631 1.83692,4.94485 4.32354,5.58459 v 44.67679 l -28.19302,17.47438 h -16.6636 c -0.63979,-2.48662 -2.89827,-4.32357 -5.58456,-4.32357 -3.18377,0 -5.76471,2.58096 -5.76471,5.76472 0,3.18379 2.58094,5.76475 5.76471,5.76475 2.68629,0 4.94477,-1.83694 5.58456,-4.32356 h 11.97977 5.49449 l 30.26471,-18.73541 v -46.2981 c 2.48661,-0.63974 4.32353,-2.89828 4.32353,-5.58459 0,-3.18376 -2.58096,-5.76472 -5.76471,-5.76472 z m 23.05883,0 c -3.18376,0 -5.76471,2.58096 -5.76471,5.76472 0,2.68631 1.83691,4.94485 4.32353,5.58459 v 44.67679 l -51.34192,31.88622 h -16.57352 c -0.63979,-2.48662 -2.89827,-4.32356 -5.58456,-4.32356 -3.18377,0 -5.76471,2.58096 -5.76471,5.76472 0,3.18379 2.58094,5.76475 5.76471,5.76475 2.68629,0 4.94477,-1.83695 5.58456,-4.32356 h 11.97977 5.49449 l 53.32354,-33.14726 v -46.2981 c 2.48662,-0.63974 4.32353,-2.89828 4.32353,-5.58459 0,-3.18376 -2.58097,-5.76472 -5.76471,-5.76472 z m 23.05884,0 c -3.18376,0 -5.76472,2.58096 -5.76472,5.76472 0,2.68631 1.83691,4.94485 4.32353,5.58459 v 44.67679 l -74.31067,46.29807 h -16.6636 c -0.63979,-2.48662 -2.89827,-4.32357 -5.58456,-4.32357 -3.18377,0 -5.76471,2.58097 -5.76471,5.76476 0,3.18375 2.58094,5.76471 5.76471,5.76471 2.68629,0 4.94477,-1.83694 5.58456,-4.32356 h 12.06985 5.40441 l 76.38235,-47.5591 v -46.2981 c 2.48662,-0.63974 4.32353,-2.89828 4.32353,-5.58459 0,-3.18376 -2.58096,-5.76472 -5.76468,-5.76472 z m 23.05881,0 c -3.18376,0 -5.76472,2.58096 -5.76472,5.76472 0,2.68631 1.83691,4.94485 4.32353,5.58459 v 44.67679 l -97.27941,60.70991 h -16.75367 c -0.63979,-2.48665 -2.89827,-4.32356 -5.58456,-4.32356 -3.18377,0 -5.76471,2.58096 -5.76471,5.76475 0,3.18376 2.58094,5.76472 5.76471,5.76472 2.68629,0 4.94477,-1.83694 5.58456,-4.32353 h 12.15992 5.31434 l 99.4412,-61.97098 v -46.2981 c 2.48658,-0.63974 4.32353,-2.89828 4.32353,-5.58459 0,-3.18376 -2.58096,-5.76472 -5.76472,-5.76472 z m -345.88238,2.88237 c 1.59187,0 2.88235,1.2905 2.88235,2.88235 0,1.59191 -1.29048,2.8824 -2.88235,2.8824 -1.59186,0 -2.88235,-1.29049 -2.88235,-2.8824 0,-1.59185 1.29049,-2.88235 2.88235,-2.88235 z m 23.05883,0 c 1.59186,0 2.88235,1.2905 2.88235,2.88235 0,1.59191 -1.29049,2.8824 -2.88235,2.8824 -1.59187,0 -2.88235,-1.29049 -2.88235,-2.8824 0,-1.59185 1.29048,-2.88235 2.88235,-2.88235 z m 23.05882,0 c 1.59187,0 2.88235,1.2905 2.88235,2.88235 0,1.59191 -1.29048,2.8824 -2.88235,2.8824 -1.59187,0 -2.88235,-1.29049 -2.88235,-2.8824 0,-1.59185 1.29048,-2.88235 2.88235,-2.88235 z m 23.05883,0 c 1.59186,0 2.88235,1.2905 2.88235,2.88235 0,1.59191 -1.29049,2.8824 -2.88235,2.8824 -1.59187,0 -2.88236,-1.29049 -2.88236,-2.8824 0,-1.59185 1.29049,-2.88235 2.88236,-2.88235 z m 207.52942,0 c 1.59185,0 2.88235,1.2905 2.88235,2.88235 0,1.59191 -1.2905,2.8824 -2.88235,2.8824 -1.59187,0 -2.88235,-1.29049 -2.88235,-2.8824 0,-1.59185 1.29048,-2.88235 2.88235,-2.88235 z m 23.05883,0 c 1.59185,0 2.88235,1.2905 2.88235,2.88235 0,1.59191 -1.2905,2.8824 -2.88235,2.8824 -1.59188,0 -2.88236,-1.29049 -2.88236,-2.8824 0,-1.59185 1.29048,-2.88235 2.88236,-2.88235 z m 23.05884,0 c 1.59184,0 2.88234,1.2905 2.88234,2.88235 0,1.59191 -1.2905,2.8824 -2.88234,2.8824 -1.59188,0 -2.88238,-1.29049 -2.88238,-2.8824 0,-1.59185 1.2905,-2.88235 2.88238,-2.88235 z m 23.05881,0 c 1.59185,0 2.88234,1.2905 2.88234,2.88235 0,1.59191 -1.29049,2.8824 -2.88234,2.8824 -1.59188,0 -2.88234,-1.29049 -2.88234,-2.8824 0,-1.59185 1.29046,-2.88235 2.88234,-2.88235 z m -224.82354,69.17689 c 1.59186,0 2.88235,1.29053 2.88235,2.88237 0,1.59188 -1.29049,2.88235 -2.88235,2.88235 -1.59187,0 -2.88236,-1.29047 -2.88236,-2.88235 0,-1.59184 1.29049,-2.88237 2.88236,-2.88237 z m 103.76471,0 c 1.59185,0 2.88235,1.29053 2.88235,2.88237 0,1.59188 -1.2905,2.88235 -2.88235,2.88235 -1.59188,0 -2.88236,-1.29047 -2.88236,-2.88235 0,-1.59184 1.29048,-2.88237 2.88236,-2.88237 z m -103.76471,14.41184 c 1.59186,0 2.88235,1.29053 2.88235,2.88238 0,1.59188 -1.29049,2.88237 -2.88235,2.88237 -1.59187,0 -2.88236,-1.29049 -2.88236,-2.88237 0,-1.59185 1.29049,-2.88238 2.88236,-2.88238 z m 103.76471,0 c 1.59185,0 2.88235,1.29053 2.88235,2.88238 0,1.59188 -1.2905,2.88237 -2.88235,2.88237 -1.59188,0 -2.88236,-1.29049 -2.88236,-2.88237 0,-1.59185 1.29048,-2.88238 2.88236,-2.88238 z m -103.76471,14.41185 c 1.59186,0 2.88235,1.29053 2.88235,2.88241 0,1.59184 -1.29049,2.88234 -2.88235,2.88234 -1.59187,0 -2.88236,-1.2905 -2.88236,-2.88234 0,-1.59188 1.29049,-2.88241 2.88236,-2.88241 z m 103.76471,0 c 1.59185,0 2.88235,1.29053 2.88235,2.88241 0,1.59184 -1.2905,2.88234 -2.88235,2.88234 -1.59188,0 -2.88236,-1.2905 -2.88236,-2.88234 0,-1.59188 1.29048,-2.88241 2.88236,-2.88241 z m -103.76471,14.41188 c 1.59186,0 2.88235,1.29049 2.88235,2.88237 0,1.59188 -1.29049,2.88238 -2.88235,2.88238 -1.59187,0 -2.88236,-1.2905 -2.88236,-2.88238 0,-1.59188 1.29049,-2.88237 2.88236,-2.88237 z m 103.76471,0 c 1.59185,0 2.88235,1.29049 2.88235,2.88237 0,1.59188 -1.2905,2.88238 -2.88235,2.88238 -1.59188,0 -2.88236,-1.2905 -2.88236,-2.88238 0,-1.59188 1.29048,-2.88237 2.88236,-2.88237 z m -103.76471,11.5295 c -2.6863,0 -4.9448,1.83691 -5.58456,4.32356 h -12.15993 -5.31434 l -99.44118,61.97104 v 46.29814 c -2.48661,0.63961 -4.32354,2.89818 -4.32354,5.58436 0,3.18402 2.58095,5.76469 5.76471,5.76469 3.18376,0 5.76471,-2.58067 5.76471,-5.76469 0,-2.68618 -1.83693,-4.94475 -4.32353,-5.58436 v -44.67656 l 97.27941,-60.71028 h 16.75369 c 0.63976,2.48662 2.89826,4.32357 5.58456,4.32357 3.18375,0 5.7647,-2.58096 5.7647,-5.76475 0,-3.18376 -2.58095,-5.76472 -5.7647,-5.76472 z m 103.76471,0 c -3.18377,0 -5.76471,2.58096 -5.76471,5.76472 0,3.18379 2.58094,5.76475 5.76471,5.76475 2.68629,0 4.94477,-1.83695 5.58456,-4.32357 h 16.75367 l 97.27941,60.71028 v 44.67656 c -2.48662,0.63961 -4.32353,2.89818 -4.32353,5.58436 0,3.18402 2.58096,5.76469 5.76472,5.76469 3.18376,0 5.76472,-2.58067 5.76472,-5.76469 0,-2.68618 -1.83695,-4.94475 -4.32353,-5.58436 v -46.29814 l -99.4412,-61.97104 h -5.31434 -12.15992 c -0.63979,-2.48665 -2.89827,-4.32356 -5.58456,-4.32356 z m -103.76471,2.88234 c 1.59186,0 2.88235,1.29046 2.88235,2.88238 0,1.59188 -1.29049,2.88237 -2.88235,2.88237 -1.59187,0 -2.88236,-1.29049 -2.88236,-2.88237 0,-1.59192 1.29049,-2.88238 2.88236,-2.88238 z m 103.76471,0 c 1.59185,0 2.88235,1.29046 2.88235,2.88238 0,1.59188 -1.2905,2.88237 -2.88235,2.88237 -1.59188,0 -2.88236,-1.29049 -2.88236,-2.88237 0,-1.59192 1.29048,-2.88238 2.88236,-2.88238 z m -103.76471,11.5295 c -2.6863,0 -4.9448,1.83692 -5.58456,4.32357 h -12.06986 -5.40441 l -76.38236,47.55919 v 46.29814 c -2.48661,0.63961 -4.32353,2.89818 -4.32353,5.58436 0,3.18402 2.58095,5.76469 5.76471,5.76469 3.18376,0 5.7647,-2.58067 5.7647,-5.76469 0,-2.68618 -1.83692,-4.94475 -4.32353,-5.58436 v -44.67656 l 74.31067,-46.29843 h 16.66361 c 0.63976,2.48655 2.89826,4.3234 5.58456,4.3234 3.18375,0 5.7647,-2.5808 5.7647,-5.76459 0,-3.18376 -2.58095,-5.76472 -5.7647,-5.76472 z m 103.76471,0 c -3.18377,0 -5.76471,2.58096 -5.76471,5.76472 0,3.18379 2.58094,5.76459 5.76471,5.76459 2.68629,0 4.94477,-1.83685 5.58456,-4.3234 h 16.6636 l 74.31067,46.29843 v 44.67656 c -2.48662,0.63961 -4.32353,2.89818 -4.32353,5.58436 0,3.18402 2.58096,5.76469 5.76472,5.76469 3.18372,0 5.76468,-2.58067 5.76468,-5.76469 0,-2.68618 -1.83691,-4.94475 -4.32353,-5.58436 v -46.29814 l -76.38235,-47.55919 h -5.40441 -12.06985 c -0.63979,-2.48665 -2.89827,-4.32357 -5.58456,-4.32357 z m -103.76471,2.88235 c 1.59186,0 2.88235,1.29049 2.88235,2.88237 0,1.59188 -1.29049,2.88241 -2.88235,2.88241 -1.59187,0 -2.88236,-1.29053 -2.88236,-2.88241 0,-1.59188 1.29049,-2.88237 2.88236,-2.88237 z m 103.76471,0 c 1.59185,0 2.88235,1.29049 2.88235,2.88237 0,1.59188 -1.2905,2.88241 -2.88235,2.88241 -1.59188,0 -2.88236,-1.29053 -2.88236,-2.88241 0,-1.59188 1.29048,-2.88237 2.88236,-2.88237 z m -103.76471,11.52947 c -2.6863,0 -4.9448,1.83684 -5.58456,4.32376 h -11.97979 -5.49448 l -53.32353,33.14718 v 46.29814 c -2.48661,0.63961 -4.32354,2.89818 -4.32354,5.58436 0,3.18402 2.58095,5.76469 5.76471,5.76469 3.18376,0 5.76471,-2.58067 5.76471,-5.76469 0,-2.68618 -1.83692,-4.94475 -4.32353,-5.58436 v -44.67656 l 51.34191,-31.88659 h 16.57354 c 0.63976,2.48659 2.89826,4.32376 5.58456,4.32376 3.18375,0 5.7647,-2.58132 5.7647,-5.76501 0,-3.18369 -2.58095,-5.76468 -5.7647,-5.76468 z m 103.76471,0 c -3.18377,0 -5.76471,2.58099 -5.76471,5.76468 0,3.18369 2.58094,5.76501 5.76471,5.76501 2.68629,0 4.94477,-1.83717 5.58456,-4.32376 h 16.57352 l 51.34192,31.88659 v 44.67656 c -2.48662,0.63961 -4.32353,2.89818 -4.32353,5.58436 0,3.18402 2.58095,5.76469 5.76471,5.76469 3.18374,0 5.76471,-2.58067 5.76471,-5.76469 0,-2.68618 -1.83691,-4.94475 -4.32353,-5.58436 v -46.29814 l -53.32354,-33.14718 h -5.49449 -11.97977 c -0.63979,-2.48692 -2.89827,-4.32376 -5.58456,-4.32376 z m -103.76471,2.8825 c 1.59186,0 2.88235,1.29034 2.88235,2.88218 0,1.59217 -1.29049,2.88218 -2.88235,2.88218 -1.59187,0 -2.88236,-1.29001 -2.88236,-2.88218 0,-1.59184 1.29049,-2.88218 2.88236,-2.88218 z m 103.76471,0 c 1.59185,0 2.88235,1.29034 2.88235,2.88218 0,1.59217 -1.2905,2.88218 -2.88235,2.88218 -1.59188,0 -2.88236,-1.29001 -2.88236,-2.88218 0,-1.59184 1.29048,-2.88218 2.88236,-2.88218 z m -103.76471,11.5297 c -2.6863,0 -4.9448,1.83652 -5.58456,4.32311 h -11.97979 -5.49448 l -30.26471,18.73563 v 46.29814 c -2.4866,0.63961 -4.32353,2.89818 -4.32353,5.58436 0,3.18402 2.58095,5.76469 5.76471,5.76469 3.18376,0 5.7647,-2.58067 5.7647,-5.76469 0,-2.68618 -1.83692,-4.94475 -4.32352,-5.58436 v -44.67656 l 28.19301,-17.47471 h 16.66361 c 0.63976,2.48659 2.89826,4.32376 5.58456,4.32376 3.18375,0 5.7647,-2.58132 5.7647,-5.76468 0,-3.18402 -2.58095,-5.76469 -5.7647,-5.76469 z m 103.76471,0 c -3.18377,0 -5.76471,2.58067 -5.76471,5.76469 0,3.18336 2.58094,5.76468 5.76471,5.76468 2.68629,0 4.94477,-1.83717 5.58456,-4.32376 h 16.6636 l 28.19302,17.47471 v 44.67656 c -2.48662,0.63961 -4.32354,2.89818 -4.32354,5.58436 0,3.18402 2.58095,5.76469 5.76471,5.76469 3.18375,0 5.76471,-2.58067 5.76471,-5.76469 0,-2.68618 -1.83692,-4.94475 -4.32353,-5.58436 v -46.29814 l -30.26471,-18.73563 h -5.49449 -11.97977 c -0.63979,-2.48659 -2.89827,-4.32311 -5.58456,-4.32311 z m -103.76471,2.88218 c 1.59186,0 2.88235,1.29033 2.88235,2.88251 0,1.59152 -1.29049,2.88218 -2.88235,2.88218 -1.59187,0 -2.88236,-1.29066 -2.88236,-2.88218 0,-1.59218 1.29049,-2.88251 2.88236,-2.88251 z m 103.76471,0 c 1.59185,0 2.88235,1.29033 2.88235,2.88251 0,1.59152 -1.2905,2.88218 -2.88235,2.88218 -1.59188,0 -2.88236,-1.29066 -2.88236,-2.88218 0,-1.59218 1.29048,-2.88251 2.88236,-2.88251 z M 107.0588,889.09883 c 1.59187,0 2.88235,1.29034 2.88235,2.88218 0,1.59185 -1.29048,2.88251 -2.88235,2.88251 -1.59186,0 -2.88235,-1.29066 -2.88235,-2.88251 0,-1.59184 1.29049,-2.88218 2.88235,-2.88218 z m 23.05883,0 c 1.59186,0 2.88235,1.29034 2.88235,2.88218 0,1.59185 -1.29049,2.88251 -2.88235,2.88251 -1.59187,0 -2.88235,-1.29066 -2.88235,-2.88251 0,-1.59184 1.29048,-2.88218 2.88235,-2.88218 z m 23.05882,0 c 1.59187,0 2.88235,1.29034 2.88235,2.88218 0,1.59185 -1.29048,2.88251 -2.88235,2.88251 -1.59187,0 -2.88235,-1.29066 -2.88235,-2.88251 0,-1.59184 1.29048,-2.88218 2.88235,-2.88218 z m 23.05883,0 c 1.59186,0 2.88235,1.29034 2.88235,2.88218 0,1.59185 -1.29049,2.88251 -2.88235,2.88251 -1.59187,0 -2.88236,-1.29066 -2.88236,-2.88251 0,-1.59184 1.29049,-2.88218 2.88236,-2.88218 z m 207.52942,0 c 1.59185,0 2.88235,1.29034 2.88235,2.88218 0,1.59185 -1.2905,2.88251 -2.88235,2.88251 -1.59187,0 -2.88235,-1.29066 -2.88235,-2.88251 0,-1.59184 1.29048,-2.88218 2.88235,-2.88218 z m 23.05883,0 c 1.59185,0 2.88235,1.29034 2.88235,2.88218 0,1.59185 -1.2905,2.88251 -2.88235,2.88251 -1.59188,0 -2.88236,-1.29066 -2.88236,-2.88251 0,-1.59184 1.29048,-2.88218 2.88236,-2.88218 z m 23.05884,0 c 1.59184,0 2.88234,1.29034 2.88234,2.88218 0,1.59185 -1.2905,2.88251 -2.88234,2.88251 -1.59188,0 -2.88238,-1.29066 -2.88238,-2.88251 0,-1.59184 1.2905,-2.88218 2.88238,-2.88218 z m 23.05881,0 c 1.59185,0 2.88234,1.29034 2.88234,2.88218 0,1.59185 -1.29049,2.88251 -2.88234,2.88251 -1.59188,0 -2.88234,-1.29066 -2.88234,-2.88251 0,-1.59184 1.29046,-2.88218 2.88234,-2.88218 z M 141.64704,909.2754 c -3.18376,0 -5.76471,2.58099 -5.76471,5.76468 0,3.1837 2.58095,5.76469 5.76471,5.76469 3.18376,0 5.7647,-2.58099 5.7647,-5.76469 0,-3.18369 -2.58094,-5.76468 -5.7647,-5.76468 z m 276.70589,0 c -3.18376,0 -5.76469,2.58099 -5.76469,5.76468 0,3.1837 2.58093,5.76469 5.76469,5.76469 3.18376,0 5.76472,-2.58099 5.76472,-5.76469 0,-3.18369 -2.58096,-5.76468 -5.76472,-5.76468 z"
             id="path2898-9-5-5"
             inkscape:connector-curvature="0" />
        </g>
      </g>
    </g>
  </g>
</svg>
