<?xml version="1.0" encoding="UTF-8" standalone="no"?>
<!-- Created with Inkscape (http://www.inkscape.org/) -->

<svg
   xmlns:dc="http://purl.org/dc/elements/1.1/"
   xmlns:cc="http://creativecommons.org/ns#"
   xmlns:rdf="http://www.w3.org/1999/02/22-rdf-syntax-ns#"
   xmlns:svg="http://www.w3.org/2000/svg"
   xmlns="http://www.w3.org/2000/svg"
   xmlns:sodipodi="http://sodipodi.sourceforge.net/DTD/sodipodi-0.dtd"
   xmlns:inkscape="http://www.inkscape.org/namespaces/inkscape"
   width="560"
   height="560"
   id="mhs_logo_black"
   version="1.1"
   inkscape:version="0.48.5 r10040"
   sodipodi:docname="logo_favicon_mal.svg"
   inkscape:export-filename="logo_favicon_mal.png"
   inkscape:export-xdpi="96"
   inkscape:export-ydpi="96"
   viewBox="0 0 560 560">
  <defs
     id="defs4">
    <inkscape:perspective
       sodipodi:type="inkscape:persp3d"
       inkscape:vp_x="0 : 561.25983 : 1"
       inkscape:vp_y="0 : 1066.6666 : 0"
       inkscape:vp_z="793.70078 : 561.25983 : 1"
       inkscape:persp3d-origin="396.85039 : 374.17323 : 1"
       id="perspective10" />
    <inkscape:perspective
       id="perspective3608"
       inkscape:persp3d-origin="0.53333334 : 0.35555556 : 1"
       inkscape:vp_z="1.0666667 : 0.53333333 : 1"
       inkscape:vp_y="0 : 1066.6666 : 0"
       inkscape:vp_x="0 : 0.53333333 : 1"
       sodipodi:type="inkscape:persp3d" />
    <inkscape:perspective
       id="perspective3608-7"
       inkscape:persp3d-origin="0.53333334 : 0.35555556 : 1"
       inkscape:vp_z="1.0666667 : 0.53333333 : 1"
       inkscape:vp_y="0 : 1066.6666 : 0"
       inkscape:vp_x="0 : 0.53333333 : 1"
       sodipodi:type="inkscape:persp3d" />
    <inkscape:perspective
       id="perspective3608-6"
       inkscape:persp3d-origin="0.53333334 : 0.35555556 : 1"
       inkscape:vp_z="1.0666667 : 0.53333333 : 1"
       inkscape:vp_y="0 : 1066.6666 : 0"
       inkscape:vp_x="0 : 0.53333333 : 1"
       sodipodi:type="inkscape:persp3d" />
    <inkscape:perspective
       id="perspective3669"
       inkscape:persp3d-origin="0.53333334 : 0.35555556 : 1"
       inkscape:vp_z="1.0666667 : 0.53333333 : 1"
       inkscape:vp_y="0 : 1066.6666 : 0"
       inkscape:vp_x="0 : 0.53333333 : 1"
       sodipodi:type="inkscape:persp3d" />
    <inkscape:perspective
       id="perspective3767"
       inkscape:persp3d-origin="0.53333334 : 0.35555556 : 1"
       inkscape:vp_z="1.0666667 : 0.53333333 : 1"
       inkscape:vp_y="0 : 1066.6666 : 0"
       inkscape:vp_x="0 : 0.53333333 : 1"
       sodipodi:type="inkscape:persp3d" />
    <inkscape:perspective
       id="perspective3789"
       inkscape:persp3d-origin="0.53333334 : 0.35555556 : 1"
       inkscape:vp_z="1.0666667 : 0.53333333 : 1"
       inkscape:vp_y="0 : 1066.6666 : 0"
       inkscape:vp_x="0 : 0.53333333 : 1"
       sodipodi:type="inkscape:persp3d" />
    <inkscape:perspective
       id="perspective3811"
       inkscape:persp3d-origin="0.53333334 : 0.35555556 : 1"
       inkscape:vp_z="1.0666667 : 0.53333333 : 1"
       inkscape:vp_y="0 : 1066.6666 : 0"
       inkscape:vp_x="0 : 0.53333333 : 1"
       sodipodi:type="inkscape:persp3d" />
    <inkscape:perspective
       id="perspective3833"
       inkscape:persp3d-origin="0.53333334 : 0.35555556 : 1"
       inkscape:vp_z="1.0666667 : 0.53333333 : 1"
       inkscape:vp_y="0 : 1066.6666 : 0"
       inkscape:vp_x="0 : 0.53333333 : 1"
       sodipodi:type="inkscape:persp3d" />
    <inkscape:perspective
       id="perspective3862"
       inkscape:persp3d-origin="0.53333334 : 0.35555556 : 1"
       inkscape:vp_z="1.0666667 : 0.53333333 : 1"
       inkscape:vp_y="0 : 1066.6666 : 0"
       inkscape:vp_x="0 : 0.53333333 : 1"
       sodipodi:type="inkscape:persp3d" />
    <inkscape:perspective
       id="perspective3884"
       inkscape:persp3d-origin="0.53333334 : 0.35555556 : 1"
       inkscape:vp_z="1.0666667 : 0.53333333 : 1"
       inkscape:vp_y="0 : 1066.6666 : 0"
       inkscape:vp_x="0 : 0.53333333 : 1"
       sodipodi:type="inkscape:persp3d" />
    <inkscape:perspective
       id="perspective3912"
       inkscape:persp3d-origin="0.53333334 : 0.35555556 : 1"
       inkscape:vp_z="1.0666667 : 0.53333333 : 1"
       inkscape:vp_y="0 : 1066.6666 : 0"
       inkscape:vp_x="0 : 0.53333333 : 1"
       sodipodi:type="inkscape:persp3d" />
    <inkscape:perspective
       id="perspective3955"
       inkscape:persp3d-origin="0.53333334 : 0.35555556 : 1"
       inkscape:vp_z="1.0666667 : 0.53333333 : 1"
       inkscape:vp_y="0 : 1066.6666 : 0"
       inkscape:vp_x="0 : 0.53333333 : 1"
       sodipodi:type="inkscape:persp3d" />
    <inkscape:perspective
       id="perspective4011"
       inkscape:persp3d-origin="0.53333334 : 0.35555556 : 1"
       inkscape:vp_z="1.0666667 : 0.53333333 : 1"
       inkscape:vp_y="0 : 1066.6666 : 0"
       inkscape:vp_x="0 : 0.53333333 : 1"
       sodipodi:type="inkscape:persp3d" />
    <inkscape:perspective
       id="perspective4050"
       inkscape:persp3d-origin="0.53333334 : 0.35555556 : 1"
       inkscape:vp_z="1.0666667 : 0.53333333 : 1"
       inkscape:vp_y="0 : 1066.6666 : 0"
       inkscape:vp_x="0 : 0.53333333 : 1"
       sodipodi:type="inkscape:persp3d" />
    <inkscape:perspective
       id="perspective4084"
       inkscape:persp3d-origin="0.53333334 : 0.35555556 : 1"
       inkscape:vp_z="1.0666667 : 0.53333333 : 1"
       inkscape:vp_y="0 : 1066.6666 : 0"
       inkscape:vp_x="0 : 0.53333333 : 1"
       sodipodi:type="inkscape:persp3d" />
    <inkscape:perspective
       id="perspective4118"
       inkscape:persp3d-origin="0.53333334 : 0.35555556 : 1"
       inkscape:vp_z="1.0666667 : 0.53333333 : 1"
       inkscape:vp_y="0 : 1066.6666 : 0"
       inkscape:vp_x="0 : 0.53333333 : 1"
       sodipodi:type="inkscape:persp3d" />
    <inkscape:perspective
       id="perspective4152"
       inkscape:persp3d-origin="0.53333334 : 0.35555556 : 1"
       inkscape:vp_z="1.0666667 : 0.53333333 : 1"
       inkscape:vp_y="0 : 1066.6666 : 0"
       inkscape:vp_x="0 : 0.53333333 : 1"
       sodipodi:type="inkscape:persp3d" />
    <inkscape:perspective
       id="perspective4175"
       inkscape:persp3d-origin="0.53333334 : 0.35555556 : 1"
       inkscape:vp_z="1.0666667 : 0.53333333 : 1"
       inkscape:vp_y="0 : 1066.6666 : 0"
       inkscape:vp_x="0 : 0.53333333 : 1"
       sodipodi:type="inkscape:persp3d" />
    <inkscape:perspective
       id="perspective4197"
       inkscape:persp3d-origin="0.53333334 : 0.35555556 : 1"
       inkscape:vp_z="1.0666667 : 0.53333333 : 1"
       inkscape:vp_y="0 : 1066.6666 : 0"
       inkscape:vp_x="0 : 0.53333333 : 1"
       sodipodi:type="inkscape:persp3d" />
    <inkscape:perspective
       id="perspective4222"
       inkscape:persp3d-origin="0.53333334 : 0.35555556 : 1"
       inkscape:vp_z="1.0666667 : 0.53333333 : 1"
       inkscape:vp_y="0 : 1066.6666 : 0"
       inkscape:vp_x="0 : 0.53333333 : 1"
       sodipodi:type="inkscape:persp3d" />
    <inkscape:perspective
       id="perspective4263"
       inkscape:persp3d-origin="0.53333334 : 0.35555556 : 1"
       inkscape:vp_z="1.0666667 : 0.53333333 : 1"
       inkscape:vp_y="0 : 1066.6666 : 0"
       inkscape:vp_x="0 : 0.53333333 : 1"
       sodipodi:type="inkscape:persp3d" />
    <inkscape:perspective
       id="perspective4297"
       inkscape:persp3d-origin="0.53333334 : 0.35555556 : 1"
       inkscape:vp_z="1.0666667 : 0.53333333 : 1"
       inkscape:vp_y="0 : 1066.6666 : 0"
       inkscape:vp_x="0 : 0.53333333 : 1"
       sodipodi:type="inkscape:persp3d" />
    <inkscape:perspective
       id="perspective4321"
       inkscape:persp3d-origin="0.53333334 : 0.35555556 : 1"
       inkscape:vp_z="1.0666667 : 0.53333333 : 1"
       inkscape:vp_y="0 : 1066.6666 : 0"
       inkscape:vp_x="0 : 0.53333333 : 1"
       sodipodi:type="inkscape:persp3d" />
    <inkscape:perspective
       id="perspective4345"
       inkscape:persp3d-origin="0.53333334 : 0.35555556 : 1"
       inkscape:vp_z="1.0666667 : 0.53333333 : 1"
       inkscape:vp_y="0 : 1066.6666 : 0"
       inkscape:vp_x="0 : 0.53333333 : 1"
       sodipodi:type="inkscape:persp3d" />
    <inkscape:perspective
       id="perspective4367"
       inkscape:persp3d-origin="0.53333334 : 0.35555556 : 1"
       inkscape:vp_z="1.0666667 : 0.53333333 : 1"
       inkscape:vp_y="0 : 1066.6666 : 0"
       inkscape:vp_x="0 : 0.53333333 : 1"
       sodipodi:type="inkscape:persp3d" />
    <inkscape:perspective
       id="perspective4415"
       inkscape:persp3d-origin="0.53333334 : 0.35555556 : 1"
       inkscape:vp_z="1.0666667 : 0.53333333 : 1"
       inkscape:vp_y="0 : 1066.6666 : 0"
       inkscape:vp_x="0 : 0.53333333 : 1"
       sodipodi:type="inkscape:persp3d" />
    <inkscape:perspective
       id="perspective4461"
       inkscape:persp3d-origin="0.53333334 : 0.35555556 : 1"
       inkscape:vp_z="1.0666667 : 0.53333333 : 1"
       inkscape:vp_y="0 : 1066.6666 : 0"
       inkscape:vp_x="0 : 0.53333333 : 1"
       sodipodi:type="inkscape:persp3d" />
    <inkscape:perspective
       id="perspective4515"
       inkscape:persp3d-origin="0.53333334 : 0.35555556 : 1"
       inkscape:vp_z="1.0666667 : 0.53333333 : 1"
       inkscape:vp_y="0 : 1066.6666 : 0"
       inkscape:vp_x="0 : 0.53333333 : 1"
       sodipodi:type="inkscape:persp3d" />
    <inkscape:perspective
       id="perspective4578"
       inkscape:persp3d-origin="0.53333334 : 0.35555556 : 1"
       inkscape:vp_z="1.0666667 : 0.53333333 : 1"
       inkscape:vp_y="0 : 1066.6666 : 0"
       inkscape:vp_x="0 : 0.53333333 : 1"
       sodipodi:type="inkscape:persp3d" />
    <inkscape:perspective
       id="perspective4600"
       inkscape:persp3d-origin="0.53333334 : 0.35555556 : 1"
       inkscape:vp_z="1.0666667 : 0.53333333 : 1"
       inkscape:vp_y="0 : 1066.6666 : 0"
       inkscape:vp_x="0 : 0.53333333 : 1"
       sodipodi:type="inkscape:persp3d" />
    <inkscape:perspective
       id="perspective4600-3"
       inkscape:persp3d-origin="0.53333334 : 0.35555556 : 1"
       inkscape:vp_z="1.0666667 : 0.53333333 : 1"
       inkscape:vp_y="0 : 1066.6666 : 0"
       inkscape:vp_x="0 : 0.53333333 : 1"
       sodipodi:type="inkscape:persp3d" />
    <inkscape:perspective
       id="perspective2828"
       inkscape:persp3d-origin="0.53333334 : 0.35555556 : 1"
       inkscape:vp_z="1.0666667 : 0.53333333 : 1"
       inkscape:vp_y="0 : 1066.6666 : 0"
       inkscape:vp_x="0 : 0.53333333 : 1"
       sodipodi:type="inkscape:persp3d" />
    <inkscape:perspective
       id="perspective2948"
       inkscape:persp3d-origin="0.53333334 : 0.35555556 : 1"
       inkscape:vp_z="1.0666667 : 0.53333333 : 1"
       inkscape:vp_y="0 : 1066.6666 : 0"
       inkscape:vp_x="0 : 0.53333333 : 1"
       sodipodi:type="inkscape:persp3d" />
    <inkscape:perspective
       id="perspective2889"
       inkscape:persp3d-origin="0.53333334 : 0.35555556 : 1"
       inkscape:vp_z="1.0666667 : 0.53333333 : 1"
       inkscape:vp_y="0 : 1066.6666 : 0"
       inkscape:vp_x="0 : 0.53333333 : 1"
       sodipodi:type="inkscape:persp3d" />
    <inkscape:perspective
       id="perspective2911"
       inkscape:persp3d-origin="0.53333334 : 0.35555556 : 1"
       inkscape:vp_z="1.0666667 : 0.53333333 : 1"
       inkscape:vp_y="0 : 1066.6666 : 0"
       inkscape:vp_x="0 : 0.53333333 : 1"
       sodipodi:type="inkscape:persp3d" />
    <inkscape:perspective
       id="perspective3733"
       inkscape:persp3d-origin="0.53333334 : 0.35555556 : 1"
       inkscape:vp_z="1.0666667 : 0.53333333 : 1"
       inkscape:vp_y="0 : 1066.6666 : 0"
       inkscape:vp_x="0 : 0.53333333 : 1"
       sodipodi:type="inkscape:persp3d" />
    <inkscape:perspective
       id="perspective3789-2"
       inkscape:persp3d-origin="0.53333334 : 0.35555556 : 1"
       inkscape:vp_z="1.0666667 : 0.53333333 : 1"
       inkscape:vp_y="0 : 1066.6666 : 0"
       inkscape:vp_x="0 : 0.53333333 : 1"
       sodipodi:type="inkscape:persp3d" />
    <inkscape:perspective
       id="perspective3817"
       inkscape:persp3d-origin="0.53333334 : 0.35555556 : 1"
       inkscape:vp_z="1.0666667 : 0.53333333 : 1"
       inkscape:vp_y="0 : 1066.6666 : 0"
       inkscape:vp_x="0 : 0.53333333 : 1"
       sodipodi:type="inkscape:persp3d" />
    <inkscape:perspective
       id="perspective3817-5"
       inkscape:persp3d-origin="0.53333334 : 0.35555556 : 1"
       inkscape:vp_z="1.0666667 : 0.53333333 : 1"
       inkscape:vp_y="0 : 1066.6666 : 0"
       inkscape:vp_x="0 : 0.53333333 : 1"
       sodipodi:type="inkscape:persp3d" />
    <inkscape:perspective
       id="perspective3817-6"
       inkscape:persp3d-origin="0.53333334 : 0.35555556 : 1"
       inkscape:vp_z="1.0666667 : 0.53333333 : 1"
       inkscape:vp_y="0 : 1066.6666 : 0"
       inkscape:vp_x="0 : 0.53333333 : 1"
       sodipodi:type="inkscape:persp3d" />
    <inkscape:perspective
       id="perspective3817-2"
       inkscape:persp3d-origin="0.53333334 : 0.35555556 : 1"
       inkscape:vp_z="1.0666667 : 0.53333333 : 1"
       inkscape:vp_y="0 : 1066.6666 : 0"
       inkscape:vp_x="0 : 0.53333333 : 1"
       sodipodi:type="inkscape:persp3d" />
    <inkscape:perspective
       id="perspective3867"
       inkscape:persp3d-origin="0.53333334 : 0.35555556 : 1"
       inkscape:vp_z="1.0666667 : 0.53333333 : 1"
       inkscape:vp_y="0 : 1066.6666 : 0"
       inkscape:vp_x="0 : 0.53333333 : 1"
       sodipodi:type="inkscape:persp3d" />
    <inkscape:perspective
       id="perspective3680"
       inkscape:persp3d-origin="0.53333334 : 0.35555556 : 1"
       inkscape:vp_z="1.0666667 : 0.53333333 : 1"
       inkscape:vp_y="0 : 1066.6666 : 0"
       inkscape:vp_x="0 : 0.53333333 : 1"
       sodipodi:type="inkscape:persp3d" />
    <inkscape:perspective
       id="perspective3680-7"
       inkscape:persp3d-origin="0.53333334 : 0.35555556 : 1"
       inkscape:vp_z="1.0666667 : 0.53333333 : 1"
       inkscape:vp_y="0 : 1066.6666 : 0"
       inkscape:vp_x="0 : 0.53333333 : 1"
       sodipodi:type="inkscape:persp3d" />
    <inkscape:perspective
       id="perspective3713"
       inkscape:persp3d-origin="0.53333334 : 0.35555556 : 1"
       inkscape:vp_z="1.0666667 : 0.53333333 : 1"
       inkscape:vp_y="0 : 1066.6666 : 0"
       inkscape:vp_x="0 : 0.53333333 : 1"
       sodipodi:type="inkscape:persp3d" />
    <inkscape:perspective
       id="perspective3737"
       inkscape:persp3d-origin="0.53333334 : 0.35555556 : 1"
       inkscape:vp_z="1.0666667 : 0.53333333 : 1"
       inkscape:vp_y="0 : 1066.6666 : 0"
       inkscape:vp_x="0 : 0.53333333 : 1"
       sodipodi:type="inkscape:persp3d" />
    <inkscape:perspective
       id="perspective3737-0"
       inkscape:persp3d-origin="0.53333334 : 0.35555556 : 1"
       inkscape:vp_z="1.0666667 : 0.53333333 : 1"
       inkscape:vp_y="0 : 1066.6666 : 0"
       inkscape:vp_x="0 : 0.53333333 : 1"
       sodipodi:type="inkscape:persp3d" />
    <inkscape:perspective
       id="perspective3737-1"
       inkscape:persp3d-origin="0.53333334 : 0.35555556 : 1"
       inkscape:vp_z="1.0666667 : 0.53333333 : 1"
       inkscape:vp_y="0 : 1066.6666 : 0"
       inkscape:vp_x="0 : 0.53333333 : 1"
       sodipodi:type="inkscape:persp3d" />
    <inkscape:perspective
       id="perspective3737-5"
       inkscape:persp3d-origin="0.53333334 : 0.35555556 : 1"
       inkscape:vp_z="1.0666667 : 0.53333333 : 1"
       inkscape:vp_y="0 : 1066.6666 : 0"
       inkscape:vp_x="0 : 0.53333333 : 1"
       sodipodi:type="inkscape:persp3d" />
    <inkscape:perspective
       id="perspective3737-7"
       inkscape:persp3d-origin="0.53333334 : 0.35555556 : 1"
       inkscape:vp_z="1.0666667 : 0.53333333 : 1"
       inkscape:vp_y="0 : 1066.6666 : 0"
       inkscape:vp_x="0 : 0.53333333 : 1"
       sodipodi:type="inkscape:persp3d" />
    <inkscape:perspective
       id="perspective3802"
       inkscape:persp3d-origin="0.53333334 : 0.35555556 : 1"
       inkscape:vp_z="1.0666667 : 0.53333333 : 1"
       inkscape:vp_y="0 : 1066.6666 : 0"
       inkscape:vp_x="0 : 0.53333333 : 1"
       sodipodi:type="inkscape:persp3d" />
    <inkscape:perspective
       id="perspective3826"
       inkscape:persp3d-origin="0.53333334 : 0.35555556 : 1"
       inkscape:vp_z="1.0666667 : 0.53333333 : 1"
       inkscape:vp_y="0 : 1066.6666 : 0"
       inkscape:vp_x="0 : 0.53333333 : 1"
       sodipodi:type="inkscape:persp3d" />
    <inkscape:perspective
       id="perspective3826-4"
       inkscape:persp3d-origin="0.53333334 : 0.35555556 : 1"
       inkscape:vp_z="1.0666667 : 0.53333333 : 1"
       inkscape:vp_y="0 : 1066.6666 : 0"
       inkscape:vp_x="0 : 0.53333333 : 1"
       sodipodi:type="inkscape:persp3d" />
    <inkscape:perspective
       id="perspective3826-6"
       inkscape:persp3d-origin="0.53333334 : 0.35555556 : 1"
       inkscape:vp_z="1.0666667 : 0.53333333 : 1"
       inkscape:vp_y="0 : 1066.6666 : 0"
       inkscape:vp_x="0 : 0.53333333 : 1"
       sodipodi:type="inkscape:persp3d" />
    <inkscape:perspective
       id="perspective3866"
       inkscape:persp3d-origin="0.53333334 : 0.35555556 : 1"
       inkscape:vp_z="1.0666667 : 0.53333333 : 1"
       inkscape:vp_y="0 : 1066.6666 : 0"
       inkscape:vp_x="0 : 0.53333333 : 1"
       sodipodi:type="inkscape:persp3d" />
    <inkscape:perspective
       id="perspective3707"
       inkscape:persp3d-origin="0.53333334 : 0.35555556 : 1"
       inkscape:vp_z="1.0666667 : 0.53333333 : 1"
       inkscape:vp_y="0 : 1066.6666 : 0"
       inkscape:vp_x="0 : 0.53333333 : 1"
       sodipodi:type="inkscape:persp3d" />
    <inkscape:perspective
       id="perspective3933"
       inkscape:persp3d-origin="0.53333334 : 0.35555556 : 1"
       inkscape:vp_z="1.0666667 : 0.53333333 : 1"
       inkscape:vp_y="0 : 1066.6666 : 0"
       inkscape:vp_x="0 : 0.53333333 : 1"
       sodipodi:type="inkscape:persp3d" />
    <inkscape:perspective
       id="perspective3958"
       inkscape:persp3d-origin="0.53333334 : 0.35555556 : 1"
       inkscape:vp_z="1.0666667 : 0.53333333 : 1"
       inkscape:vp_y="0 : 1066.6666 : 0"
       inkscape:vp_x="0 : 0.53333333 : 1"
       sodipodi:type="inkscape:persp3d" />
    <inkscape:perspective
       id="perspective3980"
       inkscape:persp3d-origin="0.53333334 : 0.35555556 : 1"
       inkscape:vp_z="1.0666667 : 0.53333333 : 1"
       inkscape:vp_y="0 : 1066.6666 : 0"
       inkscape:vp_x="0 : 0.53333333 : 1"
       sodipodi:type="inkscape:persp3d" />
    <inkscape:perspective
       id="perspective4004"
       inkscape:persp3d-origin="0.53333334 : 0.35555556 : 1"
       inkscape:vp_z="1.0666667 : 0.53333333 : 1"
       inkscape:vp_y="0 : 1066.6666 : 0"
       inkscape:vp_x="0 : 0.53333333 : 1"
       sodipodi:type="inkscape:persp3d" />
    <inkscape:perspective
       id="perspective4026"
       inkscape:persp3d-origin="0.53333334 : 0.35555556 : 1"
       inkscape:vp_z="1.0666667 : 0.53333333 : 1"
       inkscape:vp_y="0 : 1066.6666 : 0"
       inkscape:vp_x="0 : 0.53333333 : 1"
       sodipodi:type="inkscape:persp3d" />
    <inkscape:perspective
       id="perspective4048"
       inkscape:persp3d-origin="0.53333334 : 0.35555556 : 1"
       inkscape:vp_z="1.0666667 : 0.53333333 : 1"
       inkscape:vp_y="0 : 1066.6666 : 0"
       inkscape:vp_x="0 : 0.53333333 : 1"
       sodipodi:type="inkscape:persp3d" />
    <inkscape:perspective
       id="perspective4071"
       inkscape:persp3d-origin="0.53333334 : 0.35555556 : 1"
       inkscape:vp_z="1.0666667 : 0.53333333 : 1"
       inkscape:vp_y="0 : 1066.6666 : 0"
       inkscape:vp_x="0 : 0.53333333 : 1"
       sodipodi:type="inkscape:persp3d" />
    <inkscape:perspective
       id="perspective4095"
       inkscape:persp3d-origin="0.53333334 : 0.35555556 : 1"
       inkscape:vp_z="1.0666667 : 0.53333333 : 1"
       inkscape:vp_y="0 : 1066.6666 : 0"
       inkscape:vp_x="0 : 0.53333333 : 1"
       sodipodi:type="inkscape:persp3d" />
    <inkscape:perspective
       id="perspective4117"
       inkscape:persp3d-origin="0.53333334 : 0.35555556 : 1"
       inkscape:vp_z="1.0666667 : 0.53333333 : 1"
       inkscape:vp_y="0 : 1066.6666 : 0"
       inkscape:vp_x="0 : 0.53333333 : 1"
       sodipodi:type="inkscape:persp3d" />
    <inkscape:perspective
       id="perspective4147"
       inkscape:persp3d-origin="0.53333334 : 0.35555556 : 1"
       inkscape:vp_z="1.0666667 : 0.53333333 : 1"
       inkscape:vp_y="0 : 1066.6666 : 0"
       inkscape:vp_x="0 : 0.53333333 : 1"
       sodipodi:type="inkscape:persp3d" />
    <inkscape:perspective
       id="perspective4181"
       inkscape:persp3d-origin="0.53333334 : 0.35555556 : 1"
       inkscape:vp_z="1.0666667 : 0.53333333 : 1"
       inkscape:vp_y="0 : 1066.6666 : 0"
       inkscape:vp_x="0 : 0.53333333 : 1"
       sodipodi:type="inkscape:persp3d" />
    <inkscape:perspective
       id="perspective4215"
       inkscape:persp3d-origin="0.53333334 : 0.35555556 : 1"
       inkscape:vp_z="1.0666667 : 0.53333333 : 1"
       inkscape:vp_y="0 : 1066.6666 : 0"
       inkscape:vp_x="0 : 0.53333333 : 1"
       sodipodi:type="inkscape:persp3d" />
    <inkscape:perspective
       id="perspective4267"
       inkscape:persp3d-origin="0.53333334 : 0.35555556 : 1"
       inkscape:vp_z="1.0666667 : 0.53333333 : 1"
       inkscape:vp_y="0 : 1066.6666 : 0"
       inkscape:vp_x="0 : 0.53333333 : 1"
       sodipodi:type="inkscape:persp3d" />
    <inkscape:perspective
       id="perspective4289"
       inkscape:persp3d-origin="0.53333334 : 0.35555556 : 1"
       inkscape:vp_z="1.0666667 : 0.53333333 : 1"
       inkscape:vp_y="0 : 1066.6666 : 0"
       inkscape:vp_x="0 : 0.53333333 : 1"
       sodipodi:type="inkscape:persp3d" />
    <inkscape:perspective
       id="perspective4343"
       inkscape:persp3d-origin="0.53333334 : 0.35555556 : 1"
       inkscape:vp_z="1.0666667 : 0.53333333 : 1"
       inkscape:vp_y="0 : 1066.6666 : 0"
       inkscape:vp_x="0 : 0.53333333 : 1"
       sodipodi:type="inkscape:persp3d" />
    <inkscape:perspective
       id="perspective4424"
       inkscape:persp3d-origin="0.53333334 : 0.35555556 : 1"
       inkscape:vp_z="1.0666667 : 0.53333333 : 1"
       inkscape:vp_y="0 : 1066.6666 : 0"
       inkscape:vp_x="0 : 0.53333333 : 1"
       sodipodi:type="inkscape:persp3d" />
    <inkscape:perspective
       id="perspective4468"
       inkscape:persp3d-origin="0.53333334 : 0.35555556 : 1"
       inkscape:vp_z="1.0666667 : 0.53333333 : 1"
       inkscape:vp_y="0 : 1066.6666 : 0"
       inkscape:vp_x="0 : 0.53333333 : 1"
       sodipodi:type="inkscape:persp3d" />
    <inkscape:perspective
       id="perspective4490"
       inkscape:persp3d-origin="0.53333334 : 0.35555556 : 1"
       inkscape:vp_z="1.0666667 : 0.53333333 : 1"
       inkscape:vp_y="0 : 1066.6666 : 0"
       inkscape:vp_x="0 : 0.53333333 : 1"
       sodipodi:type="inkscape:persp3d" />
    <inkscape:perspective
       id="perspective4513"
       inkscape:persp3d-origin="0.53333334 : 0.35555556 : 1"
       inkscape:vp_z="1.0666667 : 0.53333333 : 1"
       inkscape:vp_y="0 : 1066.6666 : 0"
       inkscape:vp_x="0 : 0.53333333 : 1"
       sodipodi:type="inkscape:persp3d" />
    <inkscape:perspective
       id="perspective4536"
       inkscape:persp3d-origin="0.53333334 : 0.35555556 : 1"
       inkscape:vp_z="1.0666667 : 0.53333333 : 1"
       inkscape:vp_y="0 : 1066.6666 : 0"
       inkscape:vp_x="0 : 0.53333333 : 1"
       sodipodi:type="inkscape:persp3d" />
    <inkscape:perspective
       id="perspective4561"
       inkscape:persp3d-origin="0.53333334 : 0.35555556 : 1"
       inkscape:vp_z="1.0666667 : 0.53333333 : 1"
       inkscape:vp_y="0 : 1066.6666 : 0"
       inkscape:vp_x="0 : 0.53333333 : 1"
       sodipodi:type="inkscape:persp3d" />
    <inkscape:perspective
       id="perspective4561-9"
       inkscape:persp3d-origin="0.53333334 : 0.35555556 : 1"
       inkscape:vp_z="1.0666667 : 0.53333333 : 1"
       inkscape:vp_y="0 : 1066.6666 : 0"
       inkscape:vp_x="0 : 0.53333333 : 1"
       sodipodi:type="inkscape:persp3d" />
    <inkscape:perspective
       id="perspective4615"
       inkscape:persp3d-origin="0.53333334 : 0.35555556 : 1"
       inkscape:vp_z="1.0666667 : 0.53333333 : 1"
       inkscape:vp_y="0 : 1066.6666 : 0"
       inkscape:vp_x="0 : 0.53333333 : 1"
       sodipodi:type="inkscape:persp3d" />
    <inkscape:perspective
       id="perspective4615-9"
       inkscape:persp3d-origin="0.53333334 : 0.35555556 : 1"
       inkscape:vp_z="1.0666667 : 0.53333333 : 1"
       inkscape:vp_y="0 : 1066.6666 : 0"
       inkscape:vp_x="0 : 0.53333333 : 1"
       sodipodi:type="inkscape:persp3d" />
    <inkscape:perspective
       id="perspective4648"
       inkscape:persp3d-origin="0.53333334 : 0.35555556 : 1"
       inkscape:vp_z="1.0666667 : 0.53333333 : 1"
       inkscape:vp_y="0 : 1066.6666 : 0"
       inkscape:vp_x="0 : 0.53333333 : 1"
       sodipodi:type="inkscape:persp3d" />
    <inkscape:perspective
       id="perspective4670"
       inkscape:persp3d-origin="0.53333334 : 0.35555556 : 1"
       inkscape:vp_z="1.0666667 : 0.53333333 : 1"
       inkscape:vp_y="0 : 1066.6666 : 0"
       inkscape:vp_x="0 : 0.53333333 : 1"
       sodipodi:type="inkscape:persp3d" />
    <inkscape:perspective
       id="perspective4697"
       inkscape:persp3d-origin="0.53333334 : 0.35555556 : 1"
       inkscape:vp_z="1.0666667 : 0.53333333 : 1"
       inkscape:vp_y="0 : 1066.6666 : 0"
       inkscape:vp_x="0 : 0.53333333 : 1"
       sodipodi:type="inkscape:persp3d" />
    <inkscape:perspective
       id="perspective4738"
       inkscape:persp3d-origin="0.53333334 : 0.35555556 : 1"
       inkscape:vp_z="1.0666667 : 0.53333333 : 1"
       inkscape:vp_y="0 : 1066.6666 : 0"
       inkscape:vp_x="0 : 0.53333333 : 1"
       sodipodi:type="inkscape:persp3d" />
    <inkscape:perspective
       id="perspective4858"
       inkscape:persp3d-origin="0.53333334 : 0.35555556 : 1"
       inkscape:vp_z="1.0666667 : 0.53333333 : 1"
       inkscape:vp_y="0 : 1066.6666 : 0"
       inkscape:vp_x="0 : 0.53333333 : 1"
       sodipodi:type="inkscape:persp3d" />
    <inkscape:perspective
       id="perspective4894"
       inkscape:persp3d-origin="0.53333334 : 0.35555556 : 1"
       inkscape:vp_z="1.0666667 : 0.53333333 : 1"
       inkscape:vp_y="0 : 1066.6666 : 0"
       inkscape:vp_x="0 : 0.53333333 : 1"
       sodipodi:type="inkscape:persp3d" />
    <inkscape:perspective
       id="perspective4894-2"
       inkscape:persp3d-origin="0.53333334 : 0.35555556 : 1"
       inkscape:vp_z="1.0666667 : 0.53333333 : 1"
       inkscape:vp_y="0 : 1066.6666 : 0"
       inkscape:vp_x="0 : 0.53333333 : 1"
       sodipodi:type="inkscape:persp3d" />
    <inkscape:perspective
       id="perspective4965"
       inkscape:persp3d-origin="0.53333334 : 0.35555556 : 1"
       inkscape:vp_z="1.0666667 : 0.53333333 : 1"
       inkscape:vp_y="0 : 1066.6666 : 0"
       inkscape:vp_x="0 : 0.53333333 : 1"
       sodipodi:type="inkscape:persp3d" />
    <inkscape:perspective
       id="perspective4987"
       inkscape:persp3d-origin="0.53333334 : 0.35555556 : 1"
       inkscape:vp_z="1.0666667 : 0.53333333 : 1"
       inkscape:vp_y="0 : 1066.6666 : 0"
       inkscape:vp_x="0 : 0.53333333 : 1"
       sodipodi:type="inkscape:persp3d" />
    <inkscape:perspective
       id="perspective5040"
       inkscape:persp3d-origin="0.53333334 : 0.35555556 : 1"
       inkscape:vp_z="1.0666667 : 0.53333333 : 1"
       inkscape:vp_y="0 : 1066.6666 : 0"
       inkscape:vp_x="0 : 0.53333333 : 1"
       sodipodi:type="inkscape:persp3d" />
    <inkscape:perspective
       id="perspective5074"
       inkscape:persp3d-origin="0.53333334 : 0.35555556 : 1"
       inkscape:vp_z="1.0666667 : 0.53333333 : 1"
       inkscape:vp_y="0 : 1066.6666 : 0"
       inkscape:vp_x="0 : 0.53333333 : 1"
       sodipodi:type="inkscape:persp3d" />
    <inkscape:perspective
       id="perspective5275"
       inkscape:persp3d-origin="0.53333334 : 0.35555556 : 1"
       inkscape:vp_z="1.0666667 : 0.53333333 : 1"
       inkscape:vp_y="0 : 1066.6666 : 0"
       inkscape:vp_x="0 : 0.53333333 : 1"
       sodipodi:type="inkscape:persp3d" />
    <inkscape:perspective
       id="perspective5275-7"
       inkscape:persp3d-origin="0.53333334 : 0.35555556 : 1"
       inkscape:vp_z="1.0666667 : 0.53333333 : 1"
       inkscape:vp_y="0 : 1066.6666 : 0"
       inkscape:vp_x="0 : 0.53333333 : 1"
       sodipodi:type="inkscape:persp3d" />
  </defs>
  <sodipodi:namedview
     id="base"
     pagecolor="#ffffff"
     bordercolor="#666666"
     borderopacity="1.0"
     inkscape:pageopacity="0.0"
     inkscape:pageshadow="2"
     inkscape:zoom="1"
     inkscape:cx="254.21343"
     inkscape:cy="296.88485"
     inkscape:document-units="px"
     inkscape:current-layer="g4635"
     showgrid="false"
     inkscape:snap-nodes="true"
     inkscape:window-width="1920"
     inkscape:window-height="1021"
     inkscape:window-x="0"
     inkscape:window-y="31"
     inkscape:window-maximized="1"
     inkscape:snap-page="false"
     borderlayer="true"
     fit-margin-top="0"
     fit-margin-left="0"
     fit-margin-right="0"
     fit-margin-bottom="0" />
  <metadata
     id="metadata7">
    <rdf:RDF>
      <cc:Work
         rdf:about="">
        <dc:format>image/svg+xml</dc:format>
        <dc:type
           rdf:resource="http://purl.org/dc/dcmitype/StillImage" />
        <dc:title></dc:title>
      </cc:Work>
    </rdf:RDF>
  </metadata>
  <g
     inkscape:label="Layer 1"
     inkscape:groupmode="layer"
     id="layer1"
     transform="translate(4.1293829e-6,-492.36214)">
    <g
       id="g4635">
      <g
         id="g6510">
        <rect
           y="492.36215"
           x="-4.1293829e-06"
           height="560"
           width="560"
           id="rect4594"
           style="fill:#ffffff;fill-opacity:1;fill-rule:evenodd;stroke:#858c81;stroke-width:0;stroke-miterlimit:4;stroke-opacity:0.42213117;stroke-dasharray:none" />
        <g
           transform="matrix(3.2666668,0,0,3.2666662,84.000009,-2469.3535)"
           id="g4970">
          <path
             style="fill:#141414;fill-opacity:1;stroke:none"
             d="m -4.1293829e-6,943.39135 v 36.5903 L 19.908084,992.36224 -4.1293829e-6,1004.7428 v 36.5903 H 35.294113 v -24.706 h 49.411766 v 24.706 h 35.294111 v -36.5903 l -19.90808,-12.38056 19.90808,-12.38059 v -36.5903 H 84.705879 v 24.70604 H 35.294113 v -24.70604 z"
             id="rect2894-4-6"
             inkscape:connector-curvature="0" />
          <path
             inkscape:connector-curvature="0"
             style="fill:#cc0066;fill-opacity:1;stroke:none"
             d="m 40.58823,973.39153 v 1.46141 36.48006 h 7.058824 v -20.26672 l 8.823531,20.26672 h 7.058823 l 8.823529,-20.26672 v 20.26672 h 7.058823 v -36.48006 -1.46141 H 72.352937 L 59.999996,1001.7373 47.647054,973.39153 z"
             id="rect3816-5-7" />
          <path
             style="fill:#cccccc;fill-opacity:1;stroke:none"
             d="m 17.647049,946.92078 c -0.97462,0 -1.764706,0.7901 -1.764706,1.76472 0,0.97463 0.790086,1.76472 1.764706,1.76472 0.97462,0 1.764706,-0.79009 1.764706,-1.76472 0,-0.97462 -0.790086,-1.76472 -1.764706,-1.76472 z m 84.705881,0 c -0.97462,0 -1.7647,0.7901 -1.7647,1.76472 0,0.97463 0.79008,1.76472 1.7647,1.76472 0.97462,0 1.76471,-0.79009 1.76471,-1.76472 0,-0.97462 -0.79009,-1.76472 -1.76471,-1.76472 z m -95.2941163,7.05887 c -0.9746206,0 -1.764706,0.79009 -1.764706,1.76471 0,0.82234 0.5623236,1.51373 1.3235296,1.70957 v 14.17289 l 30.4411777,18.97071 h 1.626838 3.722427 c 0.195847,0.7612 0.887223,1.32353 1.709559,1.32353 0.97462,0 1.764705,-0.79009 1.764705,-1.76471 0,-0.97463 -0.790085,-1.76472 -1.764705,-1.76472 -0.822336,0 -1.513712,0.56232 -1.709559,1.32354 H 37.279402 L 7.4999902,971.1305 v -13.67657 c 0.7612054,-0.19584 1.3235294,-0.88723 1.3235294,-1.70957 0,-0.97462 -0.7900857,-1.76471 -1.7647059,-1.76471 z m 7.0588243,0 c -0.97462,0 -1.764706,0.79009 -1.764706,1.76471 0,0.82234 0.562323,1.51373 1.323529,1.70957 v 14.17289 l 23.382354,14.55891 h 1.654412 3.694853 c 0.195847,0.76121 0.887223,1.32354 1.709559,1.32354 0.97462,0 1.764705,-0.79009 1.764705,-1.76471 0,-0.97463 -0.790085,-1.76472 -1.764705,-1.76472 -0.822336,0 -1.513712,0.56233 -1.709559,1.32354 H 37.306977 L 14.558814,971.1305 v -13.67657 c 0.761205,-0.19584 1.323529,-0.88723 1.323529,-1.70957 0,-0.97462 -0.790085,-1.76471 -1.764705,-1.76471 z m 7.058823,0 c -0.97462,0 -1.764706,0.79009 -1.764706,1.76471 0,0.82234 0.562325,1.51373 1.32353,1.70957 v 14.17289 l 16.32353,10.14712 h 1.681985 3.66728 c 0.195847,0.76121 0.887223,1.32354 1.709559,1.32354 0.97462,0 1.764705,-0.79009 1.764705,-1.76472 0,-0.97462 -0.790085,-1.76471 -1.764705,-1.76471 -0.822336,0 -1.513712,0.56233 -1.709559,1.32354 H 37.33455 L 21.617638,971.1305 v -13.67657 c 0.761206,-0.19584 1.323529,-0.88723 1.323529,-1.70957 0,-0.97462 -0.790086,-1.76471 -1.764706,-1.76471 z m 7.058824,0 c -0.974621,0 -1.764706,0.79009 -1.764706,1.76471 0,0.82234 0.562324,1.51373 1.32353,1.70957 v 14.17289 l 9.264706,5.73533 h 1.681985 3.66728 c 0.195847,0.76121 0.887223,1.32354 1.709559,1.32354 0.97462,0 1.764705,-0.79009 1.764705,-1.76472 0,-0.97462 -0.790085,-1.76471 -1.764705,-1.76471 -0.822336,0 -1.513712,0.56233 -1.709559,1.32354 h -5.101103 l -8.630515,-5.3493 v -13.67657 c 0.761205,-0.19584 1.323528,-0.88723 1.323528,-1.70957 0,-0.97462 -0.790084,-1.76471 -1.764705,-1.76471 z m 63.529413,0 c -0.97462,0 -1.764706,0.79009 -1.764706,1.76471 0,0.82234 0.56232,1.51373 1.32353,1.70957 v 13.67657 l -8.630515,5.3493 h -5.101103 c -0.195852,-0.76121 -0.887224,-1.32354 -1.709559,-1.32354 -0.974621,0 -1.764706,0.79009 -1.764706,1.76471 0,0.97463 0.790085,1.76472 1.764706,1.76472 0.822335,0 1.513707,-0.56233 1.709559,-1.32354 h 3.667279 1.681986 l 9.264706,-5.73533 v -14.17289 c 0.761206,-0.19584 1.323529,-0.88723 1.323529,-1.70957 0,-0.97462 -0.790089,-1.76471 -1.764706,-1.76471 z m 7.058824,0 c -0.97462,0 -1.764706,0.79009 -1.764706,1.76471 0,0.82234 0.562319,1.51373 1.32353,1.70957 v 13.67657 l -15.716913,9.76109 h -5.073529 c -0.195852,-0.76121 -0.887224,-1.32354 -1.709559,-1.32354 -0.974621,0 -1.764706,0.79009 -1.764706,1.76471 0,0.97463 0.790085,1.76472 1.764706,1.76472 0.822335,0 1.513707,-0.56233 1.709559,-1.32354 h 3.667279 1.681986 l 16.32353,-10.14712 v -14.17289 c 0.761211,-0.19584 1.323531,-0.88723 1.323531,-1.70957 0,-0.97462 -0.790092,-1.76471 -1.764708,-1.76471 z m 7.058828,0 c -0.97462,0 -1.76471,0.79009 -1.76471,1.76471 0,0.82234 0.56232,1.51373 1.32353,1.70957 v 13.67657 l -22.748163,14.17288 h -5.101103 c -0.195852,-0.76121 -0.887224,-1.32354 -1.709559,-1.32354 -0.974621,0 -1.764706,0.79009 -1.764706,1.76472 0,0.97462 0.790085,1.76471 1.764706,1.76471 0.822335,0 1.513707,-0.56233 1.709559,-1.32354 h 3.694853 1.654412 l 23.382351,-14.55891 v -14.17289 c 0.76121,-0.19584 1.32353,-0.88723 1.32353,-1.70957 0,-0.97462 -0.79009,-1.76471 -1.7647,-1.76471 z m 7.05882,0 c -0.97462,0 -1.76471,0.79009 -1.76471,1.76471 0,0.82234 0.56232,1.51373 1.32353,1.70957 v 13.67657 l -29.77941,18.58467 h -5.128676 c -0.195852,-0.76122 -0.887224,-1.32354 -1.709559,-1.32354 -0.974621,0 -1.764706,0.79009 -1.764706,1.76472 0,0.97462 0.790085,1.76471 1.764706,1.76471 0.822335,0 1.513707,-0.56233 1.709559,-1.32353 h 3.722426 1.626839 l 30.441181,-18.97071 v -14.17289 c 0.7612,-0.19584 1.32353,-0.88723 1.32353,-1.70957 0,-0.97462 -0.79009,-1.76471 -1.76471,-1.76471 z M 7.0588137,954.86201 c 0.4873059,0 0.882353,0.39505 0.882353,0.88235 0,0.48732 -0.3950471,0.88237 -0.882353,0.88237 -0.4873059,0 -0.8823529,-0.39505 -0.8823529,-0.88237 0,-0.4873 0.395047,-0.88235 0.8823529,-0.88235 z m 7.0588243,0 c 0.487305,0 0.882352,0.39505 0.882352,0.88235 0,0.48732 -0.395047,0.88237 -0.882352,0.88237 -0.487306,0 -0.882353,-0.39505 -0.882353,-0.88237 0,-0.4873 0.395047,-0.88235 0.882353,-0.88235 z m 7.058823,0 c 0.487306,0 0.882353,0.39505 0.882353,0.88235 0,0.48732 -0.395047,0.88237 -0.882353,0.88237 -0.487306,0 -0.882353,-0.39505 -0.882353,-0.88237 0,-0.4873 0.395047,-0.88235 0.882353,-0.88235 z m 7.058824,0 c 0.487305,0 0.882353,0.39505 0.882353,0.88235 0,0.48732 -0.395048,0.88237 -0.882353,0.88237 -0.487306,0 -0.882353,-0.39505 -0.882353,-0.88237 0,-0.4873 0.395047,-0.88235 0.882353,-0.88235 z m 63.529413,0 c 0.487302,0 0.882353,0.39505 0.882353,0.88235 0,0.48732 -0.395051,0.88237 -0.882353,0.88237 -0.487309,0 -0.882353,-0.39505 -0.882353,-0.88237 0,-0.4873 0.395044,-0.88235 0.882353,-0.88235 z m 7.058824,0 c 0.487302,0 0.882354,0.39505 0.882354,0.88235 0,0.48732 -0.395052,0.88237 -0.882354,0.88237 -0.48731,0 -0.882353,-0.39505 -0.882353,-0.88237 0,-0.4873 0.395043,-0.88235 0.882353,-0.88235 z m 7.058828,0 c 0.4873,0 0.88235,0.39505 0.88235,0.88235 0,0.48732 -0.39505,0.88237 -0.88235,0.88237 -0.48731,0 -0.88236,-0.39505 -0.88236,-0.88237 0,-0.4873 0.39505,-0.88235 0.88236,-0.88235 z m 7.05882,0 c 0.4873,0 0.88235,0.39505 0.88235,0.88235 0,0.48732 -0.39505,0.88237 -0.88235,0.88237 -0.48731,0 -0.88235,-0.39505 -0.88235,-0.88237 0,-0.4873 0.39504,-0.88235 0.88235,-0.88235 z m -68.823531,21.1766 c 0.487305,0 0.882352,0.39506 0.882352,0.88236 0,0.48731 -0.395047,0.88235 -0.882352,0.88235 -0.487306,0 -0.882353,-0.39504 -0.882353,-0.88235 0,-0.4873 0.395047,-0.88236 0.882353,-0.88236 z m 31.764706,0 c 0.487301,0 0.882353,0.39506 0.882353,0.88236 0,0.48731 -0.395052,0.88235 -0.882353,0.88235 -0.48731,0 -0.882353,-0.39504 -0.882353,-0.88235 0,-0.4873 0.395043,-0.88236 0.882353,-0.88236 z m -31.764706,4.41179 c 0.487305,0 0.882352,0.39506 0.882352,0.88236 0,0.48731 -0.395047,0.88236 -0.882352,0.88236 -0.487306,0 -0.882353,-0.39505 -0.882353,-0.88236 0,-0.4873 0.395047,-0.88236 0.882353,-0.88236 z m 31.764706,0 c 0.487301,0 0.882353,0.39506 0.882353,0.88236 0,0.48731 -0.395052,0.88236 -0.882353,0.88236 -0.48731,0 -0.882353,-0.39505 -0.882353,-0.88236 0,-0.4873 0.395043,-0.88236 0.882353,-0.88236 z m -31.764706,4.41179 c 0.487305,0 0.882352,0.39506 0.882352,0.88237 0,0.4873 -0.395047,0.88235 -0.882352,0.88235 -0.487306,0 -0.882353,-0.39505 -0.882353,-0.88235 0,-0.48731 0.395047,-0.88237 0.882353,-0.88237 z m 31.764706,0 c 0.487301,0 0.882353,0.39506 0.882353,0.88237 0,0.4873 -0.395052,0.88235 -0.882353,0.88235 -0.48731,0 -0.882353,-0.39505 -0.882353,-0.88235 0,-0.48731 0.395043,-0.88237 0.882353,-0.88237 z m -31.764706,4.4118 c 0.487305,0 0.882352,0.39505 0.882352,0.88236 0,0.48731 -0.395047,0.88236 -0.882352,0.88236 -0.487306,0 -0.882353,-0.39505 -0.882353,-0.88236 0,-0.48731 0.395047,-0.88236 0.882353,-0.88236 z m 31.764706,0 c 0.487301,0 0.882353,0.39505 0.882353,0.88236 0,0.48731 -0.395052,0.88236 -0.882353,0.88236 -0.48731,0 -0.882353,-0.39505 -0.882353,-0.88236 0,-0.48731 0.395043,-0.88236 0.882353,-0.88236 z m -31.764706,3.52944 c -0.822336,0 -1.513712,0.56232 -1.709559,1.32354 H 38.685653 37.058815 L 6.6176373,1013.0977 v 14.1729 c -0.761206,0.1958 -1.3235296,0.8872 -1.3235296,1.7095 0,0.9747 0.7900854,1.7647 1.764706,1.7647 0.9746202,0 1.7647059,-0.79 1.7647059,-1.7647 0,-0.8223 -0.562324,-1.5137 -1.3235294,-1.7095 v -13.6765 L 37.279402,995.00932 h 5.128678 c 0.195847,0.76121 0.887223,1.32354 1.709559,1.32354 0.97462,0 1.764705,-0.79009 1.764705,-1.76472 0,-0.97462 -0.790085,-1.76471 -1.764705,-1.76471 z m 31.764706,0 c -0.974621,0 -1.764706,0.79009 -1.764706,1.76471 0,0.97463 0.790085,1.76472 1.764706,1.76472 0.822335,0 1.513707,-0.56233 1.709559,-1.32354 h 5.128676 l 29.77941,18.58478 v 13.6765 c -0.76121,0.1958 -1.32353,0.8872 -1.32353,1.7095 0,0.9747 0.79009,1.7647 1.76471,1.7647 0.97462,0 1.76471,-0.79 1.76471,-1.7647 0,-0.8223 -0.56233,-1.5137 -1.32353,-1.7095 v -14.1729 L 82.941169,994.12697 H 81.31433 77.591904 c -0.195852,-0.76122 -0.887224,-1.32354 -1.709559,-1.32354 z m -31.764706,0.88235 c 0.487305,0 0.882352,0.39504 0.882352,0.88236 0,0.48731 -0.395047,0.88236 -0.882352,0.88236 -0.487306,0 -0.882353,-0.39505 -0.882353,-0.88236 0,-0.48732 0.395047,-0.88236 0.882353,-0.88236 z m 31.764706,0 c 0.487301,0 0.882353,0.39504 0.882353,0.88236 0,0.48731 -0.395052,0.88236 -0.882353,0.88236 -0.48731,0 -0.882353,-0.39505 -0.882353,-0.88236 0,-0.48732 0.395043,-0.88236 0.882353,-0.88236 z m -31.764706,3.52944 c -0.822336,0 -1.513712,0.56232 -1.709559,1.32354 h -3.694853 -1.654412 l -23.382354,14.55894 v 14.1729 c -0.761206,0.1958 -1.323529,0.8872 -1.323529,1.7095 0,0.9747 0.790086,1.7647 1.764706,1.7647 0.97462,0 1.764705,-0.79 1.764705,-1.7647 0,-0.8223 -0.562324,-1.5137 -1.323529,-1.7095 v -13.6765 l 22.748163,-14.17299 h 5.101103 c 0.195847,0.76119 0.887223,1.32349 1.709559,1.32349 0.97462,0 1.764705,-0.79004 1.764705,-1.76467 0,-0.97462 -0.790085,-1.76471 -1.764705,-1.76471 z m 31.764706,0 c -0.974621,0 -1.764706,0.79009 -1.764706,1.76471 0,0.97463 0.790085,1.76467 1.764706,1.76467 0.822335,0 1.513707,-0.5623 1.709559,-1.32349 h 5.101103 l 22.748163,14.17299 v 13.6765 c -0.76121,0.1958 -1.32353,0.8872 -1.32353,1.7095 0,0.9747 0.79009,1.7647 1.76471,1.7647 0.97461,0 1.7647,-0.79 1.7647,-1.7647 0,-0.8223 -0.56232,-1.5137 -1.32353,-1.7095 v -14.1729 L 82.941169,998.53876 h -1.654412 -3.694853 c -0.195852,-0.76122 -0.887224,-1.32354 -1.709559,-1.32354 z m -31.764706,0.88235 c 0.487305,0 0.882352,0.39505 0.882352,0.88236 0,0.48731 -0.395047,0.88237 -0.882352,0.88237 -0.487306,0 -0.882353,-0.39506 -0.882353,-0.88237 0,-0.48731 0.395047,-0.88236 0.882353,-0.88236 z m 31.764706,0 c 0.487301,0 0.882353,0.39505 0.882353,0.88236 0,0.48731 -0.395052,0.88237 -0.882353,0.88237 -0.48731,0 -0.882353,-0.39506 -0.882353,-0.88237 0,-0.48731 0.395043,-0.88236 0.882353,-0.88236 z m -31.764706,3.52943 c -0.822336,0 -1.513712,0.5623 -1.709559,1.3236 H 38.7408 37.058815 l -16.32353,10.1471 v 14.1729 c -0.761205,0.1958 -1.32353,0.8872 -1.32353,1.7095 0,0.9747 0.790086,1.7647 1.764706,1.7647 0.97462,0 1.764706,-0.79 1.764706,-1.7647 0,-0.8223 -0.562323,-1.5137 -1.323529,-1.7095 v -13.6765 l 15.716912,-9.7612 h 5.07353 c 0.195847,0.7612 0.887223,1.3236 1.709559,1.3236 0.97462,0 1.764705,-0.7902 1.764705,-1.7648 0,-0.9746 -0.790085,-1.7647 -1.764705,-1.7647 z m 31.764706,0 c -0.974621,0 -1.764706,0.7901 -1.764706,1.7647 0,0.9746 0.790085,1.7648 1.764706,1.7648 0.822335,0 1.513707,-0.5624 1.709559,-1.3236 h 5.073529 l 15.716913,9.7612 v 13.6765 c -0.761211,0.1958 -1.32353,0.8872 -1.32353,1.7095 0,0.9747 0.790086,1.7647 1.764706,1.7647 0.974616,0 1.764708,-0.79 1.764708,-1.7647 0,-0.8223 -0.56232,-1.5137 -1.323531,-1.7095 v -14.1729 l -16.32353,-10.1471 h -1.681986 -3.667279 c -0.195852,-0.7613 -0.887224,-1.3236 -1.709559,-1.3236 z m -31.764706,0.8824 c 0.487305,0 0.882352,0.395 0.882352,0.8823 0,0.4874 -0.395047,0.8823 -0.882352,0.8823 -0.487306,0 -0.882353,-0.3949 -0.882353,-0.8823 0,-0.4873 0.395047,-0.8823 0.882353,-0.8823 z m 31.764706,0 c 0.487301,0 0.882353,0.395 0.882353,0.8823 0,0.4874 -0.395052,0.8823 -0.882353,0.8823 -0.48731,0 -0.882353,-0.3949 -0.882353,-0.8823 0,-0.4873 0.395043,-0.8823 0.882353,-0.8823 z m -31.764706,3.5295 c -0.822336,0 -1.513712,0.5622 -1.709559,1.3234 H 38.7408 37.058815 l -9.264706,5.7354 v 14.1729 c -0.761206,0.1958 -1.32353,0.8872 -1.32353,1.7095 0,0.9747 0.790085,1.7647 1.764706,1.7647 0.974621,0 1.764705,-0.79 1.764705,-1.7647 0,-0.8223 -0.562323,-1.5137 -1.323528,-1.7095 v -13.6765 l 8.630515,-5.3494 h 5.101103 c 0.195847,0.7612 0.887223,1.3236 1.709559,1.3236 0.97462,0 1.764705,-0.7902 1.764705,-1.7647 0,-0.9747 -0.790085,-1.7647 -1.764705,-1.7647 z m 31.764706,0 c -0.974621,0 -1.764706,0.79 -1.764706,1.7647 0,0.9745 0.790085,1.7647 1.764706,1.7647 0.822335,0 1.513707,-0.5624 1.709559,-1.3236 h 5.101103 l 8.630515,5.3494 v 13.6765 c -0.76121,0.1958 -1.32353,0.8872 -1.32353,1.7095 0,0.9747 0.790086,1.7647 1.764706,1.7647 0.974617,0 1.764706,-0.79 1.764706,-1.7647 0,-0.8223 -0.562323,-1.5137 -1.323529,-1.7095 v -14.1729 l -9.264706,-5.7354 h -1.681986 -3.667279 c -0.195852,-0.7612 -0.887224,-1.3234 -1.709559,-1.3234 z m -31.764706,0.8823 c 0.487305,0 0.882352,0.395 0.882352,0.8824 0,0.4872 -0.395047,0.8823 -0.882352,0.8823 -0.487306,0 -0.882353,-0.3951 -0.882353,-0.8823 0,-0.4874 0.395047,-0.8824 0.882353,-0.8824 z m 31.764706,0 c 0.487301,0 0.882353,0.395 0.882353,0.8824 0,0.4872 -0.395052,0.8823 -0.882353,0.8823 -0.48731,0 -0.882353,-0.3951 -0.882353,-0.8823 0,-0.4874 0.395043,-0.8824 0.882353,-0.8824 z m -68.8235313,21.1766 c 0.4873059,0 0.882353,0.395 0.882353,0.8823 0,0.4873 -0.3950471,0.8824 -0.882353,0.8824 -0.4873059,0 -0.8823529,-0.3951 -0.8823529,-0.8824 0,-0.4873 0.395047,-0.8823 0.8823529,-0.8823 z m 7.0588243,0 c 0.487305,0 0.882352,0.395 0.882352,0.8823 0,0.4873 -0.395047,0.8824 -0.882352,0.8824 -0.487306,0 -0.882353,-0.3951 -0.882353,-0.8824 0,-0.4873 0.395047,-0.8823 0.882353,-0.8823 z m 7.058823,0 c 0.487306,0 0.882353,0.395 0.882353,0.8823 0,0.4873 -0.395047,0.8824 -0.882353,0.8824 -0.487306,0 -0.882353,-0.3951 -0.882353,-0.8824 0,-0.4873 0.395047,-0.8823 0.882353,-0.8823 z m 7.058824,0 c 0.487305,0 0.882353,0.395 0.882353,0.8823 0,0.4873 -0.395048,0.8824 -0.882353,0.8824 -0.487306,0 -0.882353,-0.3951 -0.882353,-0.8824 0,-0.4873 0.395047,-0.8823 0.882353,-0.8823 z m 63.529413,0 c 0.487302,0 0.882353,0.395 0.882353,0.8823 0,0.4873 -0.395051,0.8824 -0.882353,0.8824 -0.487309,0 -0.882353,-0.3951 -0.882353,-0.8824 0,-0.4873 0.395044,-0.8823 0.882353,-0.8823 z m 7.058824,0 c 0.487302,0 0.882354,0.395 0.882354,0.8823 0,0.4873 -0.395052,0.8824 -0.882354,0.8824 -0.48731,0 -0.882353,-0.3951 -0.882353,-0.8824 0,-0.4873 0.395043,-0.8823 0.882353,-0.8823 z m 7.058828,0 c 0.4873,0 0.88235,0.395 0.88235,0.8823 0,0.4873 -0.39505,0.8824 -0.88235,0.8824 -0.48731,0 -0.88236,-0.3951 -0.88236,-0.8824 0,-0.4873 0.39505,-0.8823 0.88236,-0.8823 z m 7.05882,0 c 0.4873,0 0.88235,0.395 0.88235,0.8823 0,0.4873 -0.39505,0.8824 -0.88235,0.8824 -0.48731,0 -0.88235,-0.3951 -0.88235,-0.8824 0,-0.4873 0.39504,-0.8823 0.88235,-0.8823 z m -95.294121,6.1765 c -0.97462,0 -1.764706,0.7901 -1.764706,1.7647 0,0.9746 0.790086,1.7647 1.764706,1.7647 0.97462,0 1.764706,-0.7901 1.764706,-1.7647 0,-0.9746 -0.790086,-1.7647 -1.764706,-1.7647 z m 84.705881,0 c -0.97462,0 -1.7647,0.7901 -1.7647,1.7647 0,0.9746 0.79008,1.7647 1.7647,1.7647 0.97462,0 1.76471,-0.7901 1.76471,-1.7647 0,-0.9746 -0.79009,-1.7647 -1.76471,-1.7647 z"
             id="path2898-9-5-5"
             inkscape:connector-curvature="0" />
        </g>
      </g>
    </g>
  </g>
</svg>
